<?xml version="1.0" encoding="utf-8"?>
<!-- Generator: Adobe Illustrator 21.0.0, SVG Export Plug-In . SVG Version: 6.00 Build 0)  -->
<svg version="1.1" id="Layer_1" xmlns="http://www.w3.org/2000/svg" xmlns:xlink="http://www.w3.org/1999/xlink" x="0px" y="0px"
	 viewBox="0 0 100 100" style="enable-background:new 0 0 100 100;" xml:space="preserve">
	<style type="text/css">
	*{fill:gray;}
	</style>
<g>
	<path d="M62.3,36.4c0-1.8,4.5-5,4.5-9.2c0-3.6-6.5-14-8.3-16.7H41.5c-1.8,2.7-8.3,13.1-8.3,16.7c0,4.2,4.5,7.4,4.5,9.2
		c0,1.8-4.8,7.4-4.8,11.3v46.4c0,3.1,2.5,5.5,5.5,5.5c3.1,0,5.5-2.5,5.5-5.5c0,0,1,2,1.7,3.2c1.6,3,6.8,3.1,8.5,0.1
		c0.7-1.2,1.8-3.3,1.8-3.3c0,3.1,2.5,5.5,5.5,5.5s5.5-2.5,5.5-5.5V47.8C67.1,43.8,62.3,38.3,62.3,36.4z M63,79.1H37V60.3h26V79.1z"
		/>
	<rect x="41.9" y="0.3" width="16.2" height="8.4"/>
</g>
</svg>
