<?xml version="1.0" encoding="utf-8"?>
<!-- Generator: Adobe Illustrator 21.0.0, SVG Export Plug-In . SVG Version: 6.00 Build 0)  -->
<svg version="1.1" id="Layer_1" xmlns="http://www.w3.org/2000/svg" xmlns:xlink="http://www.w3.org/1999/xlink" x="0px" y="0px"
	 viewBox="0 0 100 100" style="enable-background:new 0 0 100 100;" xml:space="preserve">
<style type="text/css">
	.st0{fill:#000100;}
</style>
<path class="st0" d="M99.4,40.8c-1.6-3-7.4-6-7.4-6V16.1c0-5.4-3.9-10.1-9.2-11c-7-1.2-17.7-2.6-31.9-3l0,0c-0.3,0-1.5,0-1.7,0l0,0
	C35,2.6,24.2,4,17.2,5.2C11.9,6.1,8,10.7,8,16.1v18.6c0,0-5.8,3-7.4,6s1.4,8.7,3,10.7c0.9,1.1,2.8,1.8,4.4,1.5v27.7
	c0,5.6,4.6,10.2,10.2,10.2h0.5v6.7c0,0.2,0.2,0.4,0.4,0.4h12.3c0.2,0,0.4-0.2,0.4-0.4v-6.5h36.3v6.5c0,0.2,0.2,0.4,0.4,0.4h12.3
	c0.2,0,0.4-0.2,0.4-0.4v-6.7h0.5c5.6,0,10.2-4.6,10.2-10.2V52.9c1.6,0.4,3.5-0.3,4.4-1.5C98,49.5,101,43.8,99.4,40.8z M13.3,21.7
	c0-3.6,0.2-4.3,11.2-5c8.4-0.5,42.5-0.5,50.9,0c11,0.7,11.2,1.4,11.2,5s0,27.2,0,27.2S72.1,59.4,50.7,59.4c-0.3,0-1.2,0-1.5,0
	c-21.3,0-35.9-10.5-35.9-10.5S13.3,25.3,13.3,21.7z M32.9,74.9c-1.8,2-7.7,2.3-13.8,0.8c-6-1.4-5.9-5.3-6-8.8
	c-0.1-3.4,1.2-6,3.3-5.6C18.6,61.9,36.9,70.5,32.9,74.9z M65.2,84.7c0,0.6-0.5,1.1-1.1,1.1H37.1c-0.6,0-1.1-0.5-1.1-1.1v-5.2
	c0-0.6,0.5-1.1,1.1-1.1H64c0.6,0,1.1,0.5,1.1,1.1V84.7z M80.8,75.7c-6,1.4-11.9,1.1-13.8-0.8c-4-4.4,14.3-13,16.5-13.5
	c2.1-0.5,3.4,2.1,3.3,5.6C86.8,70.4,86.9,74.3,80.8,75.7z"/>
</svg>
