<?xml version="1.0" encoding="utf-8"?>
<!-- Generator: Adobe Illustrator 21.0.0, SVG Export Plug-In . SVG Version: 6.00 Build 0)  -->
<svg version="1.1" id="Layer_1" xmlns="http://www.w3.org/2000/svg" xmlns:xlink="http://www.w3.org/1999/xlink" x="0px" y="0px"
	 viewBox="0 0 100 100" style="enable-background:new 0 0 100 100;" xml:space="preserve">
<style type="text/css">
	.st0{fill:#000100;}
</style>
<path class="st0" d="M84.9,36H66.7l-6.2-10.1h-7.6V6.2H85V0.5H15v5.7h32.1v19.7h-7.6L33.3,36H15.1c0,0-8.5,12.2-8.5,30.7
	c0,27,8.9,32.9,8.9,32.9h69c0,0,8.9-5.9,8.9-32.9C93.4,48.2,84.9,36,84.9,36z M86.1,66.7c0,1.3,0,2.6-0.1,3.8H53.5V43.2h27.2
	C82.8,47.5,86.1,55.9,86.1,66.7z M19.3,43.2h27.2v27.2H13.9c0-1.2-0.1-2.5-0.1-3.8C13.9,55.9,17.2,47.5,19.3,43.2z"/>
</svg>
