<?xml version="1.0" encoding="utf-8"?>
<!-- Generator: Adobe Illustrator 21.0.0, SVG Export Plug-In . SVG Version: 6.00 Build 0)  -->
<svg version="1.1" id="Layer_1" xmlns="http://www.w3.org/2000/svg" xmlns:xlink="http://www.w3.org/1999/xlink" x="0px" y="0px"
	 viewBox="0 0 100 100" style="enable-background:new 0 0 100 100;" xml:space="preserve">
<style type="text/css">
	.st0{fill:gray;}
</style>
<path class="st0" d="M77.9,10.3C77.9,10.3,78,10.3,77.9,10.3L68,0.3l-17,17l3.2,3.2l-1.9,1.9L49,19.2L0.3,68l10,10c0,0,0,0,0,0
	c3.2-3.2,8.5-3.2,11.7,0s3.2,8.5,0,11.7c0,0,0,0,0,0l10,10L80.8,51l-3.4-3.4l1.9-1.9l3.4,3.4l17-17l-10-10c0,0,0,0,0,0
	c-3.2,3.2-8.5,3.2-11.7,0S74.7,13.6,77.9,10.3z M75.7,42l-1.9,1.9l-3.6-3.6l1.9-1.9L75.7,42z M68.5,34.9l-1.9,1.9L63,33.2l1.9-1.9
	L68.5,34.9z M61.4,27.7l-1.9,1.9L55.9,26l1.9-1.9L61.4,27.7z"/>
</svg>
