<?xml version="1.0" encoding="utf-8"?>
<!-- Generator: Adobe Illustrator 21.0.0, SVG Export Plug-In . SVG Version: 6.00 Build 0)  -->
<svg version="1.1" id="Layer_1" xmlns="http://www.w3.org/2000/svg" xmlns:xlink="http://www.w3.org/1999/xlink" x="0px" y="0px"
	 viewBox="0 0 100 100" style="enable-background:new 0 0 100 100;" xml:space="preserve">
<g>
	<path d="M87.1,88.2H14.3c-2.6,0-4.8-1.8-5.3-4.3L6.4,72.3h88.5l-2.5,11.5C91.8,86.4,89.6,88.2,87.1,88.2z"/>
	<path d="M87.2,43.3H14.3c-2.6,0-4.8,1.8-5.3,4.3L6.4,58.9h31.5l2.2,3.3c0.8,1.2,2.1,1.9,3.5,1.9h14.2c1.4,0,2.7-0.7,3.5-1.9
		l2.2-3.3H95l-2.5-11.3C91.9,45.1,89.7,43.3,87.2,43.3z"/>
	<g>
		<path d="M97.8,61.2H95H64.8l-1.5,2.3c-1.2,1.8-3.2,2.9-5.4,2.9H43.6c-2.2,0-4.2-1.1-5.4-2.9l-1.5-2.3H6.4H3.6H0.5v9.2h98.9v-9.2
			H97.8z"/>
	</g>
	<path d="M71.6,17.9H49.4c-0.7-3.4-3.8-6-7.4-6H29.8c-0.9,0-1.6,0.7-1.6,1.6S29,15,29.8,15h10.2v2.9H29.8c-0.9,0-1.6,0.7-1.6,1.6
		c0,0.9,0.7,1.6,1.6,1.6h10.2v2.9H29.8c-0.9,0-1.6,0.7-1.6,1.6c0,0.9,0.7,1.6,1.6,1.6H42c3.7,0,6.7-2.6,7.4-6h22.1
		c0.9,0,1.6-0.7,1.6-1.6C73.2,18.6,72.5,17.9,71.6,17.9z"/>
	<path d="M72.1,31l-42.6,0c-0.6,0-1.2,0.3-1.6,0.8c-1.7,2.5,4.6,6.6,13.4,6.6c7,0,9.7-2.7,10.6-4.2h20.2c0.9,0,1.6-0.8,1.6-1.7
		C73.7,31.7,72.9,31,72.1,31z"/>
</g>
</svg>
