<?xml version="1.0" encoding="utf-8"?>
<!-- Generator: Adobe Illustrator 21.0.0, SVG Export Plug-In . SVG Version: 6.00 Build 0)  -->
<svg version="1.1" id="Layer_1" xmlns="http://www.w3.org/2000/svg" xmlns:xlink="http://www.w3.org/1999/xlink" x="0px" y="0px"
	 viewBox="0 0 100 100" style="enable-background:new 0 0 100 100;" xml:space="preserve">


<style type="text/css">
	path{fill:gray;}
</style>
<path d="M99.1,39.4c1.2-4.2-2.8-8-5-8c-1.2,0-3.4,0.6-7.2,1.4l-4.4-10.7c-0.8-1.9-2.8-5-5.3-5.8c-2.4-0.8-6.4-1.9-12.9-2.6
	c-7.3-0.8-11.4-1-13.5-1.1c-0.2,0-1.5,0-1.6,0c-2.1,0-6.2,0.3-13.5,1.1c-6.5,0.7-10.5,1.8-12.9,2.6c-2.5,0.8-4.6,3.9-5.3,5.8
	l-4.4,10.7c-3.8-0.8-6-1.4-7.2-1.4c-2.2,0-6.2,3.9-5,8s4.9,5.9,4.9,5.9s-2.2,4.2-2.7,8.3C2.8,56.7,3,73.9,3.1,82.5
	c0,2.7,2.2,4.8,4.9,4.8h10.3c2.7,0,4.9-2.2,4.9-4.9v-4.2c0,0,15,1.5,23.4,1.5c1.1,0,5.8,0,6.9,0c8.4,0,23.4-1.5,23.4-1.5v4.2
	c0,2.7,2.2,4.9,4.9,4.9h10.3c2.7,0,4.9-2.1,4.9-4.8c0.1-8.5,0.3-25.7-0.1-28.8c-0.4-4.2-2.7-8.3-2.7-8.3S97.9,43.6,99.1,39.4z
	 M19,64.3c-3.4,0-6.1-2.7-6.1-6.1s2.7-6.1,6.1-6.1s6.1,2.7,6.1,6.1S22.3,64.3,19,64.3z M66.5,64.3H33.5v-3h32.9V64.3z M66.5,58.1
	H33.5v-3h32.9V58.1z M25.4,35.1c-3.4-0.5-6.3-1-8.7-1.5l4.1-10.1c0.7-1.6,2.1-3.4,3.1-3.7c2.3-0.7,6-1.8,12.2-2.4
	c7.1-0.8,9.8-1,13.1-1c0.4,0,1.7,0,1.7,0c2,0,6,0.3,13.1,1c6.2,0.7,9.9,1.7,12.2,2.4c1,0.3,2.4,2.1,3.1,3.7l4.1,10.1
	c-2.4,0.5-5.3,1-8.7,1.5C62.6,36.9,37.4,36.9,25.4,35.1z M81,64.3c-3.4,0-6.1-2.7-6.1-6.1s2.7-6.1,6.1-6.1c3.4,0,6.1,2.7,6.1,6.1
	S84.4,64.3,81,64.3z"/>
</svg>
