<?xml version="1.0" encoding="UTF-8"?>
<!DOCTYPE svg PUBLIC "-//W3C//DTD SVG 1.1//EN" "http://www.w3.org/Graphics/SVG/1.1/DTD/svg11.dtd">
<!-- Creator: CorelDRAW X8 -->
<svg xmlns="http://www.w3.org/2000/svg" xml:space="preserve" width="1277px" height="471px" version="1.1" style="shape-rendering:geometricPrecision; text-rendering:geometricPrecision; image-rendering:optimizeQuality; fill-rule:evenodd; clip-rule:evenodd"
viewBox="0 0 1277 471"
 xmlns:xlink="http://www.w3.org/1999/xlink">
 <defs>
  <style type="text/css">
   <![CDATA[
    .fil0 {fill:#FF0042}
   ]]>
  </style>
 </defs>
 <g id="Layer_x0020_1">
  <metadata id="CorelCorpID_0Corel-Layer"/>
  <path class="fil0" d="M151 259l-1 20c0,21 -1,135 0,144 5,2 28,2 34,0 1,-4 2,-163 0,-173 -4,0 -1,0 -2,1l2 1 0 170 -33 0 0 -163zm664 175c-24,6 -15,42 10,36 22,-5 16,-41 -10,-36zm-112 -188c-24,7 -13,43 11,36 23,-7 15,-43 -11,-36zm213 188c-24,5 -17,42 9,36 23,-5 15,-41 -9,-36zm-652 1c-25,6 -13,42 11,35 23,-7 14,-42 -11,-35zm50 0c-25,7 -13,42 11,35 23,-7 14,-42 -11,-35zm439 -189c-25,8 -12,42 11,36 24,-7 13,-43 -11,-36zm-694 3c-24,6 -17,42 8,36 24,-5 16,-41 -8,-36zm807 185c-25,5 -17,42 9,36 23,-5 16,-41 -9,-36zm-624 -432c-29,11 -11,50 15,40 27,-10 12,-51 -15,-40zm835 -1c-28,8 -16,49 12,42 27,-8 18,-50 -12,-42zm-1005 119l64 0c0,-4 -28,-77 -32,-83 -3,6 -31,78 -32,83zm384 0l63 0c-2,-8 -28,-79 -32,-83 -5,11 -29,74 -31,83zm303 203c-6,-3 -22,-3 -29,-2 -34,8 -31,51 -20,65 12,14 35,14 44,-2 6,-9 5,-17 5,-28 0,-10 1,-24 0,-33zm-357 3l-1 68c13,6 31,3 41,-3 22,-12 21,-55 -1,-67 -12,-7 -29,-6 -39,2zm835 -240c-10,-6 -44,-7 -58,13 -15,21 -12,75 28,74 29,-2 31,-28 31,-48 0,-11 1,-29 -1,-39zm-309 86c75,15 74,-53 57,-76 -11,-16 -41,-16 -52,3 -8,14 -6,53 -5,73zm-115 -87c-8,-3 -27,-3 -36,0 -39,9 -34,61 -20,77 15,16 42,14 52,-5 5,-10 5,-21 5,-33 0,-9 1,-33 -1,-39zm-662 174l0 163 33 0 0 -170 -2 -1 -31 8zm79 -195l0 137 39 0 0 -148 -39 11zm1013 196l0 162 34 1 0 -172 -34 9zm-180 -196l0 136 40 1 0 -148 -40 11zm-757 5l0 131 40 1 0 -111c15,-7 26,-6 44,-3l12 -30c-20,-5 -30,-8 -53,-4 -15,3 -32,8 -43,16zm304 0l0 131 40 1 0 -111c17,-7 24,-6 44,-3l12 -29c-28,-14 -75,-3 -96,11zm-518 236c0,19 1,38 0,56 -1,18 -5,31 -21,34 -45,9 -37,-39 -37,-72l-34 9c0,29 0,52 15,71 13,16 36,26 64,20 24,-5 38,-20 44,-44 4,-18 4,-62 3,-83l-34 9zm722 -117l0 13 39 0 0 -135c-17,-7 -20,-9 -41,-12 -121,-18 -125,106 -79,139 16,11 44,16 65,6 8,-4 10,-8 16,-11zm424 0l0 12 39 1 0 -135c-59,-28 -132,-17 -145,46 -15,71 42,107 88,88 12,-5 12,-9 18,-12zm-53 72c-1,11 -1,75 -1,91 0,53 6,46 -67,46 -11,1 -11,1 -16,-6 -12,-17 -12,-53 12,-64 16,-7 24,-1 37,2 3,-7 11,-19 13,-26 -17,-6 -23,-11 -47,-8 -41,4 -61,41 -57,81 1,8 5,16 6,21l-30 0 0 -101 -33 9c-4,13 3,117 -3,128 -6,11 -21,6 -33,4l-8 23c35,13 73,8 77,-37 29,0 59,0 88,0 26,0 62,4 80,-9 19,-14 15,-46 15,-74 0,-30 1,-60 0,-89l-33 9zm-801 -59l41 0 16 -44 92 0 17 44 41 0c-1,-9 -34,-91 -37,-100 -13,-33 -27,-66 -41,-97l-51 0c-24,50 -49,116 -69,170 -3,8 -8,19 -9,27zm-384 -1l42 1 16 -44 92 0 16 44 42 0c-4,-19 -72,-188 -79,-197l-50 0c-15,30 -28,65 -41,97 -7,16 -13,32 -19,49 -6,16 -14,35 -19,50zm888 -185l0 186c27,4 72,6 97,-2 26,-9 44,-28 49,-59 13,-83 -70,-108 -106,-71l0 -65 -40 11zm-129 394l0 13c13,1 81,2 92,-1 11,-3 13,-7 18,-14 13,18 20,15 46,15 15,0 49,2 61,0l1 -126 -34 9 0 89c-12,0 -26,0 -39,0 -14,0 -18,-6 -19,-20 -2,-26 1,-52 0,-78l-34 9c0,21 2,55 -1,73 -1,12 -7,16 -20,16 -12,0 -25,0 -37,0l0 -87c-20,-11 -52,-17 -78,-10 -56,15 -59,88 -26,115 14,11 38,15 56,7 11,-5 9,-7 14,-10zm-391 -149l0 134c-47,6 -30,-25 -34,-98l-33 9c0,21 2,55 -1,73 -1,12 -7,16 -20,16 -12,0 -25,0 -37,0l0 -98 -34 9c-2,20 3,119 -3,128 -6,11 -21,6 -33,4l-8 23c40,12 74,7 77,-37 14,-4 49,3 65,-4 7,-3 8,-7 12,-12 6,7 6,11 18,14 11,3 137,1 158,1 9,0 22,1 30,-1 13,-3 13,-6 19,-14 11,15 16,15 37,15 17,0 37,2 54,0l0 -171 -34 9 0 134c-45,2 -42,-1 -42,-50 0,-31 1,-63 0,-93 -6,1 -29,7 -33,10 -1,28 0,58 0,87 0,43 4,47 -41,46 5,-16 9,-23 7,-43 -3,-40 -33,-62 -70,-56 -6,1 -17,5 -21,5l0 -49 -33 9z"/>
 </g>
</svg>
