<?xml version="1.0" encoding="UTF-8"?>
<!DOCTYPE svg PUBLIC "-//W3C//DTD SVG 1.1//EN" "http://www.w3.org/Graphics/SVG/1.1/DTD/svg11.dtd">
<!-- Creator: CorelDRAW X8 -->
<?xml-stylesheet href="Untitled-2.css" type="text/css"?>
<svg xmlns="http://www.w3.org/2000/svg" xml:space="preserve" width="3.06333in" height="1.92666in" version="1.1" style="shape-rendering:geometricPrecision; text-rendering:geometricPrecision; image-rendering:optimizeQuality; fill-rule:evenodd; clip-rule:evenodd"
viewBox="0 0 3063 1927"
 xmlns:xlink="http://www.w3.org/1999/xlink">
 <defs>
   <clipPath id="id0">
    <rect x="148" y="62" width="2726" height="1785"/>
   </clipPath>
 </defs>
 <g id="Layer_x0020_1">
  <metadata id="CorelCorpID_0Corel-Layer"/>
  <g style="clip-path:url(#id0)">
   <image x="148" y="62" width="2726" height="1785" xlink:href="Untitled-2_Images\Untitled-2_ImgID1.png"/>
  </g>
  <g id="_2712919340656">
   <path class="fil0" d="M1236 848l5 0 0 -2 2 0 0 -2 2 0 0 7 7 0 0 -3 2 0 0 -2 14 0 0 125 -2 0 0 20 -3 0 0 16 -2 0 0 9 -2 0 0 7 -2 0 0 7 -3 0 0 5 -2 0 0 4 -2 0 0 2 -2 0 0 5 -3 0 0 -2 -2 0 0 -3 -2 0 0 -4 -3 0 0 -2 -2 0 0 -5 -2 0 0 -5 -2 0 0 -6 -3 0 0 -7 -2 0 0 -7 -2 0 0 -11 -2 0 0 -23 -3 0 0 -116 5 0 0 2 2 0 0 3 2 0 0 2 5 0 0 -2 2 0 0 -3 2 0 0 -4 -2 0 0 -5zm-100 -2l3 0 0 2 -3 0 0 -2zm5 -2l2 0 0 2 -2 0 0 -2zm-152 -5l9 0 0 2 -9 0 0 -2zm554 -4l2 0 0 4 -2 0 0 -4zm-186 0l2 0 0 4 -2 0 0 -4zm-223 0l2 0 0 4 -2 0 0 -4zm-175 2l2 0 0 2 -2 0 0 -2zm-66 -9l2 0 0 4 -2 0 0 -4zm-11 0l0 2 -2 0 0 -2 2 0zm379 -2l2 0 0 2 -2 0 0 -2zm-379 2l0 -2 2 0 0 2 -2 0zm379 -2l-2 0 0 -5 2 0 0 5zm-200 -3l3 0 0 3 -3 0 0 -3zm-59 0l2 0 0 3 -2 0 0 -3zm257 -2l-2 0 0 -2 2 0 0 2zm-232 -2l2 0 0 2 -2 0 0 -2zm-125 4l-2 0 0 -4 5 0 0 2 -3 0 0 2zm577 -9l3 0 0 2 2 0 0 3 -5 0 0 -5zm-222 5l-3 0 0 -5 3 0 0 5zm-246 -3l5 0 0 5 -2 0 0 -2 -3 0 0 -3zm243 -2l-2 0 0 -2 2 0 0 2zm-2 -2l-2 0 0 -2 2 0 0 2zm-18 -9l2 0 0 2 2 0 0 2 3 0 0 5 2 0 0 7 -2 0 0 -5 -3 0 0 -2 -4 0 0 -9zm-145 7l0 2 -3 0 0 -2 3 0zm-94 4l-4 0 0 2 -12 0 0 5 -6 0 0 -2 4 0 0 -3 -4 0 0 -2 -7 0 0 2 -14 0 0 -2 3 0 0 -4 2 0 0 -3 2 0 0 3 2 0 0 2 5 0 0 -2 4 0 0 2 5 0 0 -2 4 0 0 -3 3 0 0 -2 2 0 0 -2 9 0 0 4 5 0 0 -2 4 0 0 7 -7 0 0 2zm94 -4l0 -3 2 0 0 3 -2 0zm333 -5l0 2 -2 0 0 -2 2 0zm39 -4l2 0 0 2 3 0 0 -2 2 0 0 2 4 0 0 4 -2 0 0 3 -2 0 0 -3 -5 0 0 -2 -2 0 0 -4zm-545 2l4 0 0 4 -2 0 0 -2 -2 0 0 -2zm511 -5l0 16 -2 0 0 -9 -3 0 0 -2 -6 0 0 -2 6 0 0 -5 3 0 0 2 2 0zm193 0l2 0 0 3 -2 0 0 -3zm-32 -2l3 0 0 -2 2 0 0 2 2 0 0 5 -2 0 0 2 -2 0 0 -5 -3 0 0 -2zm-57 0l7 0 0 5 -4 0 0 -3 -3 0 0 -2zm-104 2l0 -2 2 0 0 2 -2 0zm-445 -2l4 0 0 2 -4 0 0 -2zm-87 5l-2 0 0 2 -2 0 0 -7 7 0 0 2 -3 0 0 3zm693 -5l-2 0 0 -2 2 0 0 2zm-216 -2l0 2 -2 0 0 -2 2 0zm-122 0l2 0 0 2 -2 0 0 -2zm-255 0l3 0 0 2 -3 0 0 -2zm412 -2l0 2 -3 0 0 -2 3 0zm-35 2l0 -5 3 0 0 -2 2 0 0 2 2 0 0 3 3 0 0 6 -5 0 0 -2 -2 0 0 -2 -3 0zm35 -2l0 -5 2 0 0 5 -2 0zm122 0l-9 0 0 -3 5 0 0 -2 2 0 0 -2 11 0 0 -3 3 0 0 -2 2 0 0 -2 4 0 0 2 5 0 0 2 2 0 0 7 5 0 0 3 4 0 0 -3 3 0 0 3 2 0 0 4 -5 0 0 2 -7 0 0 -2 -6 0 0 -2 -14 0 0 -2 -2 0 0 -3 -5 0 0 3zm-22 -5l0 2 -7 0 0 -2 7 0zm-155 0l2 0 0 2 -2 0 0 -2zm-407 5l-6 0 0 -3 2 0 0 -2 2 0 0 -2 2 0 0 2 3 0 0 2 -3 0 0 3zm562 -5l0 -2 4 0 0 2 -4 0zm-453 -2l5 0 0 2 -5 0 0 -2zm575 -7l2 0 0 7 -2 0 0 -7zm-295 4l2 0 0 3 -2 0 0 -3zm-84 -2l2 0 0 5 -2 0 0 -5zm-196 5l-2 0 0 -3 2 0 0 3zm453 -5l2 0 0 2 -2 0 0 -2zm-173 2l-5 0 0 -2 5 0 0 2zm-434 -9l0 5 5 0 0 -2 2 0 0 2 2 0 0 2 -7 0 0 7 -2 0 0 -2 -5 0 0 2 -2 0 0 -2 -2 0 0 -3 2 0 0 -4 2 0 0 -2 3 0 0 -3 2 0zm729 5l-4 0 0 2 -3 0 0 -7 7 0 0 5zm-18 -2l7 0 0 2 2 0 0 4 -4 0 0 -2 -3 0 0 -2 -2 0 0 -2zm-593 0l7 0 0 2 2 0 0 2 2 0 0 2 3 0 0 3 2 0 0 7 -7 0 0 -3 -2 0 0 -2 -5 0 0 -2 5 0 0 -5 -2 0 0 -2 -5 0 0 -2zm-52 4l-14 0 0 -2 3 0 0 -2 13 0 0 2 -2 0 0 2zm-41 -4l5 0 0 2 -5 0 0 -2zm713 4l-2 0 0 -2 -2 0 0 -5 7 0 0 -4 2 0 0 7 -5 0 0 4zm-63 -7l4 0 0 3 -4 0 0 -3zm-84 0l2 0 0 3 -2 0 0 -3zm-71 0l0 3 -7 0 0 -3 7 0zm-182 -2l0 5 -2 0 0 -5 2 0zm-104 0l2 0 0 5 -2 0 0 -5zm-107 2l5 0 0 3 -5 0 0 -3zm-18 0l2 0 0 3 -2 0 0 -3zm552 -2l2 0 0 2 -2 0 0 -2zm-70 2l-3 0 0 -2 3 0 0 2zm-69 -2l0 2 -2 0 0 -2 2 0zm-520 -2l0 4 -2 0 0 -4 2 0zm682 0l2 0 0 2 -2 0 0 -2zm-23 2l-2 0 0 -2 2 0 0 2zm-139 0l0 -2 3 0 0 2 -3 0zm-152 5l-2 0 0 -7 5 0 0 2 -3 0 0 5zm-227 -9l5 0 0 6 -3 0 0 -2 -2 0 0 -4zm18 4l-2 0 0 -4 5 0 0 2 -3 0 0 2zm543 -2l-2 0 0 2 -2 0 0 -2 -3 0 0 4 -2 0 0 -2 -2 0 0 -4 4 0 0 -5 5 0 0 -9 2 0 0 2 2 0 0 7 3 0 0 5 -5 0 0 2zm-20 -5l0 3 -3 0 0 2 -2 0 0 -5 5 0zm-177 0l2 0 0 3 -2 0 0 -3zm-169 7l0 -7 7 0 0 3 -2 0 0 2 -2 0 0 2 -3 0zm-336 -2l0 -5 5 0 0 3 -2 0 0 2 -3 0zm682 -5l0 -4 2 0 0 -5 2 0 0 12 -2 0 0 -3 -2 0zm-32 -2l0 2 -2 0 0 -2 2 0zm-145 2l-5 0 0 -2 5 0 0 2zm-25 -2l2 0 0 2 -2 0 0 -2zm-112 0l5 0 0 5 -2 0 0 -3 -3 0 0 -2zm296 -2l2 0 0 2 -2 0 0 -2zm-471 -3l3 0 0 3 2 0 0 2 -5 0 0 -5zm457 5l0 -5 -2 0 0 -2 4 0 0 2 2 0 0 3 -2 0 0 2 -2 0zm-2 -7l-3 0 0 -2 3 0 0 2zm-509 -4l2 0 0 4 -2 0 0 -4zm588 6l5 0 0 10 -3 0 0 -3 -2 0 0 -2 -11 0 0 -14 2 0 0 3 5 0 0 -3 2 0 0 3 4 0 0 2 -2 0 0 4zm-359 -11l0 5 7 0 0 2 5 0 0 2 -7 0 0 -2 -2 0 0 2 -5 0 0 -2 -5 0 0 -2 3 0 0 -3 2 0 0 -2 2 0zm-102 5l2 0 0 2 -2 0 0 -2zm-157 -5l7 0 0 2 -7 0 0 -2zm259 0l0 -2 3 0 0 2 -3 0zm316 -4l2 0 0 2 -2 0 0 -2zm-625 0l3 0 0 -7 2 0 0 2 2 0 0 2 5 0 0 3 2 0 0 4 -2 0 0 2 -3 0 0 -2 -4 0 0 -2 -5 0 0 -2zm75 -3l3 0 0 3 -3 0 0 -3zm661 -2l3 0 0 2 -3 0 0 -2zm-75 0l0 2 -2 0 0 -2 2 0zm-36 5l-5 0 0 -3 -2 0 0 -2 5 0 0 2 2 0 0 3zm-139 -5l3 0 0 2 -3 0 0 -2zm175 0l0 -2 3 0 0 2 -3 0zm-672 -2l2 0 0 2 -2 0 0 -2zm470 -3l2 0 0 3 -2 0 0 -3zm-445 -2l4 0 0 5 -4 0 0 -5zm159 -4l2 0 0 2 3 0 0 4 -5 0 0 -6zm-239 4l3 0 0 2 -3 0 0 -2zm521 -2l2 0 0 2 -2 0 0 -2zm-153 0l3 0 0 2 -3 0 0 -2zm-438 -2l2 0 0 4 -2 0 0 -4zm834 18l2 0 0 4 -9 0 0 3 -2 0 0 4 -5 0 0 2 -2 0 0 -4 -2 0 0 -2 2 0 0 -3 -2 0 0 -2 -5 0 0 2 -2 0 0 -4 2 0 0 -2 7 0 0 4 2 0 0 -2 2 0 0 -2 5 0 0 2 2 0 0 -9 2 0 0 -7 -2 0 0 -2 5 0 0 2 4 0 0 2 3 0 0 2 -5 0 0 3 -2 0 0 2 2 0 0 5 -2 0 0 2zm-103 -21l3 0 0 -4 2 0 0 7 2 0 0 2 3 0 0 2 -5 0 0 -2 -5 0 0 -5zm-111 0l2 0 0 5 -2 0 0 -5zm-554 0l2 0 0 3 2 0 0 2 -4 0 0 -5zm468 0l2 0 0 3 -2 0 0 -3zm-448 0l3 0 0 3 -3 0 0 -3zm668 -2l0 2 -2 0 0 -2 2 0zm-147 -4l2 0 0 2 2 0 0 4 -4 0 0 -6zm-307 4l2 0 0 2 -2 0 0 -2zm-80 0l3 0 0 2 -3 0 0 -2zm534 0l0 -2 2 0 0 2 -2 0zm-218 -2l2 0 0 2 -2 0 0 -2zm-236 2l-2 0 0 -2 2 0 0 2zm-5 -2l0 2 -2 0 0 -2 2 0zm-129 0l2 0 0 2 -2 0 0 -2zm370 0l-2 0 0 -2 2 0 0 2zm-238 0l-3 0 0 -2 3 0 0 2zm556 -9l5 0 0 7 -5 0 0 -7zm-550 2l3 0 0 2 -3 0 0 -2zm-125 0l5 0 0 2 -5 0 0 -2zm-13 0l4 0 0 2 -4 0 0 -2zm663 -5l2 0 0 3 5 0 0 2 -5 0 0 2 -2 0 0 -7zm-52 3l2 0 0 2 -2 0 0 -2zm-477 0l2 0 0 2 -2 0 0 -2zm-264 -3l3 0 0 5 -3 0 0 -5zm-13 3l2 0 0 2 -2 0 0 -2zm643 -5l2 0 0 5 -2 0 0 -5zm-362 2l3 0 0 3 -3 0 0 -3zm518 0l3 0 0 -4 2 0 0 2 2 0 0 2 -2 0 0 3 -5 0 0 -3zm0 0l-2 0 0 -2 2 0 0 2zm-511 -9l5 0 0 -2 2 0 0 9 2 0 0 2 7 0 0 -2 2 0 0 2 3 0 0 5 2 0 0 7 4 0 0 4 3 0 0 3 -7 0 0 -3 -5 0 0 3 -4 0 0 4 -2 0 0 -2 -3 0 0 -2 -2 0 0 -3 -2 0 0 -2 -2 0 0 -9 2 0 0 -5 -5 0 0 -9zm-216 7l3 0 0 2 -3 0 0 -2zm-52 -4l2 0 0 2 -2 0 0 -2zm766 -3l2 0 0 3 -2 0 0 -3zm-150 0l2 0 0 3 -2 0 0 -3zm-200 0l2 0 0 3 -2 0 0 -3zm-100 0l4 0 0 3 -4 0 0 -3zm282 -6l4 0 0 6 -2 0 0 3 7 0 0 2 -7 0 0 2 -2 0 0 2 -3 0 0 7 -11 0 0 -2 -7 0 0 -9 12 0 0 -5 -5 0 0 -2 7 0 0 -2 2 0 0 2 2 0 0 -2 3 0 0 -2zm-94 4l3 0 0 2 -3 0 0 -2zm-88 2l-2 0 0 -2 2 0 0 2zm-270 -2l9 0 0 2 31 0 0 -2 7 0 0 2 5 0 0 3 2 0 0 2 2 0 0 4 -2 0 0 -2 -2 0 0 2 -2 0 0 -2 -3 0 0 -2 -7 0 0 2 -2 0 0 5 -2 0 0 2 -7 0 0 2 -4 0 0 -2 -5 0 0 -5 -5 0 0 -2 -4 0 0 2 -2 0 0 -4 -3 0 0 -2 -2 0 0 -3 -4 0 0 -2zm472 -2l5 0 0 2 -5 0 0 -2zm-527 -2l2 0 0 2 -2 0 0 -2zm713 4l-2 0 0 -2 -7 0 0 -5 3 0 0 -2 2 0 0 5 2 0 0 -3 5 0 0 3 -3 0 0 4zm-150 -7l3 0 0 3 -3 0 0 -3zm-52 3l0 -3 2 0 0 3 -2 0zm-4 0l-3 0 0 -3 3 0 0 3zm29 -5l2 0 0 2 -2 0 0 -2zm-234 0l2 0 0 2 -2 0 0 -2zm-232 0l10 0 0 -2 2 0 0 2 9 0 0 2 4 0 0 3 -20 0 0 -3 -5 0 0 -2zm116 -5l3 0 0 -2 2 0 0 5 2 0 0 2 -7 0 0 -5zm389 -2l2 0 0 2 2 0 0 3 -4 0 0 -5zm-402 7l2 0 0 2 -2 0 0 3 -3 0 0 2 -2 0 0 2 -2 0 0 -4 2 0 0 -3 -2 0 0 -7 4 0 0 -2 7 0 0 5 -4 0 0 2zm177 -7l2 0 0 2 -2 0 0 -2zm-57 0l5 0 0 2 2 0 0 3 -5 0 0 -3 -2 0 0 -2zm-268 5l-5 0 0 2 -2 0 0 2 -29 0 0 3 -7 0 0 2 -9 0 0 -2 2 0 0 -7 2 0 0 2 5 0 0 -5 4 0 0 3 3 0 0 2 4 0 0 -2 5 0 0 2 4 0 0 -5 7 0 0 -4 9 0 0 -2 2 0 0 4 7 0 0 -2 3 0 0 2 2 0 0 2 -7 0 0 3zm-125 -5l2 0 0 2 -2 0 0 -2zm-34 5l-14 0 0 -3 3 0 0 -2 2 0 0 -2 2 0 0 -2 5 0 0 2 2 0 0 2 9 0 0 5 -7 0 0 -3 -2 0 0 3zm709 -5l-3 0 0 -2 3 0 0 2zm-257 -2l2 0 0 -2 3 0 0 4 -5 0 0 -2zm-102 0l2 0 0 2 -2 0 0 -2zm-12 0l3 0 0 2 -3 0 0 -2zm-215 0l2 0 0 2 -2 0 0 -2zm538 -5l2 0 0 3 3 0 0 2 -5 0 0 -5zm-220 0l2 0 0 3 -2 0 0 -3zm0 0l-3 0 0 -2 3 0 0 2zm-296 -6l3 0 0 4 -3 0 0 -4zm14 -10l2 0 0 10 -2 0 0 -10zm-59 12l-5 0 0 -5 3 0 0 -2 2 0 0 2 2 0 0 3 -2 0 0 2zm-118 -5l0 3 -2 0 0 -3 2 0zm0 0l0 -4 2 0 0 2 2 0 0 2 -4 0zm563 -9l2 0 0 7 -2 0 0 -7zm-52 0l2 0 0 7 -2 0 0 -7zm311 2l2 0 0 -2 5 0 0 2 2 0 0 3 -2 0 0 2 -2 0 0 -2 -5 0 0 -3zm-61 0l4 0 0 3 3 0 0 4 -3 0 0 -2 -2 0 0 -2 -2 0 0 -3zm13 -2l3 0 0 2 -3 0 0 -2zm-47 0l2 0 0 -2 2 0 0 4 3 0 0 3 4 0 0 2 -2 0 0 2 -2 0 0 3 -3 0 0 -7 -2 0 0 -3 -2 0 0 -2zm-114 -2l2 0 0 -2 3 0 0 9 -3 0 0 -5 -2 0 0 -2zm-66 4l3 0 0 5 4 0 0 7 2 0 0 4 7 0 0 3 -16 0 0 2 -2 0 0 7 -7 0 0 -3 -2 0 0 3 -5 0 0 -18 -4 0 0 -3 2 0 0 -4 2 0 0 -5 5 0 0 -2 2 0 0 2 5 0 0 -2 7 0 0 2 -3 0 0 2zm-336 -4l5 0 0 4 -3 0 0 -2 -2 0 0 -2zm461 -5l5 0 0 3 2 0 0 2 -7 0 0 -5zm-659 3l5 0 0 4 -2 0 0 -2 -3 0 0 -2zm827 -7l3 0 0 4 2 0 0 3 -5 0 0 -7zm-145 4l2 0 0 -2 3 0 0 2 2 0 0 3 2 0 0 2 9 0 0 2 5 0 0 -2 2 0 0 2 2 0 0 2 -7 0 0 3 -2 0 0 2 2 0 0 2 -2 0 0 3 -2 0 0 2 2 0 0 2 5 0 0 7 -9 0 0 -5 -3 0 0 -2 -2 0 0 -2 -2 0 0 -2 -2 0 0 -5 -3 0 0 -5 3 0 0 3 2 0 0 2 2 0 0 -5 -2 0 0 -2 -2 0 0 -2 -3 0 0 -2 -2 0 0 -3zm95 5l-4 0 0 -2 -5 0 0 2 -2 0 0 -2 -2 0 0 -3 7 0 0 -2 4 0 0 -2 7 0 0 4 -5 0 0 5zm-349 -7l2 0 0 2 -2 0 0 -2zm-325 0l7 0 0 2 2 0 0 3 2 0 0 2 -4 0 0 -2 -5 0 0 -3 -2 0 0 -2zm802 -2l0 2 -3 0 0 -2 3 0zm-55 0l0 2 -2 0 0 -2 2 0zm-672 0l2 0 0 2 -2 0 0 -2zm727 0l0 -2 2 0 0 2 -2 0zm-55 0l0 -2 2 0 0 2 -2 0zm-216 -2l5 0 0 2 2 0 0 4 -2 0 0 -2 -2 0 0 -2 -3 0 0 -2zm-365 0l4 0 0 2 -4 0 0 -2zm577 -5l2 0 0 5 -2 0 0 -5zm-16 2l2 0 0 3 -2 0 0 -3zm-121 0l2 0 0 -2 7 0 0 -5 3 0 0 3 4 0 0 7 -11 0 0 2 -3 0 0 -2 -2 0 0 -3zm-540 -2l4 0 0 2 2 0 0 3 -4 0 0 -3 -2 0 0 -2zm-137 0l0 2 -2 0 0 -2 2 0zm875 -2l2 0 0 2 -2 0 0 -2zm-166 -5l2 0 0 2 3 0 0 5 4 0 0 5 2 0 0 2 3 0 0 4 2 0 0 3 -5 0 0 -3 -2 0 0 -2 -2 0 0 -2 -2 0 0 -2 -3 0 0 -5 -2 0 0 -7zm-547 2l2 0 0 5 -2 0 0 -5zm-162 5l0 -2 3 0 0 2 -3 0zm848 -7l2 0 0 2 -2 0 0 -2zm-223 -2l2 0 0 4 -2 0 0 -4zm-475 2l2 0 0 2 -2 0 0 -2zm593 -4l2 0 0 2 3 0 0 4 -3 0 0 -2 -2 0 0 -4zm-186 0l2 0 0 4 -2 0 0 -4zm-559 9l-5 0 0 2 -9 0 0 2 -4 0 0 3 -2 0 0 2 -7 0 0 -2 -3 0 0 -3 5 0 0 -2 -2 0 0 -2 2 0 0 -3 18 0 0 -2 2 0 0 -2 3 0 0 -2 4 0 0 4 -2 0 0 5zm754 -9l2 0 0 2 -2 0 0 -2zm0 0l-2 0 0 -3 2 0 0 3zm-9 0l-2 0 0 -3 2 0 0 3zm-370 -5l7 0 0 2 2 0 0 5 -2 0 0 -2 -3 0 0 -3 -4 0 0 -2zm-391 5l-2 0 0 2 -7 0 0 -2 -5 0 0 -3 7 0 0 3 3 0 0 -3 2 0 0 -2 4 0 0 2 -2 0 0 3zm527 -9l2 0 0 2 -2 0 0 -2zm-184 0l2 0 0 2 -2 0 0 -2zm275 -3l9 0 0 3 -2 0 0 4 -2 0 0 -2 -3 0 0 -2 -2 0 0 -3zm120 -2l5 0 0 2 2 0 0 -2 2 0 0 -2 5 0 0 4 2 0 0 3 5 0 0 2 -2 0 0 2 -5 0 0 2 -2 0 0 -6 -5 0 0 2 -4 0 0 -5 -3 0 0 -2zm-402 0l3 0 0 2 -3 0 0 -2zm432 2l-2 0 0 3 -3 0 0 -5 3 0 0 -2 4 0 0 2 -2 0 0 2zm-36 3l-3 0 0 4 9 0 0 2 3 0 0 3 6 0 0 2 -2 0 0 2 -4 0 0 -2 -5 0 0 -2 -7 0 0 -3 -2 0 0 -2 -2 0 0 -2 2 0 0 -2 -2 0 0 -3 -5 0 0 3 -2 0 0 4 -2 0 0 -2 -5 0 0 -9 7 0 0 2 2 0 0 -2 5 0 0 -2 9 0 0 4 -2 0 0 5zm-484 -9l2 0 0 2 2 0 0 4 -2 0 0 -2 -2 0 0 -4zm-125 2l2 0 0 2 -2 0 0 -2zm670 -2l2 0 0 -3 2 0 0 -2 3 0 0 2 4 0 0 -2 9 0 0 -5 3 0 0 3 2 0 0 4 4 0 0 -2 3 0 0 11 -3 0 0 9 -2 0 0 -4 -2 0 0 2 -2 0 0 2 -3 0 0 3 -4 0 0 2 -2 0 0 2 -3 0 0 -2 -2 0 0 -2 -5 0 0 -7 3 0 0 -5 -3 0 0 -2 -2 0 0 -2 -2 0 0 -2zm-270 -3l9 0 0 3 2 0 0 2 -2 0 0 4 -3 0 0 -2 -2 0 0 -2 -4 0 0 -5zm270 3l-2 0 0 -3 2 0 0 3zm-800 -3l0 3 -2 0 0 -3 2 0zm798 0l-3 0 0 -2 3 0 0 2zm-23 -2l2 0 0 -2 2 0 0 4 3 0 0 5 -3 0 0 -2 -2 0 0 -3 -2 0 0 -2zm-566 0l5 0 0 2 -5 0 0 -2zm-209 2l0 -2 3 0 0 2 -3 0zm275 21l-4 0 0 -3 -3 0 0 -2 3 0 0 -4 -3 0 0 -3 5 0 0 -2 -5 0 0 -2 -2 0 0 -2 5 0 0 -3 -3 0 0 -2 3 0 0 -9 2 0 0 2 2 0 0 2 5 0 0 5 -3 0 0 2 3 0 0 3 4 0 0 2 3 0 0 2 -3 0 0 2 -2 0 0 3 2 0 0 2 5 0 0 2 2 0 0 7 -14 0 0 2 -2 0 0 -4zm514 -28l2 0 0 3 -2 0 0 -3zm-169 0l3 0 0 -2 2 0 0 -4 2 0 0 6 5 0 0 3 -12 0 0 -3zm-304 -6l0 2 -2 0 0 -2 2 0zm498 -5l2 0 0 5 -2 0 0 -5zm-457 0l0 5 -2 0 0 -5 2 0zm-39 0l3 0 0 5 -5 0 0 -3 2 0 0 -2zm296 -2l2 0 0 4 -2 0 0 -4zm-257 2l0 -2 2 0 0 2 -2 0zm-39 0l-2 0 0 -2 2 0 0 2zm-261 2l-2 0 0 3 -2 0 0 4 -3 0 0 -9 3 0 0 -2 2 0 0 -5 4 0 0 5 3 0 0 2 -5 0 0 2zm745 -6l7 0 0 2 -7 0 0 -2zm-584 4l-4 0 0 -4 7 0 0 2 -3 0 0 2zm-68 -7l5 0 0 5 2 0 0 2 -2 0 0 2 -3 0 0 -4 -2 0 0 -5zm466 0l2 0 0 -2 2 0 0 2 3 0 0 3 -7 0 0 -3zm-302 0l2 0 0 3 -2 0 0 -3zm302 0l-2 0 0 -4 2 0 0 4zm-48 -9l5 0 0 2 2 0 0 3 2 0 0 2 -9 0 0 -7zm-554 2l2 0 0 3 -2 0 0 -3zm109 -2l2 0 0 2 -2 0 0 -2zm116 -4l4 0 0 2 -4 0 0 -2zm-166 0l2 0 0 2 -2 0 0 -2zm-50 6l-2 0 0 -2 -3 0 0 -4 3 0 0 -3 2 0 0 3 2 0 0 2 -2 0 0 4zm166 -15l2 0 0 2 5 0 0 2 4 0 0 7 -2 0 0 2 -2 0 0 -2 -3 0 0 -2 -4 0 0 -9zm-148 6l0 3 -2 0 0 -3 2 0zm-43 0l2 0 0 3 -2 0 0 -3zm588 -2l3 0 0 2 -3 0 0 -2zm-322 0l2 0 0 2 -2 0 0 -2zm-118 5l-9 0 0 -3 2 0 0 -6 2 0 0 2 2 0 0 -5 3 0 0 5 2 0 0 4 -2 0 0 3zm-105 -3l0 -4 9 0 0 4 -2 0 0 3 -2 0 0 -3 -5 0zm473 -6l2 0 0 2 2 0 0 2 2 0 0 2 -4 0 0 -2 -2 0 0 -4zm-402 2l6 0 0 2 -6 0 0 -2zm-89 0l2 0 0 2 -2 0 0 -2zm482 -5l2 0 0 3 2 0 0 2 2 0 0 9 -2 0 0 -7 -2 0 0 -2 -2 0 0 -5zm-16 0l2 0 0 3 2 0 0 2 -4 0 0 -5zm-384 3l4 0 0 2 -4 0 0 -2zm695 -3l2 0 0 3 -2 0 0 -3zm-686 0l2 0 0 3 -2 0 0 -3zm-118 0l2 0 0 3 -2 0 0 -3zm372 -2l3 0 0 2 -3 0 0 -2zm-168 -2l5 0 0 4 -5 0 0 -4zm-48 2l-2 0 0 -2 2 0 0 2zm-9 -2l3 0 0 2 -3 0 0 -2zm-131 9l-9 0 0 -2 2 0 0 -3 2 0 0 -4 7 0 0 2 -2 0 0 7zm631 -12l5 0 0 3 -5 0 0 -3zm-50 -2l2 0 0 2 3 0 0 -2 2 0 0 5 -2 0 0 4 -3 0 0 -4 -2 0 0 -5zm-434 5l0 -3 3 0 0 3 -3 0zm-172 -3l4 0 0 5 -2 0 0 -2 -2 0 0 -3zm752 -2l2 0 0 2 -2 0 0 -2zm-425 0l4 0 0 2 -4 0 0 -2zm329 -2l0 2 -2 0 0 -2 2 0zm-515 -2l2 0 0 4 -2 0 0 -4zm-135 2l3 0 0 2 -3 0 0 -2zm650 0l0 -2 2 0 0 2 -2 0zm-38 -2l2 0 0 2 -2 0 0 -2zm-539 0l5 0 0 4 -3 0 0 -2 -2 0 0 -2zm-61 -3l4 0 0 5 -4 0 0 -5zm613 0l2 0 0 3 -2 0 0 -3zm-577 0l9 0 0 9 -2 0 0 -4 -2 0 0 -2 -5 0 0 -3zm582 -2l2 0 0 2 -2 0 0 -2zm-171 0l3 0 0 2 -3 0 0 -2zm-186 0l0 2 -2 0 0 -2 2 0zm-48 -4l3 0 0 6 -3 0 0 -6zm396 0l2 0 0 2 2 0 0 2 -4 0 0 -4zm-348 4l0 -2 2 0 0 2 -2 0zm-70 -2l4 0 0 2 -4 0 0 -2zm554 2l-2 0 0 -4 4 0 0 2 -2 0 0 2zm-429 -7l4 0 0 3 2 0 0 2 3 0 0 4 -3 0 0 -2 -2 0 0 -2 -4 0 0 -5zm150 -7l2 0 0 5 -2 0 0 -5zm-389 3l2 0 0 2 -2 0 0 -2zm-4 0l2 0 0 2 -2 0 0 -2zm145 -3l2 0 0 3 -2 0 0 -3zm361 -2l2 0 0 2 -2 0 0 -2zm-129 -2l2 0 0 4 -2 0 0 -4zm-171 2l5 0 0 2 4 0 0 3 -6 0 0 -3 -3 0 0 -2zm311 -2l3 0 0 2 -3 0 0 -2zm-43 -2l3 0 0 2 9 0 0 2 2 0 0 2 2 0 0 3 7 0 0 2 -2 0 0 2 -3 0 0 7 -2 0 0 2 -2 0 0 3 -7 0 0 -3 -2 0 0 -6 -2 0 0 -3 -3 0 0 -2 3 0 0 -2 2 0 0 -3 -2 0 0 -2 -3 0 0 -4zm-256 0l2 0 0 4 -2 0 0 -4zm-137 34l0 2 -2 0 0 2 -5 0 0 -2 3 0 0 -5 -5 0 0 -2 -7 0 0 -2 -9 0 0 -5 -2 0 0 -4 -4 0 0 -5 4 0 0 -2 9 0 0 -7 2 0 0 5 3 0 0 4 2 0 0 -2 2 0 0 -11 2 0 0 -3 3 0 0 5 -3 0 0 4 3 0 0 7 2 0 0 -2 2 0 0 -2 5 0 0 2 -2 0 0 7 2 0 0 -2 2 0 0 4 -2 0 0 5 -2 0 0 2 -3 0 0 2 -2 0 0 5 2 0zm625 -37l2 0 0 3 -2 0 0 -3zm-232 3l-2 0 0 -3 2 0 0 3zm-200 -3l3 0 0 3 -3 0 0 -3zm-186 -2l2 0 0 5 -2 0 0 -5zm673 0l2 0 0 2 -2 0 0 -2zm-664 0l2 0 0 2 -2 0 0 -2zm650 -2l4 0 0 2 -4 0 0 -2zm-477 0l2 0 0 2 -2 0 0 -2zm466 -7l0 7 -5 0 0 -2 2 0 0 -5 3 0zm-466 7l-5 0 0 -2 5 0 0 2zm-198 -2l2 0 0 2 -2 0 0 -2zm330 -3l2 0 0 3 -2 0 0 -3zm-189 0l7 0 0 3 -7 0 0 -3zm-20 5l-5 0 0 -9 2 0 0 -3 3 0 0 3 4 0 0 2 2 0 0 2 3 0 0 3 2 0 0 4 -7 0 0 -4 -4 0 0 2zm-98 -5l2 0 0 3 -2 0 0 -3zm236 -2l2 0 0 2 -2 0 0 -2zm-91 7l9 0 0 -2 3 0 0 4 -3 0 0 2 -2 0 0 3 -2 0 0 2 -2 0 0 2 -5 0 0 2 -2 0 0 5 -2 0 0 -2 -3 0 0 -5 -2 0 0 -2 2 0 0 -5 -7 0 0 -2 3 0 0 -2 2 0 0 -5 5 0 0 -2 2 0 0 -2 4 0 0 2 3 0 0 2 -3 0 0 5zm-145 -5l-2 0 0 -2 2 0 0 2zm641 -2l0 -2 2 0 0 2 -2 0zm-82 -2l0 2 -3 0 0 -2 3 0zm-148 9l-2 0 0 -2 -14 0 0 -3 -4 0 0 -7 2 0 0 -2 4 0 0 -2 3 0 0 2 2 0 0 -2 2 0 0 4 7 0 0 3 2 0 0 2 -2 0 0 7zm-175 -7l-2 0 0 -2 2 0 0 2zm-232 -5l5 0 0 -2 2 0 0 2 3 0 0 -2 6 0 0 2 5 0 0 -2 2 0 0 5 2 0 0 2 -2 0 0 2 -4 0 0 3 -3 0 0 4 3 0 0 2 -9 0 0 -2 -3 0 0 2 -2 0 0 -2 -2 0 0 -2 -3 0 0 -5 3 0 0 -2 -3 0 0 -5zm555 3l0 -3 2 0 0 -4 2 0 0 7 -4 0zm-182 -5l2 0 0 2 3 0 0 5 -3 0 0 -2 -2 0 0 -5zm-86 0l2 0 0 2 2 0 0 3 -4 0 0 -5zm334 0l2 0 0 2 -2 0 0 -2zm-78 -2l3 0 0 2 2 0 0 5 -2 0 0 -3 -3 0 0 -4zm-106 0l2 0 0 2 -2 0 0 -2zm140 -2l0 2 -4 0 0 -2 4 0zm-249 0l2 0 0 2 -2 0 0 -2zm-337 0l3 0 0 2 -3 0 0 -2zm586 0l0 -5 5 0 0 5 -5 0zm48 -9l2 0 0 4 -2 0 0 -4zm-86 -3l2 0 0 -2 5 0 0 2 2 0 0 3 2 0 0 2 2 0 0 4 -6 0 0 -2 -7 0 0 -7zm-71 3l0 2 -2 0 0 2 -2 0 0 -4 4 0zm-143 -3l7 0 0 5 -2 0 0 2 -2 0 0 -2 -3 0 0 -5zm237 -2l2 0 0 2 2 0 0 3 5 0 0 2 2 0 0 2 -5 0 0 -2 -4 0 0 -2 -2 0 0 -5zm-94 5l0 -3 3 0 0 3 -3 0zm-59 -3l3 0 0 3 -3 0 0 -3zm182 -2l7 0 0 7 -2 0 0 -2 -3 0 0 -3 -2 0 0 -2zm-29 0l-5 0 0 -9 5 0 0 9zm-187 -7l5 0 0 5 2 0 0 2 2 0 0 2 -2 0 0 3 -2 0 0 2 -2 0 0 -7 -3 0 0 -7zm71 2l4 0 0 3 -4 0 0 -3zm159 -6l2 0 0 4 5 0 0 2 -3 0 0 3 -2 0 0 -3 -2 0 0 -6zm36 0l5 0 0 2 -5 0 0 -2zm-593 -3l5 0 0 3 2 0 0 2 -7 0 0 -5zm577 -4l2 0 0 4 3 0 0 3 -5 0 0 -7zm-275 16l0 -5 -2 0 0 -2 -2 0 0 -2 -3 0 0 -5 3 0 0 2 2 0 0 3 2 0 0 2 9 0 0 2 9 0 0 2 -9 0 0 5 3 0 0 2 -3 0 0 3 -2 0 0 2 2 0 0 2 5 0 0 5 -5 0 0 2 -2 0 0 -2 -2 0 0 -3 -2 0 0 -4 -3 0 0 -2 -2 0 0 -3 -2 0 0 -4 -3 0 0 -3 5 0 0 3 2 0zm-127 -14l2 0 0 5 -2 0 0 -5zm366 5l-2 0 0 2 -3 0 0 9 -9 0 0 -2 -2 0 0 -5 -5 0 0 -2 -2 0 0 -2 2 0 0 -3 3 0 0 3 2 0 0 2 2 0 0 -5 2 0 0 -2 7 0 0 2 3 0 0 -2 4 0 0 -2 2 0 0 4 -4 0 0 3zm-541 -3l-2 0 0 -2 2 0 0 2zm495 -4l7 0 0 2 -7 0 0 -2zm-59 0l0 2 -2 0 0 -2 2 0zm-345 -2l2 0 0 2 3 0 0 -5 2 0 0 7 -7 0 0 -4zm461 0l2 0 0 2 -2 0 0 -2zm-116 2l0 -2 5 0 0 2 -5 0zm157 -5l2 0 0 3 -2 0 0 -3zm-184 -2l9 0 0 7 2 0 0 2 -2 0 0 2 5 0 0 3 -5 0 0 2 -7 0 0 -7 -9 0 0 -2 -2 0 0 -2 5 0 0 2 6 0 0 -2 -2 0 0 -5zm-200 2l2 0 0 3 -2 0 0 -3zm-25 0l2 0 0 3 -2 0 0 -3zm239 -2l0 2 -3 0 0 -2 3 0zm-209 -2l4 0 0 4 -4 0 0 -4zm211 0l0 2 -2 0 0 -2 2 0zm-143 -3l2 0 0 5 -2 0 0 -5zm209 0l2 0 0 3 -2 0 0 -3zm-66 3l0 -5 2 0 0 5 -2 0zm-70 -5l2 0 0 2 2 0 0 5 2 0 0 -2 3 0 0 4 2 0 0 -2 2 0 0 5 2 0 0 2 3 0 0 4 -3 0 0 -2 -4 0 0 2 -5 0 0 -2 3 0 0 -4 -12 0 0 -5 5 0 0 -2 -2 0 0 -5zm-298 0l2 0 0 5 -2 0 0 -5zm338 0l7 0 0 2 -7 0 0 -2zm-220 0l2 0 0 2 -2 0 0 -2zm-98 -2l3 0 0 4 -3 0 0 -4zm493 -2l3 0 0 2 -3 0 0 -2zm-220 -3l5 0 0 5 -3 0 0 -2 -2 0 0 -3zm229 -4l3 0 0 4 -3 0 0 -4zm-9 7l-4 0 0 -3 -2 0 0 -2 4 0 0 2 2 0 0 3zm-175 -5l3 0 0 2 -3 0 0 -2zm-395 -4l2 0 0 -3 3 0 0 -2 2 0 0 5 2 0 0 2 -2 0 0 2 7 0 0 7 -2 0 0 2 -5 0 0 2 -2 0 0 -9 -3 0 0 -4 -2 0 0 -2zm-16 0l7 0 0 2 -7 0 0 -2zm-72 -3l2 0 0 5 -2 0 0 -5zm506 0l0 3 -2 0 0 -3 2 0zm-297 -4l2 0 0 2 2 0 0 2 -4 0 0 -4zm-32 -2l2 0 0 4 -2 0 0 -4zm329 6l0 -4 -2 0 0 -5 2 0 0 3 2 0 0 6 -2 0zm-132 -6l5 0 0 4 -2 0 0 -2 -3 0 0 -2zm-315 15l0 -6 -5 0 0 -3 -2 0 0 -2 -5 0 0 -2 -2 0 0 -5 7 0 0 5 2 0 0 2 11 0 0 -2 3 0 0 4 -3 0 0 3 5 0 0 2 -2 0 0 9 -3 0 0 7 10 0 0 7 -3 0 0 2 -7 0 0 -2 -2 0 0 -3 -2 0 0 -4 -5 0 0 -5 -2 0 0 -4 -2 0 0 -3 -2 0 0 -4 4 0 0 2 2 0 0 2 3 0zm597 -18l0 3 -2 0 0 -3 2 0zm-288 -2l2 0 0 2 2 0 0 5 -2 0 0 -2 -2 0 0 -5zm-14 2l2 0 0 3 -2 0 0 -3zm288 -4l5 0 0 2 -5 0 0 -2zm-140 0l4 0 0 2 -4 0 0 -2zm131 -9l3 0 0 4 -3 0 0 -4zm-552 2l0 2 -2 0 0 -2 2 0zm-61 0l0 2 -2 0 0 -2 2 0zm461 -2l2 0 0 2 -2 0 0 -2zm-400 2l0 -2 5 0 0 2 -5 0zm-61 0l0 -2 2 0 0 2 -2 0zm-7 -5l2 0 0 3 -2 0 0 -3zm-41 -2l0 2 -2 0 0 -2 2 0zm0 0l0 -2 3 0 0 2 -3 0zm57 -7l2 0 0 3 -2 0 0 -3zm-16 9l-2 0 0 5 -2 0 0 2 -3 0 0 2 -2 0 0 3 5 0 0 4 -9 0 0 -2 2 0 0 -5 -2 0 0 -6 -3 0 0 -3 -2 0 0 -4 5 0 0 -2 -3 0 0 -3 -2 0 0 -4 2 0 0 2 3 0 0 2 6 0 0 3 3 0 0 2 4 0 0 4zm302 -18l3 0 0 2 -3 0 0 -2zm0 0l-4 0 0 -2 4 0 0 2zm-311 -7l2 0 0 -2 3 0 0 -2 6 0 0 4 7 0 0 9 -4 0 0 -2 -12 0 0 -4 -2 0 0 -3zm-52 -4l2 0 0 7 -2 0 0 -7zm359 7l-7 0 0 -9 2 0 0 -3 5 0 0 3 2 0 0 2 2 0 0 4 -4 0 0 3zm127 -7l2 0 0 2 -2 0 0 -2zm-27 -2l2 0 0 4 -2 0 0 -4zm-371 0l0 2 -2 0 0 -2 2 0zm-11 0l2 0 0 2 -2 0 0 -2zm223 4l-12 0 0 2 -4 0 0 3 -2 0 0 2 -7 0 0 -2 -3 0 0 -3 5 0 0 -6 16 0 0 -3 4 0 0 -2 3 0 0 -2 2 0 0 2 2 0 0 5 -2 0 0 2 5 0 0 2 -3 0 0 2 -4 0 0 -2zm-212 -4l0 -3 3 0 0 3 -3 0zm512 -10l2 0 0 5 -2 0 0 -5zm-184 3l4 0 0 4 -2 0 0 -2 -2 0 0 -2zm-237 4l-2 0 0 -4 2 0 0 -3 3 0 0 -4 2 0 0 2 4 0 0 9 -2 0 0 -2 -7 0 0 2zm-154 -4l2 0 0 -3 2 0 0 3 3 0 0 2 -3 0 0 2 -2 0 0 -2 -2 0 0 -2zm261 -3l0 5 -9 0 0 -2 -2 0 0 -3 2 0 0 -2 2 0 0 5 5 0 0 -3 2 0zm298 -4l2 0 0 4 -2 0 0 -4zm-298 4l0 -2 2 0 0 2 -2 0zm-182 -2l0 2 -4 0 0 -2 4 0zm-31 5l-5 0 0 -9 7 0 0 2 2 0 0 2 2 0 0 5 -4 0 0 -3 -2 0 0 3zm456 -7l2 0 0 2 -2 0 0 -2zm-406 0l2 0 0 2 -2 0 0 -2zm-16 0l0 2 -3 0 0 -2 3 0zm563 0l-2 0 0 -2 2 0 0 2zm-563 0l0 -2 2 0 0 2 -2 0zm72 -5l0 3 -2 0 0 -3 2 0zm-88 0l9 0 0 5 -5 0 0 -2 -4 0 0 -3zm88 0l0 -2 3 0 0 2 -3 0zm-88 0l-5 0 0 -2 -4 0 0 -4 4 0 0 2 2 0 0 2 3 0 0 2zm515 -9l5 0 0 3 -5 0 0 -3zm-572 0l0 3 -2 0 0 -3 2 0zm422 3l-6 0 0 -7 2 0 0 -5 2 0 0 2 2 0 0 5 7 0 0 2 5 0 0 3 4 0 0 6 -2 0 0 -2 -2 0 0 -2 -2 0 0 2 -3 0 0 2 -2 0 0 -9 -5 0 0 3zm-315 -5l2 0 0 2 -2 0 0 -2zm-25 0l4 0 0 -2 3 0 0 4 2 0 0 3 -7 0 0 -3 -2 0 0 -2zm-82 2l0 -2 2 0 0 2 -2 0zm107 -2l-3 0 0 -2 3 0 0 2zm452 -5l2 0 0 3 -2 0 0 -3zm-311 0l0 3 -3 0 0 -3 3 0zm-153 0l5 0 0 3 -5 0 0 -3zm-120 0l2 0 0 3 -2 0 0 -3zm277 -2l0 2 -4 0 0 -2 4 0zm-86 0l2 0 0 2 -2 0 0 -2zm-91 -2l0 4 -5 0 0 3 3 0 0 4 2 0 0 3 -5 0 0 2 -6 0 0 -5 -5 0 0 3 -2 0 0 -3 -3 0 0 -7 3 0 0 3 7 0 0 -7 2 0 0 2 7 0 0 -2 2 0zm388 -2l3 0 0 2 6 0 0 2 3 0 0 2 2 0 0 3 5 0 0 2 2 0 0 2 -2 0 0 3 -3 0 0 4 -2 0 0 2 -2 0 0 3 -7 0 0 -3 -2 0 0 -9 -3 0 0 -4 5 0 0 -5 -5 0 0 -4zm-211 4l0 -2 2 0 0 2 -2 0zm-177 -2l0 -2 2 0 0 2 -2 0zm388 -2l-2 0 0 -3 2 0 0 3zm-206 -7l2 0 0 2 -2 0 0 -2zm-248 -2l2 0 0 2 -2 0 0 -2zm572 -5l0 5 -2 0 0 6 2 0 0 3 -4 0 0 2 -5 0 0 -2 -2 0 0 -3 -4 0 0 -2 -3 0 0 -2 5 0 0 2 2 0 0 -7 9 0 0 -2 2 0zm-109 0l3 0 0 -2 2 0 0 -3 9 0 0 5 2 0 0 -2 5 0 0 4 2 0 0 3 -2 0 0 4 -7 0 0 -2 -11 0 0 -2 -3 0 0 -5zm-204 2l2 0 0 3 -2 0 0 -3zm-177 0l2 0 0 3 -2 0 0 -3zm-82 3l-2 0 0 -3 2 0 0 3zm613 -5l5 0 0 2 -2 0 0 5 -3 0 0 -7zm-356 -5l0 5 2 0 0 2 -2 0 0 5 -3 0 0 -2 -2 0 0 -5 2 0 0 -5 3 0zm-59 5l2 0 0 2 -2 0 0 -2zm-32 -2l2 0 0 4 -2 0 0 -4zm-134 0l4 0 0 4 -4 0 0 -4zm581 2l-2 0 0 5 -2 0 0 2 -5 0 0 -2 -2 0 0 -3 -9 0 0 -2 2 0 0 -7 2 0 0 -2 3 0 0 4 2 0 0 -2 5 0 0 2 2 0 0 3 2 0 0 -3 2 0 0 5zm-41 0l0 -2 3 0 0 2 -3 0zm-288 -5l7 0 0 5 -7 0 0 -5zm-55 3l3 0 0 2 -3 0 0 -2zm-252 -7l0 4 3 0 0 3 -3 0 0 4 -2 0 0 -2 -2 0 0 -2 -2 0 0 -5 2 0 0 -4 2 0 0 2 2 0zm559 2l2 0 0 2 -2 0 0 -2zm-279 2l0 -2 2 0 0 2 -2 0zm379 -4l2 0 0 -2 3 0 0 2 2 0 0 2 -2 0 0 2 -3 0 0 -2 -2 0 0 -2zm-397 -2l2 0 0 -5 2 0 0 -2 2 0 0 11 -4 0 0 -2 -2 0 0 -2zm-7 0l2 0 0 2 -2 0 0 -2zm-255 2l0 -2 3 0 0 2 -3 0zm250 -5l2 0 0 3 -2 0 0 -3zm118 -4l3 0 0 4 -3 0 0 -4zm-11 4l-2 0 0 -4 2 0 0 -2 2 0 0 4 -2 0 0 2zm-59 -4l2 0 0 2 -2 0 0 -2zm-55 0l3 0 0 -2 2 0 0 2 2 0 0 2 -2 0 0 2 -2 0 0 -2 -3 0 0 -2zm-97 0l2 0 0 2 -2 0 0 -2zm0 0l-3 0 0 -2 3 0 0 2zm-143 -2l2 0 0 2 -2 0 0 -2zm252 -3l0 3 -3 0 0 -3 3 0zm-252 3l-3 0 0 -3 3 0 0 3zm268 -5l2 0 0 2 -2 0 0 -2zm-9 -5l2 0 0 3 4 0 0 4 -6 0 0 -7zm-7 7l0 -2 2 0 0 2 -2 0zm218 -4l2 0 0 2 -2 0 0 -2zm27 -3l5 0 0 3 -5 0 0 -3zm-359 5l-2 0 0 -5 4 0 0 3 -2 0 0 2zm366 -7l2 0 0 2 -2 0 0 -2zm-184 -4l2 0 0 2 -2 0 0 -2zm245 -5l3 0 0 2 -3 0 0 -2zm75 -7l2 0 0 5 -2 0 0 -5zm-77 3l2 0 0 2 -2 0 0 -2zm-379 0l2 0 0 2 -2 0 0 -2zm436 -3l2 0 0 3 -2 0 0 -3zm-321 0l3 0 0 3 -3 0 0 -3zm-115 3l-3 0 0 -3 3 0 0 3zm-3 -3l-2 0 0 -2 2 0 0 2zm375 -4l2 0 0 -3 3 0 0 5 -5 0 0 -2zm-263 0l2 0 0 2 -2 0 0 -2zm22 -7l3 0 0 7 -3 0 0 -7zm-22 7l-3 0 0 -3 3 0 0 3zm-184 -3l0 5 -5 0 0 9 -4 0 0 2 -3 0 0 7 -2 0 0 2 -2 0 0 10 -3 0 0 2 5 0 0 4 5 0 0 3 -3 0 0 2 -2 0 0 -2 -2 0 0 -3 -5 0 0 -2 -2 0 0 -2 -2 0 0 2 -5 0 0 -2 -2 0 0 -2 -5 0 0 2 -2 0 0 -5 -2 0 0 -7 -5 0 0 -6 2 0 0 2 5 0 0 2 2 0 0 -7 5 0 0 5 2 0 0 4 5 0 0 -4 2 0 0 -2 -2 0 0 -3 4 0 0 -4 2 0 0 -7 3 0 0 -2 -3 0 0 -7 3 0 0 -2 2 0 0 2 7 0 0 -2 2 0 0 4 2 0 0 2 3 0zm361 -2l4 0 0 -2 3 0 0 4 2 0 0 3 -7 0 0 -3 -2 0 0 -2zm-89 0l5 0 0 2 -5 0 0 -2zm-272 2l0 -2 2 0 0 2 -2 0zm470 -4l2 0 0 2 -2 0 0 -2zm-21 0l5 0 0 2 -5 0 0 -2zm64 0l-2 0 0 -5 4 0 0 3 -2 0 0 2zm-320 -5l2 0 0 3 -2 0 0 -3zm-148 -4l-2 0 0 -2 2 0 0 2zm27 -7l5 0 0 7 4 0 0 2 -2 0 0 2 -2 0 0 3 -2 0 0 -9 -3 0 0 -5zm-38 2l2 0 0 3 -2 0 0 -3zm-53 -2l3 0 0 5 -3 0 0 -5zm489 -7l2 0 0 5 -2 0 0 -5zm-86 3l2 0 0 2 -2 0 0 -2zm-339 11l2 0 0 -5 -2 0 0 -2 -2 0 0 -2 -2 0 0 -5 2 0 0 3 2 0 0 2 2 0 0 2 5 0 0 -2 2 0 0 2 5 0 0 2 7 0 0 -2 2 0 0 5 -7 0 0 6 -2 0 0 3 -3 0 0 2 3 0 0 2 2 0 0 -2 2 0 0 9 -2 0 0 -2 -7 0 0 -3 -2 0 0 -4 -2 0 0 -2 -3 0 0 -3 -2 0 0 -4zm43 -14l0 3 -2 0 0 -3 2 0zm0 0l0 -2 3 0 0 2 -3 0zm330 -11l2 0 0 7 -2 0 0 -7zm-189 4l5 0 0 5 -3 0 0 -2 -2 0 0 -3zm200 -2l7 0 0 2 2 0 0 -2 5 0 0 2 -3 0 0 3 -6 0 0 -3 -5 0 0 -2zm-23 -2l3 0 0 2 2 0 0 2 2 0 0 10 5 0 0 2 -3 0 0 4 -2 0 0 3 -4 0 0 4 -5 0 0 -2 -5 0 0 -2 5 0 0 -3 -2 0 0 -2 -5 0 0 2 -2 0 0 3 -2 0 0 -5 2 0 0 -2 2 0 0 -2 5 0 0 -5 2 0 0 -2 5 0 0 -3 -3 0 0 -4zm48 -7l2 0 0 2 -2 0 0 -2zm-23 -4l3 0 0 -3 4 0 0 -2 2 0 0 7 -4 0 0 2 -5 0 0 -4zm0 0l-2 0 0 -3 2 0 0 3zm-454 0l-5 0 0 -7 3 0 0 -3 2 0 0 3 4 0 0 2 3 0 0 2 2 0 0 3 -7 0 0 -3 -2 0 0 3zm250 -12l2 0 0 7 -2 0 0 -7zm-5 -2l3 0 0 9 -3 0 0 -9zm9 4l3 0 0 3 -3 0 0 -3zm-220 0l2 0 0 -2 3 0 0 5 -5 0 0 -3zm470 -2l2 0 0 -2 3 0 0 4 -5 0 0 -2zm-484 0l9 0 0 2 -9 0 0 -2zm457 2l-2 0 0 -6 2 0 0 2 2 0 0 2 -2 0 0 2zm-279 -4l2 0 0 2 -2 0 0 -2zm-39 0l2 0 0 2 -2 0 0 -2zm39 0l-3 0 0 -2 3 0 0 2zm-32 -2l0 2 -3 0 0 -2 3 0zm29 0l-4 0 0 -3 4 0 0 3zm-186 -5l5 0 0 7 -3 0 0 -5 -2 0 0 -2zm9 -4l2 0 0 -3 3 0 0 3 2 0 0 -3 7 0 0 3 2 0 0 2 2 0 0 4 -2 0 0 -2 -7 0 0 -2 -4 0 0 2 -3 0 0 -2 -2 0 0 -2zm39 -3l2 0 0 3 -2 0 0 -3zm97 -2l3 0 0 2 -3 0 0 -2zm-4 -2l2 0 0 2 -2 0 0 -2zm-146 0l3 0 0 2 -3 0 0 -2zm162 16l0 -3 -3 0 0 -4 3 0 0 -5 2 0 0 -2 2 0 0 -9 7 0 0 -7 2 0 0 2 5 0 0 3 2 0 0 2 2 0 0 2 -4 0 0 2 -2 0 0 7 2 0 0 3 -2 0 0 2 2 0 0 7 -5 0 0 4 -2 0 0 -2 -2 0 0 -2 -2 0 0 -3 -3 0 0 3 -4 0zm-102 -25l2 0 0 2 -2 0 0 -2zm102 -7l2 0 0 2 -2 0 0 -2zm150 -7l2 0 0 2 2 0 0 -2 2 0 0 7 3 0 0 -5 2 0 0 5 2 0 0 2 -2 0 0 2 -7 0 0 -2 -2 0 0 -2 -2 0 0 -7zm-280 5l7 0 0 2 -2 0 0 2 -2 0 0 -2 -3 0 0 -2zm266 -10l2 0 0 3 3 0 0 2 -5 0 0 -5zm-32 0l3 0 0 3 -3 0 0 -3zm-202 5l-2 0 0 2 -2 0 0 -4 2 0 0 -3 4 0 0 3 -2 0 0 2zm120 -9l3 0 0 2 2 0 0 5 -2 0 0 -3 -3 0 0 -4zm78 0l2 0 0 2 -2 0 0 -2zm-200 -2l2 0 0 4 -2 0 0 -4zm43 -7l2 0 0 7 -2 0 0 -7zm-5 4l3 0 0 3 -3 0 0 -3zm121 -2l0 2 -2 0 0 -2 2 0zm-207 0l5 0 0 2 -5 0 0 -2zm577 277l0 -2 -2 0 0 -5 -2 0 0 -2 -3 0 0 -4 -2 0 0 -5 5 0 0 -2 2 0 0 -2 2 0 0 -3 2 0 0 -4 3 0 0 -9 -3 0 0 -3 -4 0 0 -4 -2 0 0 -2 -10 0 0 4 -2 0 0 2 -13 0 0 -2 -3 0 0 -7 3 0 0 -2 -3 0 0 -2 -2 0 0 -7 5 0 0 -2 2 0 0 -7 2 0 0 -5 2 0 0 -2 7 0 0 -2 2 0 0 -7 -2 0 0 -9 -2 0 0 -2 -2 0 0 -5 16 0 0 2 6 0 0 -13 3 0 0 -3 4 0 0 -9 -2 0 0 -2 -14 0 0 2 -2 0 0 3 -5 0 0 2 -4 0 0 -5 -2 0 0 -2 -3 0 0 -2 -20 0 0 2 -2 0 0 -9 2 0 0 4 7 0 0 -2 2 0 0 -2 5 0 0 -2 4 0 0 2 7 0 0 2 2 0 0 -9 -2 0 0 -2 -2 0 0 -5 -3 0 0 -9 -2 0 0 -2 -2 0 0 -2 -2 0 0 -3 -3 0 0 -2 -2 0 0 -2 -2 0 0 -2 -3 0 0 -3 -4 0 0 -2 -5 0 0 -2 -4 0 0 2 -7 0 0 2 -14 0 0 5 -2 0 0 4 -2 0 0 3 -5 0 0 2 -2 0 0 2 -2 0 0 2 -3 0 0 3 -6 0 0 -3 -3 0 0 -2 5 0 0 -7 2 0 0 -9 2 0 0 -6 3 0 0 -5 -3 0 0 -2 -4 0 0 -3 -2 0 0 -4 -3 0 0 -2 3 0 0 -3 6 0 0 -2 5 0 0 -2 5 0 0 2 4 0 0 2 11 0 0 -2 3 0 0 -2 -3 0 0 -9 3 0 0 -3 2 0 0 -2 2 0 0 -2 3 0 0 -2 -3 0 0 -5 -2 0 0 -4 -5 0 0 -5 -2 0 0 -5 -4 0 0 -2 -3 0 0 -2 -2 0 0 -5 -2 0 0 -2 -5 0 0 2 -9 0 0 -6 -2 0 0 -5 -16 0 0 2 -4 0 0 3 -3 0 0 2 -2 0 0 4 -2 0 0 3 4 0 0 2 3 0 0 2 -3 0 0 2 -20 0 0 -2 -2 0 0 -2 -3 0 0 4 -2 0 0 3 -11 0 0 2 -5 0 0 2 -2 0 0 3 -2 0 0 2 2 0 0 2 2 0 0 2 2 0 0 5 3 0 0 2 2 0 0 2 2 0 0 5 2 0 0 2 3 0 0 7 -3 0 0 5 -4 0 0 -3 -2 0 0 3 -7 0 0 -3 -2 0 0 -2 2 0 0 -11 -2 0 0 -3 -5 0 0 -2 -5 0 0 -2 -6 0 0 7 -3 0 0 2 -9 0 0 -2 -4 0 0 4 -3 0 0 7 -2 0 0 2 -4 0 0 7 2 0 0 2 2 0 0 3 2 0 0 2 -13 0 0 -2 -2 0 0 -5 -3 0 0 -7 3 0 0 -2 2 0 0 -2 2 0 0 -5 -2 0 0 -9 -2 0 0 -7 -3 0 0 -2 -2 0 0 -2 -2 0 0 -2 -5 0 0 2 -2 0 0 4 -2 0 0 3 -3 0 0 2 -4 0 0 2 -2 0 0 2 -3 0 0 3 -4 0 0 -3 -7 0 0 -2 2 0 0 -2 2 0 0 -2 -2 0 0 -7 2 0 0 -2 12 0 0 -10 -2 0 0 -6 -3 0 0 -7 -2 0 0 -7 -2 0 0 -2 9 0 0 -5 2 0 0 -4 2 0 0 -5 -2 0 0 -2 71 0 0 2 50 0 0 2 24 0 0 3 16 0 0 2 16 0 0 2 14 0 0 2 11 0 0 3 9 0 0 2 12 0 0 2 9 0 0 3 7 0 0 2 9 0 0 2 7 0 0 2 6 0 0 3 7 0 0 2 7 0 0 2 7 0 0 2 4 0 0 3 7 0 0 2 5 0 0 2 4 0 0 3 7 0 0 2 5 0 0 2 4 0 0 2 5 0 0 3 4 0 0 2 5 0 0 2 4 0 0 2 5 0 0 3 2 0 0 2 5 0 0 2 4 0 0 3 2 0 0 2 5 0 0 2 5 0 0 2 2 0 0 3 4 0 0 2 3 0 0 2 2 0 0 2 4 0 0 3 3 0 0 2 4 0 0 2 3 0 0 3 2 0 0 2 2 0 0 2 5 0 0 2 2 0 0 3 2 0 0 2 2 0 0 2 3 0 0 2 4 0 0 3 3 0 0 2 2 0 0 2 2 0 0 2 2 0 0 3 3 0 0 2 2 0 0 2 2 0 0 3 2 0 0 2 3 0 0 2 2 0 0 2 2 0 0 3 3 0 0 4 2 0 0 2 2 0 0 3 2 0 0 2 3 0 0 2 2 0 0 3 2 0 0 4 2 0 0 2 3 0 0 3 2 0 0 2 2 0 0 4 3 0 0 3 2 0 0 4 2 0 0 3 2 0 0 2 3 0 0 4 2 0 0 5 2 0 0 2 2 0 0 5 3 0 0 2 2 0 0 5 2 0 0 4 3 0 0 2 2 0 0 5 2 0 0 4 2 0 0 5 3 0 0 5 2 0 0 4 2 0 0 5 2 0 0 4 3 0 0 7 2 0 0 5 2 0 0 4 2 0 0 7 3 0 0 4 2 0 0 7 2 0 0 7 3 0 0 7 2 0 0 7 2 0 0 6 2 0 0 10 3 0 0 9 2 0 0 9 2 0 0 9 2 0 0 11 3 0 0 14 2 0 0 13 2 0 0 19 3 0 0 29 2 0 0 52 -2 0 0 32 -3 0 0 23 -2 0 0 18 -2 0 0 14 -3 0 0 13 -2 0 0 12 -2 0 0 9 -2 0 0 9 -3 0 0 11 -2 0 0 7 -2 0 0 9 -2 0 0 7 -3 0 0 7 -2 0 0 7 -2 0 0 6 -3 0 0 7 -2 0 0 5 -2 0 0 7 -2 0 0 6 -3 0 0 5 -2 0 0 4 -2 0 0 5 -2 0 0 7 -3 0 0 4 -2 0 0 5 -2 0 0 4 -2 0 0 3 -3 0 0 4 -2 0 0 5 -2 0 0 4 -3 0 0 5 -2 0 0 2 -2 0 0 5 -2 0 0 2 -3 0 0 5 -2 0 0 2 -2 0 0 4 -2 0 0 3 -3 0 0 4 -2 0 0 2 -2 0 0 3 -3 0 0 4 -2 0 0 3 -2 0 0 2 -2 0 0 4 -3 0 0 3 -2 0 0 2 -2 0 0 2 -2 0 0 2 -3 0 0 3 -2 0 0 4 -2 0 0 3 -3 0 0 2 -2 0 0 2 -2 0 0 2 -2 0 0 3 -3 0 0 2 -2 0 0 2 -2 0 0 2 -2 0 0 3 -3 0 0 2 -4 0 0 2 -3 0 0 3 -2 0 0 2 -2 0 0 2 -2 0 0 2 -3 0 0 3 -4 0 0 2 -2 0 0 2 -3 0 0 2 -4 0 0 3 -3 0 0 2 -2 0 0 2 -4 0 0 2 -3 0 0 3 -4 0 0 2 -2 0 0 2 -5 0 0 3 -5 0 0 2 -2 0 0 2 -4 0 0 2 -5 0 0 3 -4 0 0 2 -3 0 0 2 -4 0 0 2 -5 0 0 3 -4 0 0 2 -7 0 0 2 -5 0 0 3 -4 0 0 2 -7 0 0 2 -5 0 0 2 -6 0 0 3 -7 0 0 2 -7 0 0 2 -7 0 0 2 -7 0 0 3 -9 0 0 2 -9 0 0 2 -9 0 0 3 -9 0 0 2 -14 0 0 2 -13 0 0 2 -18 0 0 3 -28 0 0 2 -72 0 0 -2 -16 0 0 -3 -12 0 0 -2 -9 0 0 -2 -7 0 0 -2 -6 0 0 -3 -5 0 0 -2 -4 0 0 -2 -5 0 0 -3 -2 0 0 -2 -5 0 0 -2 -2 0 0 -2 -5 0 0 -3 -2 0 0 -2 -2 0 0 -2 -2 0 0 -2 -3 0 0 -3 -2 0 0 -2 -2 0 0 -2 -3 0 0 -3 -2 0 0 -2 -2 0 0 -2 -2 0 0 -5 -3 0 0 -2 -2 0 0 -2 -2 0 0 -2 -2 0 0 -5 -3 0 0 -2 -2 0 0 -5 -2 0 0 -4 -3 0 0 -5 -2 0 0 -4 -2 0 0 -5 -2 0 0 -7 -3 0 0 -9 -2 0 0 -9 -2 0 0 -11 -2 0 0 -18 -3 0 0 -32 -2 0 0 -16 5 0 0 -2 2 0 0 9 4 0 0 -3 3 0 0 -4 4 0 0 -7 2 0 0 -2 3 0 0 -5 -3 0 0 -7 12 0 0 -2 2 0 0 -2 2 0 0 -2 5 0 0 -3 16 0 0 -2 2 0 0 -5 7 0 0 3 9 0 0 -3 5 0 0 -4 -3 0 0 -2 -2 0 0 -5 2 0 0 2 7 0 0 3 -2 0 0 2 2 0 0 2 2 0 0 2 5 0 0 5 2 0 0 2 5 0 0 3 7 0 0 2 2 0 0 7 13 0 0 2 10 0 0 -2 2 0 0 -5 -5 0 0 -2 -4 0 0 -2 -3 0 0 -3 7 0 0 -4 -2 0 0 -3 -2 0 0 -2 -3 0 0 -2 -2 0 0 -2 2 0 0 -3 5 0 0 3 5 0 0 2 4 0 0 -2 7 0 0 2 4 0 0 4 3 0 0 3 2 0 0 2 11 0 0 -2 -2 0 0 -5 -2 0 0 -4 2 0 0 -3 2 0 0 3 3 0 0 2 6 0 0 -2 3 0 0 -5 9 0 0 2 4 0 0 3 3 0 0 2 2 0 0 2 2 0 0 2 14 0 0 7 2 0 0 3 2 0 0 -3 3 0 0 -2 2 0 0 2 2 0 0 3 2 0 0 2 3 0 0 2 4 0 0 2 7 0 0 3 7 0 0 2 4 0 0 -11 -2 0 0 -3 -11 0 0 -2 -5 0 0 -5 7 0 0 -6 2 0 0 2 5 0 0 2 2 0 0 2 2 0 0 3 5 0 0 4 2 0 0 7 5 0 0 -2 2 0 0 -2 5 0 0 -3 -3 0 0 -4 -2 0 0 -3 -2 0 0 -2 2 0 0 -2 5 0 0 -2 4 0 0 -3 7 0 0 -2 4 0 0 -2 3 0 0 -7 2 0 0 2 5 0 0 3 6 0 0 2 14 0 0 2 2 0 0 -4 -2 0 0 -5 2 0 0 -5 3 0 0 -4 2 0 0 -5 4 0 0 -4 3 0 0 -2 2 0 0 2 4 0 0 2 5 0 0 2 2 0 0 3 5 0 0 -3 2 0 0 -20 -2 0 0 -2 -2 0 0 -3 -3 0 0 -2 -2 0 0 -9 2 0 0 -7 -2 0 0 -9 2 0 0 2 3 0 0 7 2 0 0 3 2 0 0 -3 2 0 0 -2 3 0 0 -2 2 0 0 -5 2 0 0 -4 5 0 0 4 2 0 0 -2 2 0 0 -5 3 0 0 -2 4 0 0 -4 7 0 0 -5 2 0 0 -2 -2 0 0 -12 2 0 0 -4 18 0 0 2 5 0 0 -2 -2 0 0 -2 -3 0 0 -3 -2 0 0 -2 -2 0 0 -5 -3 0 0 -4 10 0 0 -2 -3 0 0 -3 -4 0 0 -9 -3 0 0 -2 -9 0 0 2 -2 0 0 3 -2 0 0 2 -5 0 0 -2 -9 0 0 2 -4 0 0 -5 -3 0 0 -4 5 0 0 -3 5 0 0 -2 4 0 0 -4 -2 0 0 -9 -2 0 0 -3 -3 0 0 -2 5 0 0 -2 7 0 0 7 2 0 0 4 4 0 0 2 12 0 0 -11 2 0 0 2 2 0 0 3 3 0 0 2 11 0 0 -7 -2 0 0 -2 -3 0 0 -5 -2 0 0 -2 5 0 0 -2 2 0 0 -5 -2 0 0 -4 2 0 0 -12 -2 0 0 -2 -3 0 0 -2 -2 0 0 -3 2 0 0 -6 -2 0 0 -5 -2 0 0 -4 -2 0 0 -7 -3 0 0 -5 -4 0 0 9 -3 0 0 5 -2 0 0 2 -9 0 0 -2 -4 0 0 2 -3 0 0 14 -11 0 0 6 -5 0 0 -2 -2 0 0 -7 -2 0 0 -4 -5 0 0 -2 -2 0 0 9 -2 0 0 -3 -2 0 0 -2 -3 0 0 -13 -2 0 0 -16 -2 0 0 -3 -3 0 0 -2 -2 0 0 -9 -2 0 0 -16 -2 0 0 -2 -5 0 0 -2 -2 0 0 -3 -2 0 0 -2 -3 0 0 -2 -2 0 0 -3 -2 0 0 -11 -3 0 0 -4 3 0 0 -3 2 0 0 5 2 0 0 4 3 0 0 3 2 0 0 2 2 0 0 2 2 0 0 2 3 0 0 -4 2 0 0 -11 -2 0 0 -5 -3 0 0 -2 7 0 0 7 7 0 0 2 7 0 0 -7 2 0 0 -5 -4 0 0 -6 6 0 0 -3 9 0 0 -6 -2 0 0 -5 -2 0 0 -2 -2 0 0 -3 -5 0 0 -2 -4 0 0 -2 -5 0 0 -2 -2 0 0 -3 -3 0 0 -2 -4 0 0 -2 -2 0 0 -2 -3 0 0 -5 3 0 0 -2 2 0 0 -3 2 0 0 -2 2 0 0 -18 -2 0 0 -2 -2 0 0 2 -2 0 0 -11 -3 0 0 -5 -4 0 0 2 -2 0 0 -2 -3 0 0 -2 -2 0 0 -5 -2 0 0 -2 -3 0 0 -2 -2 0 0 -2 -7 0 0 -3 -2 0zm-279 -281l2 0 0 4 -2 0 0 -4zm-91 4l0 -2 2 0 0 2 -2 0zm-116 -2l-2 0 0 -2 2 0 0 2zm207 -2l-3 0 0 -3 3 0 0 3zm-80 -5l2 0 0 5 -2 0 0 -5zm-234 2l0 -2 2 0 0 -5 5 0 0 7 -7 0zm296 -4l4 0 0 2 2 0 0 2 -4 0 0 -2 -2 0 0 -2zm-35 0l0 2 -2 0 0 -2 2 0zm0 0l0 -3 3 0 0 3 -3 0zm-56 -3l2 0 0 3 -2 0 0 -3zm0 0l-3 0 0 -4 3 0 0 4zm-155 -4l2 0 0 2 -2 0 0 -2zm98 -9l2 0 0 4 -2 0 0 -4zm125 0l-2 0 0 2 -3 0 0 -4 3 0 0 -3 2 0 0 -2 4 0 0 5 -4 0 0 2zm20 -9l0 2 -2 0 0 -2 2 0zm0 0l0 -3 3 0 0 3 -3 0zm21 -7l2 0 0 2 -2 0 0 -2zm-314 36l0 3 -7 0 0 4 -2 0 0 2 -2 0 0 3 2 0 0 2 7 0 0 4 -2 0 0 3 -3 0 0 2 -6 0 0 2 -5 0 0 3 -2 0 0 2 -3 0 0 4 -2 0 0 3 5 0 0 6 4 0 0 -2 7 0 0 2 2 0 0 3 3 0 0 2 2 0 0 2 -7 0 0 3 -4 0 0 -3 -5 0 0 3 -2 0 0 4 -3 0 0 5 -2 0 0 2 -2 0 0 2 -2 0 0 2 -3 0 0 3 16 0 0 4 -2 0 0 5 5 0 0 2 11 0 0 2 4 0 0 3 5 0 0 2 2 0 0 2 -13 0 0 -2 -5 0 0 2 -7 0 0 2 -18 0 0 3 -2 0 0 2 -2 0 0 2 -3 0 0 3 -4 0 0 4 4 0 0 2 -2 0 0 3 9 0 0 2 -2 0 0 7 2 0 0 6 2 0 0 7 -2 0 0 3 -4 0 0 -3 -5 0 0 -2 -5 0 0 -5 -2 0 0 -6 -2 0 0 -7 -2 0 0 -9 2 0 0 -5 2 0 0 -2 2 0 0 -7 -2 0 0 2 -7 0 0 -4 -2 0 0 -5 -4 0 0 5 -5 0 0 -2 -4 0 0 20 2 0 0 9 -2 0 0 2 -3 0 0 -4 -2 0 0 -5 -2 0 0 5 -3 0 0 2 -9 0 0 7 3 0 0 2 -3 0 0 2 -6 0 0 3 -7 0 0 4 7 0 0 3 2 0 0 4 -2 0 0 5 -3 0 0 6 -2 0 0 3 -5 0 0 2 -4 0 0 5 2 0 0 4 -2 0 0 2 -2 0 0 5 -3 0 0 2 -2 0 0 5 5 0 0 2 2 0 0 2 -2 0 0 7 -3 0 0 2 9 0 0 7 3 0 0 7 -3 0 0 2 3 0 0 3 2 0 0 2 5 0 0 7 -3 0 0 2 -2 0 0 11 -5 0 0 3 -6 0 0 2 -3 0 0 7 -2 0 0 2 -4 0 0 2 4 0 0 2 5 0 0 10 -5 0 0 2 -2 0 0 2 -2 0 0 5 -3 0 0 6 -2 0 0 7 11 0 0 -2 9 0 0 14 5 0 0 -3 7 0 0 -2 2 0 0 -4 2 0 0 -5 3 0 0 -2 2 0 0 9 -5 0 0 2 3 0 0 2 -3 0 0 5 3 0 0 2 2 0 0 2 -2 0 0 3 -5 0 0 2 -2 0 0 2 -2 0 0 2 -3 0 0 -2 -4 0 0 -2 -3 0 0 -2 -2 0 0 -3 -2 0 0 -2 -2 0 0 -2 -3 0 0 7 -2 0 0 4 -7 0 0 -2 -2 0 0 -2 -2 0 0 -3 -5 0 0 7 -2 0 0 2 -2 0 0 3 -3 0 0 2 -2 0 0 2 2 0 0 3 3 0 0 2 2 0 0 -2 7 0 0 11 2 0 0 4 2 0 0 -2 5 0 0 -2 9 0 0 -2 2 0 0 4 -2 0 0 5 -2 0 0 2 2 0 0 2 -5 0 0 7 -2 0 0 2 11 0 0 -2 3 0 0 -4 4 0 0 -3 3 0 0 -2 2 0 0 -5 2 0 0 10 2 0 0 6 -2 0 0 7 5 0 0 -2 2 0 0 -2 2 0 0 2 2 0 0 2 3 0 0 7 2 0 0 -7 9 0 0 7 -2 0 0 5 -2 0 0 4 -3 0 0 2 -7 0 0 -2 -2 0 0 -4 -4 0 0 -3 -3 0 0 3 -9 0 0 -5 -4 0 0 2 -3 0 0 5 -2 0 0 -2 -4 0 0 2 -5 0 0 2 -2 0 0 7 -2 0 0 4 -3 0 0 -6 -2 0 0 -3 -2 0 0 3 -5 0 0 -5 -4 0 0 -2 -5 0 0 -14 2 0 0 -2 -2 0 0 -7 2 0 0 -4 -11 0 0 -3 -5 0 0 -2 -2 0 0 -7 -2 0 0 -4 -5 0 0 4 -2 0 0 2 -2 0 0 5 2 0 0 7 -2 0 0 2 -5 0 0 2 -2 0 0 3 2 0 0 2 3 0 0 2 9 0 0 5 -3 0 0 4 -4 0 0 3 -5 0 0 13 -2 0 0 -2 -2 0 0 -2 -3 0 0 -3 -4 0 0 -2 -2 0 0 -2 -5 0 0 -2 -4 0 0 -3 -3 0 0 -2 -2 0 0 7 -2 0 0 11 -3 0 0 -2 -2 0 0 -5 -2 0 0 -2 -2 0 0 5 -3 0 0 4 -2 0 0 9 -2 0 0 3 -2 0 0 4 -3 0 0 -2 -2 0 0 -14 -9 0 0 2 -5 0 0 -2 -2 0 0 -2 -2 0 0 -9 -2 0 0 -2 -5 0 0 9 -2 0 0 4 -2 0 0 2 -3 0 0 5 -2 0 0 5 2 0 0 2 -2 0 0 4 -2 0 0 3 -3 0 0 9 3 0 0 11 7 0 0 2 -3 0 0 3 -2 0 0 2 -2 0 0 4 -3 0 0 3 5 0 0 2 2 0 0 -2 7 0 0 -3 2 0 0 -2 3 0 0 5 2 0 0 7 11 0 0 -3 2 0 0 -2 3 0 0 -7 2 0 0 -2 5 0 0 2 4 0 0 2 -2 0 0 3 -2 0 0 13 4 0 0 3 5 0 0 2 2 0 0 4 -2 0 0 5 -3 0 0 -2 -6 0 0 -3 -3 0 0 3 -2 0 0 2 -2 0 0 -2 -5 0 0 -3 -2 0 0 -2 -9 0 0 2 -2 0 0 5 2 0 0 2 -2 0 0 3 -5 0 0 2 -2 0 0 2 4 0 0 -2 3 0 0 11 -3 0 0 2 -2 0 0 3 14 0 0 2 4 0 0 2 2 0 0 12 -2 0 0 4 2 0 0 5 -2 0 0 4 -4 0 0 2 -3 0 0 5 3 0 0 7 2 0 0 2 4 0 0 2 3 0 0 3 2 0 0 -3 7 0 0 -2 2 0 0 5 -2 0 0 2 -2 0 0 2 -3 0 0 5 -2 0 0 9 -2 0 0 2 -3 0 0 7 -2 0 0 2 -2 0 0 9 7 0 0 -2 2 0 0 -5 2 0 0 3 3 0 0 -3 2 0 0 -2 2 0 0 -4 7 0 0 2 -2 0 0 2 -3 0 0 2 -2 0 0 5 -4 0 0 5 2 0 0 6 -2 0 0 5 11 0 0 9 -2 0 0 2 2 0 0 3 2 0 0 2 5 0 0 2 2 0 0 2 2 0 0 3 5 0 0 -3 2 0 0 -2 2 0 0 -2 5 0 0 -2 2 0 0 -3 2 0 0 -2 14 0 0 -9 2 0 0 -2 -11 0 0 -3 2 0 0 -2 5 0 0 -2 18 0 0 -5 2 0 0 -2 3 0 0 -2 4 0 0 -3 5 0 0 5 -3 0 0 11 -2 0 0 12 -2 0 0 7 -2 0 0 4 4 0 0 -2 9 0 0 2 2 0 0 2 -2 0 0 3 -2 0 0 -3 -2 0 0 3 -3 0 0 2 -20 0 0 16 -2 0 0 2 -9 0 0 -2 -5 0 0 16 2 0 0 4 -2 0 0 5 -2 0 0 7 -3 0 0 4 -2 0 0 7 5 0 0 -2 11 0 0 -7 5 0 0 9 -3 0 0 2 -4 0 0 2 -2 0 0 5 -3 0 0 9 12 0 0 14 -3 0 0 2 -2 0 0 2 7 0 0 -2 2 0 0 -2 2 0 0 -3 7 0 0 3 3 0 0 7 -3 0 0 4 7 0 0 -2 2 0 0 -7 5 0 0 -2 2 0 0 -3 7 0 0 -2 5 0 0 -2 4 0 0 -2 2 0 0 -3 9 0 0 -2 3 0 0 -7 2 0 0 -13 5 0 0 2 2 0 0 11 4 0 0 -2 12 0 0 2 -5 0 0 9 2 0 0 16 5 0 0 -2 11 0 0 2 3 0 0 3 2 0 0 6 2 0 0 5 7 0 0 -2 2 0 0 -7 12 0 0 2 2 0 0 2 4 0 0 3 7 0 0 2 7 0 0 -2 16 0 0 -3 2 0 0 -2 5 0 0 -2 2 0 0 -2 -5 0 0 -3 3 0 0 -2 2 0 0 -5 -2 0 0 -2 4 0 0 -2 3 0 0 4 2 0 0 12 2 0 0 -2 2 0 0 -5 3 0 0 -2 2 0 0 -3 2 0 0 -2 2 0 0 -2 5 0 0 4 -2 0 0 5 -3 0 0 5 -2 0 0 2 5 0 0 -2 2 0 0 -3 9 0 0 3 9 0 0 -3 5 0 0 -2 4 0 0 -2 3 0 0 -5 4 0 0 2 2 0 0 5 -4 0 0 2 -2 0 0 3 -3 0 0 4 -2 0 0 2 -2 0 0 7 -3 0 0 2 -2 0 0 5 2 0 0 2 5 0 0 -2 2 0 0 -2 5 0 0 -3 2 0 0 -2 2 0 0 5 -2 0 0 2 2 0 0 2 3 0 0 3 2 0 0 2 4 0 0 -2 3 0 0 -25 9 0 0 9 7 0 0 -3 2 0 0 3 2 0 0 2 7 0 0 7 14 0 0 -5 -3 0 0 -9 3 0 0 -2 2 0 0 -2 2 0 0 38 -2 0 0 55 -2 0 0 20 -3 0 0 16 -2 0 0 11 -2 0 0 7 -2 0 0 7 -3 0 0 7 -2 0 0 4 -2 0 0 5 -3 0 0 4 -2 0 0 3 -2 0 0 4 -2 0 0 3 -3 0 0 2 -2 0 0 2 -2 0 0 2 -2 0 0 3 -5 0 0 2 -2 0 0 2 -5 0 0 2 -4 0 0 3 -5 0 0 2 -7 0 0 2 -7 0 0 3 -9 0 0 2 -11 0 0 2 -14 0 0 2 -16 0 0 3 -20 0 0 2 -9 0 0 2 -2 0 0 5 -3 0 0 22 3 0 0 5 2 0 0 5 4 0 0 2 5 0 0 -2 75 0 0 -3 168 0 0 3 34 0 0 2 32 0 0 2 34 0 0 2 43 0 0 3 121 0 0 -3 31 0 0 -2 23 0 0 -2 18 0 0 -2 16 0 0 -3 16 0 0 -2 11 0 0 -2 12 0 0 -3 11 0 0 -2 9 0 0 -2 12 0 0 -2 6 0 0 -3 10 0 0 -2 9 0 0 -2 6 0 0 -2 7 0 0 -3 7 0 0 -2 7 0 0 -2 7 0 0 -3 6 0 0 -2 7 0 0 -2 5 0 0 -2 7 0 0 -3 4 0 0 -2 5 0 0 -2 7 0 0 -2 4 0 0 -3 5 0 0 -2 4 0 0 -2 5 0 0 -3 4 0 0 -2 5 0 0 -2 4 0 0 -2 5 0 0 -3 2 0 0 -2 5 0 0 -2 4 0 0 -2 3 0 0 -3 4 0 0 -2 5 0 0 -2 2 0 0 -3 4 0 0 -2 3 0 0 -2 4 0 0 -2 5 0 0 -3 2 0 0 -2 2 0 0 -2 5 0 0 -2 2 0 0 -3 5 0 0 -2 2 0 0 -2 2 0 0 -3 5 0 0 -2 2 0 0 -2 2 0 0 -2 5 0 0 -3 2 0 0 -2 2 0 0 -2 3 0 0 -2 2 0 0 -3 4 0 0 -2 3 0 0 -2 2 0 0 -2 2 0 0 -3 3 0 0 -2 2 0 0 -2 2 0 0 -3 2 0 0 -2 5 0 0 -2 2 0 0 -2 2 0 0 -3 3 0 0 -2 2 0 0 -2 2 0 0 -2 3 0 0 -3 2 0 0 -2 2 0 0 -2 2 0 0 -5 3 0 0 -2 2 0 0 -2 2 0 0 -3 2 0 0 -2 3 0 0 -2 2 0 0 -2 2 0 0 -3 3 0 0 -4 2 0 0 -3 2 0 0 -2 2 0 0 -2 3 0 0 -5 2 0 0 -2 2 0 0 -2 2 0 0 -5 3 0 0 -2 2 0 0 -2 2 0 0 -5 3 0 0 -2 2 0 0 -5 2 0 0 -2 2 0 0 -4 3 0 0 -3 2 0 0 -4 2 0 0 -3 2 0 0 -4 3 0 0 -2 2 0 0 -5 2 0 0 -4 3 0 0 -5 2 0 0 -2 2 0 0 -5 2 0 0 -4 3 0 0 -5 2 0 0 -4 2 0 0 -5 2 0 0 -5 3 0 0 -4 2 0 0 -5 2 0 0 -6 3 0 0 -5 2 0 0 -4 2 0 0 -7 2 0 0 -7 3 0 0 -5 2 0 0 -6 2 0 0 -7 2 0 0 -7 3 0 0 -7 2 0 0 -9 2 0 0 -7 3 0 0 -9 2 0 0 -9 2 0 0 -11 2 0 0 -12 3 0 0 -13 2 0 0 -16 2 0 0 -21 2 0 0 -34 3 0 0 -79 -3 0 0 -25 -2 0 0 -18 -2 0 0 -14 -2 0 0 -11 -3 0 0 -10 -2 0 0 -11 -2 0 0 -7 -2 0 0 -9 -3 0 0 -7 -2 0 0 -6 -2 0 0 -7 -3 0 0 -7 -2 0 0 -7 -2 0 0 -4 -2 0 0 -7 -3 0 0 -5 -2 0 0 -4 -2 0 0 -5 -2 0 0 -7 -3 0 0 -4 -2 0 0 -5 -2 0 0 -4 -3 0 0 -3 -2 0 0 -4 -2 0 0 -5 -2 0 0 -4 -3 0 0 -2 -2 0 0 -5 -2 0 0 -5 -2 0 0 -2 -3 0 0 -4 -2 0 0 -3 -2 0 0 -4 -3 0 0 -2 -2 0 0 -5 -2 0 0 -2 -2 0 0 -3 -3 0 0 -4 -2 0 0 -2 -2 0 0 -3 -2 0 0 -4 -3 0 0 -2 -2 0 0 -3 -2 0 0 -2 -3 0 0 -5 -2 0 0 -2 -2 0 0 -2 -2 0 0 -2 -3 0 0 -3 -2 0 0 -2 -2 0 0 -2 -2 0 0 -2 -3 0 0 -3 -2 0 0 -2 -2 0 0 -2 -3 0 0 -2 -2 0 0 -3 -2 0 0 -2 -2 0 0 -2 -3 0 0 -3 -2 0 0 -2 -2 0 0 -2 -2 0 0 -2 -3 0 0 -3 -2 0 0 -2 -2 0 0 -2 -5 0 0 -2 -2 0 0 -3 -2 0 0 -2 -3 0 0 -2 -2 0 0 -3 -4 0 0 -2 -3 0 0 -2 -2 0 0 -2 -5 0 0 -3 -2 0 0 -2 -2 0 0 -2 -5 0 0 -2 -2 0 0 -3 -4 0 0 -2 -3 0 0 -2 -4 0 0 -3 -2 0 0 -2 -5 0 0 -2 -5 0 0 -2 -2 0 0 -3 -4 0 0 -2 -5 0 0 -2 -2 0 0 -2 -5 0 0 -3 -4 0 0 -2 -5 0 0 -2 -4 0 0 -3 -5 0 0 -2 -4 0 0 -2 -5 0 0 -2 -5 0 0 -3 -4 0 0 -2 -7 0 0 -2 -4 0 0 -2 -5 0 0 -3 -7 0 0 -2 -4 0 0 -2 -7 0 0 -3 -7 0 0 -2 -7 0 0 -2 -4 0 0 -2 -7 0 0 -3 -7 0 0 -2 -7 0 0 -2 -9 0 0 -2 -7 0 0 -3 -9 0 0 -2 -9 0 0 -2 -9 0 0 -3 -9 0 0 -2 -11 0 0 -2 -12 0 0 -2 -13 0 0 -3 -14 0 0 -2 -16 0 0 -2 -18 0 0 -2 -25 0 0 -3 -30 0 0 -2 -61 0 0 -2 -118 0 0 -5 -2 0 0 -4 -3 0 0 -3 -2 0 0 -2 -2 0 0 -4 -2 0 0 -3 -3 0 0 3 -7 0 0 2 -4 0 0 2 -2 0 0 2 -3 0 0 3 -2 0 0 2 -7 0 0 -2 -6 0 0 2 -3 0 0 -2 -7 0 0 2 -6 0 0 -14 -5 0 0 3 -2 0 0 2 -2 0 0 4 -3 0 0 5 -2 0 0 2 -5 0 0 2 -4 0 0 3 -2 0 0 2 -3 0 0 2 -4 0 0 5 -2 0 0 2 -3 0 0 -2 -2 0 0 -5 -2 0 0 -4 -5 0 0 4 -2 0 0 -2 -7 0 0 18 -4 0 0 -2 -5 0 0 -2 -7 0 0 -3 -9 0 0 3 -2 0 0 -3 -2 0 0 -4 -3 0 0 -2 3 0 0 -3 2 0 0 -2 2 0 0 -2 -2 0 0 -3 -2 0 0 -2 -3 0 0 -4 -2 0 0 -3 -2 0 0 -2 -5 0 0 2 -2 0 0 3 -2 0 0 4 -3 0 0 2 -2 0 0 10 2 0 0 2 -13 0 0 4 -3 0 0 5 -9 0 0 -2 -2 0 0 -5 -2 0 0 -2 -2 0 0 -9 2 0 0 -3 -2 0 0 -2 -3 0 0 -2 -13 0 0 -2 -3 0 0 2 -2 0 0 2 -2 0 0 5 -2 0 0 11 2 0 0 2 -2 0 0 3 -5 0 0 -3 -2 0 0 -2 -5 0 0 -2 -9 0 0 -2 -2 0 0 -3 -9 0 0 3 -2 0 0 4 -3 0 0 5 -2 0 0 2 -2 0 0 2 -3 0 0 -2 -2 0 0 -2 -2 0 0 -3 -5 0 0 3 -2 0 0 4 -2 0 0 5 -2 0 0 2 -5 0 0 -2 -2 0 0 2 -3 0 0 5 -2 0 0 2 -2 0 0 2 -2 0 0 -2 -3 0 0 -2 -2 0 0 -3 -2 0 0 -2 -2 0 0 -2 -5 0 0 -3 -11 0 0 -2 -3 0 0 -2 -18 0 0 9 2 0 0 5 3 0 0 4 -3 0 0 2 -6 0 0 3 -3 0 0 2 -2 0 0 2 2 0 0 2 3 0 0 3 2 0 0 4 2 0z"/>
   <path class="fil1" d="M2297 1425l-2 0 0 7 -3 0 0 5 -2 0 0 2 -2 0 0 4 -2 0 0 3 -3 0 0 2 -2 0 0 2 -4 0 0 3 -3 0 0 2 -4 0 0 2 -9 0 0 2 -53 0 0 -118 3 0 0 -2 2 0 0 -2 41 0 0 2 7 0 0 2 6 0 0 3 5 0 0 2 2 0 0 2 5 0 0 2 2 0 0 3 2 0 0 2 3 0 0 2 2 0 0 5 2 0 0 2 2 0 0 4 3 0 0 7 2 0 0 7 2 0 0 36 -2 0 0 7zm-134 -100l-20 0 0 12 2 0 0 2 16 0 0 2 4 0 0 3 3 0 0 2 2 0 0 4 2 0 0 23 2 0 0 200 -2 0 0 4 -2 0 0 3 -2 0 0 2 -3 0 0 2 -11 0 0 3 -14 0 0 11 103 0 0 -11 -12 0 0 -3 -9 0 0 -2 -4 0 0 -2 -3 0 0 -3 -2 0 0 -4 -2 0 0 -23 -3 0 0 -70 3 0 0 -5 34 0 0 3 4 0 0 2 3 0 0 2 2 0 0 2 2 0 0 3 2 0 0 4 3 0 0 5 2 0 0 2 2 0 0 5 2 0 0 2 3 0 0 4 2 0 0 5 2 0 0 2 3 0 0 5 2 0 0 2 2 0 0 5 2 0 0 4 3 0 0 2 2 0 0 5 2 0 0 2 2 0 0 5 3 0 0 2 2 0 0 2 2 0 0 5 3 0 0 2 2 0 0 5 2 0 0 2 2 0 0 2 3 0 0 2 2 0 0 3 2 0 0 4 2 0 0 2 3 0 0 3 2 0 0 2 5 0 0 2 2 0 0 3 2 0 0 2 5 0 0 2 2 0 0 2 4 0 0 3 7 0 0 2 7 0 0 2 16 0 0 2 14 0 0 -2 13 0 0 -2 5 0 0 2 20 0 0 -2 148 0 0 2 36 0 0 -2 3 0 0 -7 2 0 0 -4 2 0 0 -7 2 0 0 -7 3 0 0 -7 2 0 0 -9 2 0 0 -7 2 0 0 -9 -4 0 0 -2 -7 0 0 2 -2 0 0 5 -2 0 0 4 -3 0 0 5 -2 0 0 2 -2 0 0 5 -3 0 0 2 -2 0 0 4 -2 0 0 3 -2 0 0 2 -3 0 0 2 -2 0 0 2 -4 0 0 3 -5 0 0 2 -11 0 0 2 -64 0 0 -2 -11 0 0 -2 -5 0 0 -3 -4 0 0 -2 -3 0 0 -2 -2 0 0 -7 -2 0 0 -9 -3 0 0 -91 5 0 0 -2 45 0 0 2 19 0 0 2 2 0 0 3 2 0 0 2 2 0 0 5 3 0 0 2 2 0 0 2 2 0 0 11 3 0 0 5 11 0 0 -84 -11 0 0 7 -3 0 0 13 -2 0 0 7 -2 0 0 2 -5 0 0 3 -11 0 0 2 -59 0 0 -2 -3 0 0 -105 3 0 0 -2 75 0 0 2 9 0 0 3 4 0 0 2 5 0 0 2 2 0 0 2 2 0 0 3 3 0 0 4 2 0 0 5 2 0 0 4 3 0 0 7 2 0 0 7 11 0 0 -23 -2 0 0 -23 -2 0 0 -11 -184 0 0 5 -3 0 0 6 12 0 0 3 9 0 0 2 4 0 0 2 3 0 0 5 2 0 0 7 2 0 0 90 2 0 0 121 -2 0 0 11 -2 0 0 5 -2 0 0 2 -5 0 0 2 -4 0 0 3 -19 0 0 2 -6 0 0 -2 -7 0 0 2 -3 0 0 -2 -11 0 0 -3 -7 0 0 -2 -2 0 0 -2 -2 0 0 -3 -3 0 0 -2 -2 0 0 -2 -2 0 0 -2 -2 0 0 -3 -3 0 0 -2 -2 0 0 -2 -2 0 0 -2 -2 0 0 -3 -3 0 0 -2 -2 0 0 -2 -2 0 0 -5 -3 0 0 -2 -2 0 0 -2 -2 0 0 -3 -2 0 0 -4 -3 0 0 -2 -2 0 0 -3 -2 0 0 -4 -2 0 0 -2 -3 0 0 -5 -2 0 0 -2 -2 0 0 -5 -3 0 0 -2 -2 0 0 -5 -2 0 0 -2 -2 0 0 -4 -3 0 0 -3 -2 0 0 -4 -2 0 0 -3 -2 0 0 -4 -3 0 0 -5 -2 0 0 -2 -2 0 0 -4 -3 0 0 -3 -2 0 0 -7 -2 0 0 -6 4 0 0 -3 5 0 0 -2 2 0 0 -2 5 0 0 -2 4 0 0 -3 3 0 0 -2 2 0 0 -2 2 0 0 -3 2 0 0 -2 3 0 0 -2 2 0 0 -2 2 0 0 -3 3 0 0 -4 2 0 0 -2 2 0 0 -5 2 0 0 -5 3 0 0 -9 2 0 0 -34 -2 0 0 -9 -3 0 0 -4 -2 0 0 -5 -2 0 0 -2 -2 0 0 -5 -3 0 0 -2 -2 0 0 -2 -2 0 0 -2 -3 0 0 -3 -4 0 0 -2 -2 0 0 -2 -5 0 0 -3 -4 0 0 -2 -5 0 0 -2 -7 0 0 -2 -7 0 0 -3 -11 0 0 -2 -109 0 0 2z"/>
   <path class="fil0" d="M432 1473l-2 0 0 11 -3 0 0 9 -2 0 0 7 -2 0 0 7 -2 0 0 5 -3 0 0 4 -2 0 0 7 -2 0 0 2 -2 0 0 5 -3 0 0 2 -2 0 0 5 -2 0 0 2 -2 0 0 2 -3 0 0 5 -2 0 0 2 -2 0 0 2 -3 0 0 2 -2 0 0 3 -4 0 0 2 -3 0 0 2 -2 0 0 3 -4 0 0 2 -3 0 0 2 -4 0 0 2 -5 0 0 3 -4 0 0 2 -5 0 0 2 -7 0 0 2 -9 0 0 3 -9 0 0 2 -16 0 0 2 -36 0 0 -2 -14 0 0 -2 -7 0 0 -3 -6 0 0 -2 -3 0 0 -2 -4 0 0 -2 -3 0 0 -3 -2 0 0 -2 -2 0 0 -4 -2 0 0 -3 -3 0 0 -7 -2 0 0 -9 -2 0 0 -243 2 0 0 -4 2 0 0 -2 7 0 0 -3 14 0 0 -2 52 0 0 2 16 0 0 3 9 0 0 2 9 0 0 2 7 0 0 2 7 0 0 3 4 0 0 2 5 0 0 2 4 0 0 2 5 0 0 3 2 0 0 2 5 0 0 2 2 0 0 3 2 0 0 2 5 0 0 2 2 0 0 2 2 0 0 3 3 0 0 2 2 0 0 2 2 0 0 2 3 0 0 5 2 0 0 2 2 0 0 3 2 0 0 4 3 0 0 2 2 0 0 5 2 0 0 4 2 0 0 5 3 0 0 4 2 0 0 7 2 0 0 7 2 0 0 7 3 0 0 9 2 0 0 16 2 0 0 41 -2 0 0 18zm-223 -198l-52 0 0 3 -2 0 0 13 14 0 0 3 6 0 0 2 5 0 0 2 2 0 0 5 2 0 0 4 3 0 0 98 2 0 0 143 -2 0 0 18 -3 0 0 7 -2 0 0 2 -2 0 0 2 -2 0 0 3 -7 0 0 2 -12 0 0 2 -11 0 0 16 21 0 0 -2 61 0 0 2 43 0 0 2 30 0 0 -2 25 0 0 -2 13 0 0 -2 12 0 0 -3 9 0 0 -2 6 0 0 -2 7 0 0 -2 7 0 0 -3 5 0 0 -2 4 0 0 -2 5 0 0 -3 4 0 0 -2 5 0 0 -2 4 0 0 -2 3 0 0 -3 4 0 0 -2 2 0 0 -2 3 0 0 -2 4 0 0 -3 2 0 0 -2 3 0 0 -2 2 0 0 -3 2 0 0 -2 3 0 0 -2 2 0 0 -2 2 0 0 -3 2 0 0 -2 3 0 0 -2 2 0 0 -2 2 0 0 -5 2 0 0 -2 3 0 0 -2 2 0 0 -5 2 0 0 -5 3 0 0 -2 2 0 0 -4 2 0 0 -5 2 0 0 -4 3 0 0 -5 2 0 0 -7 2 0 0 -7 2 0 0 -9 3 0 0 -9 2 0 0 -16 2 0 0 -36 -2 0 0 -16 -2 0 0 -9 -3 0 0 -9 -2 0 0 -7 -2 0 0 -5 -2 0 0 -4 -3 0 0 -5 -2 0 0 -4 -2 0 0 -5 -2 0 0 -4 -3 0 0 -2 -2 0 0 -5 -2 0 0 -2 -3 0 0 -3 -2 0 0 -2 -2 0 0 -4 -2 0 0 -3 -3 0 0 -2 -2 0 0 -2 -2 0 0 -2 -2 0 0 -3 -5 0 0 -2 -2 0 0 -2 -3 0 0 -3 -2 0 0 -2 -4 0 0 -2 -3 0 0 -2 -4 0 0 -3 -5 0 0 -2 -2 0 0 -2 -4 0 0 -2 -5 0 0 -3 -7 0 0 -2 -4 0 0 -2 -7 0 0 -3 -7 0 0 -2 -9 0 0 -2 -11 0 0 -2 -14 0 0 -3 -23 0 0 -2 -107 0 0 2z"/>
   <path class="fil1" d="M1182 1464l2 0 0 -2 2 0 0 -3 9 0 0 -2 21 0 0 2 16 0 0 3 9 0 0 2 7 0 0 2 4 0 0 2 5 0 0 3 4 0 0 2 2 0 0 2 3 0 0 3 2 0 0 2 2 0 0 2 3 0 0 2 2 0 0 3 2 0 0 4 2 0 0 5 3 0 0 7 2 0 0 6 2 0 0 34 -2 0 0 7 -2 0 0 7 -3 0 0 2 -2 0 0 5 -2 0 0 2 -2 0 0 2 -3 0 0 3 -2 0 0 2 -5 0 0 2 -4 0 0 2 -5 0 0 3 -6 0 0 2 -12 0 0 2 -25 0 0 -2 -9 0 0 -2 -4 0 0 -3 -3 0 0 -2 -2 0 0 -2 -2 0 0 -2 -3 0 0 -5 -2 0 0 -7 -2 0 0 -18 -2 0 0 -77zm84 -52l-3 0 0 6 -2 0 0 5 -2 0 0 2 -2 0 0 3 -3 0 0 2 -2 0 0 2 -2 0 0 2 -5 0 0 3 -7 0 0 2 -6 0 0 2 -12 0 0 2 -34 0 0 -2 -2 0 0 -2 -2 0 0 -39 2 0 0 -54 2 0 0 -5 2 0 0 -2 3 0 0 -2 32 0 0 2 9 0 0 2 6 0 0 3 5 0 0 2 2 0 0 2 5 0 0 2 2 0 0 3 2 0 0 2 3 0 0 2 2 0 0 5 2 0 0 4 2 0 0 5 3 0 0 9 2 0 0 23 -2 0 0 9zm-98 -89l-45 0 0 2 -9 0 0 12 6 0 0 2 16 0 0 2 5 0 0 3 2 0 0 4 2 0 0 11 3 0 0 146 2 0 0 50 -2 0 0 18 -3 0 0 4 -2 0 0 3 -2 0 0 2 -5 0 0 2 -11 0 0 3 -7 0 0 11 125 0 0 -2 14 0 0 -3 9 0 0 -2 7 0 0 -2 6 0 0 -2 5 0 0 -3 4 0 0 -2 5 0 0 -2 2 0 0 -3 5 0 0 -2 2 0 0 -2 2 0 0 -2 3 0 0 -3 2 0 0 -2 2 0 0 -2 2 0 0 -5 3 0 0 -2 2 0 0 -5 2 0 0 -4 3 0 0 -7 2 0 0 -11 2 0 0 -25 -2 0 0 -12 -2 0 0 -4 -3 0 0 -5 -2 0 0 -4 -2 0 0 -5 -3 0 0 -2 -2 0 0 -2 -2 0 0 -3 -2 0 0 -2 -3 0 0 -2 -2 0 0 -2 -2 0 0 -3 -2 0 0 -2 -5 0 0 -2 -5 0 0 -2 -4 0 0 -3 -7 0 0 -2 -7 0 0 -2 -2 0 0 -3 -2 0 0 -2 2 0 0 -2 5 0 0 -2 4 0 0 -3 2 0 0 -2 5 0 0 -2 2 0 0 -2 2 0 0 -3 3 0 0 -2 2 0 0 -2 2 0 0 -3 3 0 0 -4 2 0 0 -5 2 0 0 -4 2 0 0 -12 3 0 0 -13 -3 0 0 -14 -2 0 0 -4 -2 0 0 -5 -2 0 0 -4 -3 0 0 -3 -2 0 0 -4 -2 0 0 -2 -3 0 0 -3 -4 0 0 -2 -2 0 0 -2 -3 0 0 -3 -4 0 0 -2 -5 0 0 -2 -7 0 0 -2 -6 0 0 -3 -12 0 0 -2 -22 0 0 -2 -55 0 0 2z"/>
   <path class="fil0" d="M559 1428l3 0 0 -14 2 0 0 -9 2 0 0 -7 2 0 0 -7 3 0 0 -4 2 0 0 -5 2 0 0 -4 2 0 0 -5 3 0 0 -2 2 0 0 -5 2 0 0 -2 3 0 0 -2 2 0 0 -3 2 0 0 -2 2 0 0 -2 3 0 0 -2 2 0 0 -3 4 0 0 -2 3 0 0 -2 4 0 0 -2 2 0 0 -3 7 0 0 -2 5 0 0 -2 7 0 0 -3 9 0 0 -2 36 0 0 2 11 0 0 3 7 0 0 2 5 0 0 2 4 0 0 3 5 0 0 2 4 0 0 2 3 0 0 2 4 0 0 3 3 0 0 2 2 0 0 2 2 0 0 2 2 0 0 3 3 0 0 2 2 0 0 2 2 0 0 5 2 0 0 2 3 0 0 2 2 0 0 5 2 0 0 4 3 0 0 5 2 0 0 4 2 0 0 5 2 0 0 7 3 0 0 4 2 0 0 9 2 0 0 10 2 0 0 13 3 0 0 59 -3 0 0 12 -2 0 0 9 -2 0 0 7 -2 0 0 4 -3 0 0 7 -2 0 0 2 -2 0 0 5 -2 0 0 4 -3 0 0 2 -2 0 0 5 -2 0 0 2 -3 0 0 3 -2 0 0 2 -2 0 0 2 -2 0 0 2 -3 0 0 3 -2 0 0 2 -4 0 0 2 -3 0 0 2 -4 0 0 3 -5 0 0 2 -4 0 0 2 -7 0 0 3 -7 0 0 2 -20 0 0 2 -3 0 0 -2 -22 0 0 -2 -10 0 0 -3 -4 0 0 -2 -7 0 0 -2 -4 0 0 -3 -5 0 0 -2 -2 0 0 -2 -5 0 0 -2 -2 0 0 -3 -2 0 0 -2 -3 0 0 -2 -2 0 0 -2 -2 0 0 -3 -2 0 0 -2 -3 0 0 -2 -2 0 0 -3 -2 0 0 -4 -2 0 0 -2 -3 0 0 -5 -2 0 0 -2 -2 0 0 -5 -3 0 0 -4 -2 0 0 -5 -2 0 0 -7 -2 0 0 -4 -3 0 0 -7 -2 0 0 -9 -2 0 0 -11 -2 0 0 -14 -3 0 0 -45zm89 -109l-16 0 0 2 -9 0 0 2 -7 0 0 2 -7 0 0 3 -7 0 0 2 -4 0 0 2 -5 0 0 2 -4 0 0 3 -5 0 0 2 -2 0 0 2 -5 0 0 3 -2 0 0 2 -4 0 0 2 -3 0 0 2 -2 0 0 3 -2 0 0 2 -2 0 0 2 -3 0 0 2 -2 0 0 3 -2 0 0 2 -3 0 0 2 -2 0 0 2 -2 0 0 3 -2 0 0 4 -3 0 0 3 -2 0 0 4 -2 0 0 2 -2 0 0 5 -3 0 0 4 -2 0 0 5 -2 0 0 5 -3 0 0 4 -2 0 0 7 -2 0 0 7 -2 0 0 9 -3 0 0 13 -2 0 0 37 2 0 0 13 3 0 0 12 2 0 0 4 2 0 0 7 2 0 0 7 3 0 0 5 2 0 0 4 2 0 0 2 3 0 0 5 2 0 0 4 2 0 0 3 2 0 0 2 3 0 0 4 2 0 0 3 2 0 0 2 2 0 0 2 3 0 0 3 2 0 0 2 2 0 0 2 3 0 0 2 2 0 0 3 2 0 0 2 5 0 0 2 2 0 0 2 4 0 0 3 3 0 0 2 4 0 0 2 5 0 0 3 4 0 0 2 5 0 0 2 4 0 0 2 7 0 0 3 7 0 0 2 9 0 0 2 14 0 0 2 47 0 0 -2 12 0 0 -2 9 0 0 -2 7 0 0 -3 7 0 0 -2 4 0 0 -2 5 0 0 -2 4 0 0 -3 2 0 0 -2 5 0 0 -2 5 0 0 -3 2 0 0 -2 2 0 0 -2 5 0 0 -2 2 0 0 -3 2 0 0 -2 2 0 0 -2 3 0 0 -2 2 0 0 -3 2 0 0 -2 3 0 0 -2 2 0 0 -3 2 0 0 -2 2 0 0 -4 3 0 0 -3 2 0 0 -2 2 0 0 -4 2 0 0 -5 3 0 0 -2 2 0 0 -5 2 0 0 -7 2 0 0 -4 3 0 0 -7 2 0 0 -7 2 0 0 -9 3 0 0 -11 2 0 0 -41 -2 0 0 -14 -3 0 0 -9 -2 0 0 -9 -2 0 0 -4 -3 0 0 -7 -2 0 0 -5 -2 0 0 -4 -2 0 0 -5 -3 0 0 -2 -2 0 0 -5 -2 0 0 -2 -2 0 0 -5 -3 0 0 -2 -2 0 0 -2 -2 0 0 -2 -2 0 0 -3 -3 0 0 -4 -4 0 0 -2 -3 0 0 -3 -2 0 0 -2 -2 0 0 -2 -2 0 0 -2 -5 0 0 -3 -2 0 0 -2 -5 0 0 -2 -2 0 0 -3 -5 0 0 -2 -4 0 0 -2 -5 0 0 -2 -6 0 0 -3 -7 0 0 -2 -7 0 0 -2 -9 0 0 -2 -18 0 0 -3 -32 0 0 3z"/>
   <polygon class="fil0" points="1818,1282 1815,1282 1815,1300 1813,1300 1813,1319 1811,1319 1811,1334 1820,1334 1820,1337 1825,1337 1825,1332 1827,1332 1827,1328 1829,1328 1829,1321 1831,1321 1831,1316 1834,1316 1834,1314 1836,1314 1836,1309 1838,1309 1838,1307 1840,1307 1840,1305 1843,1305 1843,1303 1845,1303 1845,1300 1847,1300 1847,1298 1852,1298 1852,1296 1859,1296 1859,1294 1870,1294 1870,1291 1940,1291 1940,1294 1943,1294 1943,1564 1940,1564 1940,1571 1938,1571 1938,1575 1936,1575 1936,1577 1934,1577 1934,1580 1927,1580 1927,1582 1915,1582 1915,1584 1897,1584 1897,1598 2029,1598 2029,1589 2031,1589 2031,1587 2029,1587 2029,1584 2013,1584 2013,1582 1999,1582 1999,1580 1995,1580 1995,1577 1993,1577 1993,1575 1990,1575 1990,1571 1988,1571 1988,1564 1986,1564 1986,1330 1984,1330 1984,1303 1986,1303 1986,1291 2063,1291 2063,1294 2072,1294 2072,1296 2079,1296 2079,1298 2083,1298 2083,1300 2088,1300 2088,1303 2090,1303 2090,1305 2093,1305 2093,1307 2095,1307 2095,1314 2097,1314 2097,1321 2099,1321 2099,1332 2102,1332 2102,1337 2115,1337 2115,1316 2118,1316 2118,1278 2120,1278 2120,1275 2118,1275 2118,1273 1818,1273 "/>
   <polygon class="fil1" points="1588,1334 1597,1334 1597,1337 1609,1337 1609,1339 1613,1339 1613,1341 1616,1341 1616,1346 1618,1346 1618,1355 1620,1355 1620,1439 1622,1439 1622,1571 1620,1571 1620,1577 1618,1577 1618,1580 1616,1580 1616,1582 1613,1582 1613,1584 1606,1584 1606,1587 1588,1587 1588,1589 1584,1589 1584,1598 1586,1598 1586,1600 1604,1600 1604,1598 1752,1598 1752,1600 1790,1600 1790,1593 1793,1593 1793,1589 1795,1589 1795,1582 1797,1582 1797,1575 1800,1575 1800,1568 1802,1568 1802,1562 1804,1562 1804,1552 1806,1552 1806,1543 1809,1543 1809,1541 1804,1541 1804,1539 1795,1539 1795,1543 1793,1543 1793,1548 1790,1548 1790,1552 1788,1552 1788,1555 1786,1555 1786,1559 1784,1559 1784,1564 1781,1564 1781,1566 1779,1566 1779,1568 1777,1568 1777,1571 1775,1571 1775,1573 1772,1573 1772,1575 1770,1575 1770,1577 1768,1577 1768,1580 1761,1580 1761,1582 1750,1582 1750,1584 1686,1584 1686,1582 1675,1582 1675,1580 1670,1580 1670,1577 1666,1577 1666,1573 1663,1573 1663,1571 1661,1571 1661,1564 1659,1564 1659,1537 1656,1537 1656,1473 1659,1473 1659,1466 1663,1466 1663,1464 1709,1464 1709,1466 1727,1466 1727,1468 1729,1468 1729,1471 1731,1471 1731,1475 1734,1475 1734,1478 1736,1478 1736,1480 1738,1480 1738,1484 1740,1484 1740,1496 1743,1496 1743,1498 1754,1498 1754,1462 1752,1462 1752,1453 1754,1453 1754,1414 1743,1414 1743,1416 1740,1416 1740,1428 1738,1428 1738,1437 1736,1437 1736,1441 1734,1441 1734,1443 1731,1443 1731,1446 1718,1446 1718,1448 1659,1448 1659,1446 1656,1446 1656,1341 1659,1341 1659,1339 1734,1339 1734,1341 1743,1341 1743,1344 1747,1344 1747,1346 1752,1346 1752,1348 1754,1348 1754,1350 1756,1350 1756,1355 1759,1355 1759,1357 1761,1357 1761,1362 1763,1362 1763,1368 1765,1368 1765,1375 1768,1375 1768,1380 1779,1380 1779,1362 1777,1362 1777,1339 1775,1339 1775,1325 1772,1325 1772,1323 1588,1323 "/>
   <polygon class="fil0" points="807,1332 809,1332 809,1334 830,1334 830,1337 834,1337 834,1339 836,1339 836,1341 839,1341 839,1348 841,1348 841,1493 843,1493 843,1518 845,1518 845,1532 848,1532 848,1541 850,1541 850,1548 852,1548 852,1552 855,1552 855,1557 857,1557 857,1562 859,1562 859,1564 861,1564 861,1568 864,1568 864,1571 866,1571 866,1573 868,1573 868,1575 870,1575 870,1577 873,1577 873,1580 875,1580 875,1582 880,1582 880,1584 882,1584 882,1587 886,1587 886,1589 889,1589 889,1591 893,1591 893,1593 900,1593 900,1596 905,1596 905,1598 914,1598 914,1600 927,1600 927,1602 973,1602 973,1600 984,1600 984,1598 991,1598 991,1596 998,1596 998,1593 1004,1593 1004,1591 1009,1591 1009,1589 1011,1589 1011,1587 1016,1587 1016,1584 1020,1584 1020,1582 1023,1582 1023,1580 1025,1580 1025,1577 1027,1577 1027,1575 1029,1575 1029,1573 1032,1573 1032,1571 1034,1571 1034,1568 1036,1568 1036,1566 1039,1566 1039,1564 1041,1564 1041,1559 1043,1559 1043,1555 1045,1555 1045,1550 1048,1550 1048,1546 1050,1546 1050,1541 1052,1541 1052,1532 1054,1532 1054,1525 1057,1525 1057,1512 1059,1512 1059,1489 1061,1489 1061,1364 1064,1364 1064,1348 1066,1348 1066,1344 1068,1344 1068,1341 1070,1341 1070,1339 1073,1339 1073,1337 1079,1337 1079,1334 1098,1334 1098,1323 1004,1323 1004,1334 1023,1334 1023,1337 1029,1337 1029,1339 1034,1339 1034,1341 1036,1341 1036,1346 1039,1346 1039,1355 1041,1355 1041,1368 1043,1368 1043,1466 1041,1466 1041,1503 1039,1503 1039,1516 1036,1516 1036,1525 1034,1525 1034,1532 1032,1532 1032,1537 1029,1537 1029,1543 1027,1543 1027,1546 1025,1546 1025,1550 1023,1550 1023,1555 1020,1555 1020,1557 1018,1557 1018,1559 1016,1559 1016,1562 1014,1562 1014,1564 1011,1564 1011,1566 1009,1566 1009,1568 1007,1568 1007,1571 1002,1571 1002,1573 1000,1573 1000,1575 995,1575 995,1577 989,1577 989,1580 982,1580 982,1582 961,1582 961,1584 959,1584 959,1582 936,1582 936,1580 927,1580 927,1577 923,1577 923,1575 918,1575 918,1573 914,1573 914,1571 911,1571 911,1568 907,1568 907,1566 905,1566 905,1564 902,1564 902,1562 900,1562 900,1559 898,1559 898,1555 895,1555 895,1552 893,1552 893,1548 891,1548 891,1546 889,1546 889,1539 886,1539 886,1534 884,1534 884,1528 882,1528 882,1518 880,1518 880,1505 877,1505 877,1348 880,1348 880,1341 882,1341 882,1339 884,1339 884,1337 889,1337 889,1334 907,1334 907,1332 911,1332 911,1323 909,1323 909,1321 895,1321 895,1323 823,1323 823,1321 807,1321 "/>
   <polygon class="fil1" points="2658,1334 2667,1334 2667,1337 2676,1337 2676,1339 2681,1339 2681,1341 2683,1341 2683,1344 2685,1344 2685,1350 2688,1350 2688,1425 2690,1425 2690,1564 2688,1564 2688,1575 2685,1575 2685,1580 2683,1580 2683,1582 2681,1582 2681,1584 2674,1584 2674,1587 2656,1587 2656,1589 2651,1589 2651,1600 2672,1600 2672,1598 2819,1598 2819,1600 2856,1600 2856,1598 2858,1598 2858,1593 2860,1593 2860,1587 2863,1587 2863,1580 2865,1580 2865,1575 2867,1575 2867,1566 2869,1566 2869,1559 2872,1559 2872,1552 2874,1552 2874,1541 2872,1541 2872,1539 2863,1539 2863,1543 2860,1543 2860,1548 2858,1548 2858,1550 2856,1550 2856,1555 2854,1555 2854,1559 2851,1559 2851,1562 2849,1562 2849,1566 2847,1566 2847,1568 2844,1568 2844,1571 2842,1571 2842,1573 2840,1573 2840,1575 2838,1575 2838,1577 2835,1577 2835,1580 2829,1580 2829,1582 2817,1582 2817,1584 2754,1584 2754,1582 2742,1582 2742,1580 2738,1580 2738,1577 2733,1577 2733,1575 2731,1575 2731,1571 2729,1571 2729,1566 2726,1566 2726,1552 2724,1552 2724,1468 2726,1468 2726,1466 2729,1466 2729,1464 2776,1464 2776,1466 2795,1466 2795,1468 2797,1468 2797,1473 2799,1473 2799,1475 2801,1475 2801,1478 2804,1478 2804,1480 2806,1480 2806,1487 2808,1487 2808,1498 2822,1498 2822,1478 2819,1478 2819,1437 2822,1437 2822,1416 2819,1416 2819,1414 2810,1414 2810,1416 2808,1416 2808,1425 2806,1425 2806,1434 2804,1434 2804,1441 2801,1441 2801,1443 2799,1443 2799,1446 2785,1446 2785,1448 2726,1448 2726,1446 2724,1446 2724,1341 2726,1341 2726,1339 2801,1339 2801,1341 2810,1341 2810,1344 2815,1344 2815,1346 2819,1346 2819,1348 2822,1348 2822,1350 2824,1350 2824,1353 2826,1353 2826,1357 2829,1357 2829,1362 2831,1362 2831,1366 2833,1366 2833,1373 2835,1373 2835,1380 2847,1380 2847,1353 2844,1353 2844,1332 2842,1332 2842,1323 2658,1323 "/>
   <polygon class="fil1" points="1354,1334 1370,1334 1370,1337 1382,1337 1382,1339 1384,1339 1384,1341 1386,1341 1386,1344 1388,1344 1388,1348 1391,1348 1391,1403 1393,1403 1393,1562 1391,1562 1391,1573 1388,1573 1388,1577 1386,1577 1386,1582 1382,1582 1382,1584 1372,1584 1372,1587 1357,1587 1357,1589 1354,1589 1354,1596 1357,1596 1357,1598 1552,1598 1552,1591 1554,1591 1554,1584 1556,1584 1556,1577 1559,1577 1559,1571 1561,1571 1561,1562 1563,1562 1563,1555 1566,1555 1566,1543 1568,1543 1568,1539 1554,1539 1554,1546 1552,1546 1552,1550 1550,1550 1550,1555 1547,1555 1547,1557 1545,1557 1545,1562 1543,1562 1543,1566 1541,1566 1541,1568 1538,1568 1538,1571 1536,1571 1536,1573 1534,1573 1534,1575 1531,1575 1531,1577 1529,1577 1529,1580 1522,1580 1522,1582 1482,1582 1482,1584 1477,1584 1477,1582 1450,1582 1450,1580 1443,1580 1443,1577 1438,1577 1438,1575 1436,1575 1436,1573 1434,1573 1434,1571 1432,1571 1432,1566 1429,1566 1429,1559 1427,1559 1427,1350 1429,1350 1429,1344 1432,1344 1432,1341 1434,1341 1434,1339 1438,1339 1438,1337 1447,1337 1447,1334 1461,1334 1461,1323 1354,1323 "/>
   <path class="fil0" d="M943 1823l-2 0 0 2 -7 0 0 2 -52 0 0 -27 52 0 0 2 7 0 0 3 2 0 0 4 2 0 0 12 -2 0 0 2zm-7 -41l-4 0 0 2 -50 0 0 -23 52 0 0 3 5 0 0 2 2 0 0 14 -5 0 0 2zm-72 61l72 0 0 -2 9 0 0 -2 5 0 0 -3 5 0 0 -2 2 0 0 -2 2 0 0 -5 2 0 0 -6 3 0 0 -12 -3 0 0 -7 -2 0 0 -4 -2 0 0 -2 -2 0 0 -3 -5 0 0 -2 2 0 0 -2 3 0 0 -3 2 0 0 -4 2 0 0 -21 -2 0 0 -4 -2 0 0 -2 -3 0 0 -3 -2 0 0 -2 -5 0 0 -2 -6 0 0 -2 -75 0 0 97z"/>
   <polygon class="fil2" points="2061,1843 2079,1843 2079,1768 2081,1768 2081,1771 2083,1771 2083,1773 2086,1773 2086,1775 2088,1775 2088,1777 2090,1777 2090,1780 2093,1780 2093,1784 2095,1784 2095,1786 2097,1786 2097,1789 2099,1789 2099,1791 2102,1791 2102,1793 2104,1793 2104,1796 2106,1796 2106,1798 2108,1798 2108,1800 2111,1800 2111,1802 2113,1802 2113,1807 2115,1807 2115,1809 2118,1809 2118,1811 2120,1811 2120,1814 2122,1814 2122,1816 2124,1816 2124,1818 2127,1818 2127,1821 2129,1821 2129,1823 2131,1823 2131,1827 2133,1827 2133,1830 2136,1830 2136,1832 2138,1832 2138,1834 2140,1834 2140,1836 2143,1836 2143,1839 2145,1839 2145,1841 2147,1841 2147,1843 2163,1843 2163,1746 2147,1746 2147,1814 2143,1814 2143,1809 2140,1809 2140,1807 2138,1807 2138,1805 2136,1805 2136,1802 2133,1802 2133,1800 2131,1800 2131,1798 2129,1798 2129,1796 2127,1796 2127,1793 2124,1793 2124,1791 2122,1791 2122,1789 2120,1789 2120,1786 2118,1786 2118,1782 2115,1782 2115,1780 2113,1780 2113,1777 2111,1777 2111,1775 2108,1775 2108,1773 2106,1773 2106,1771 2104,1771 2104,1768 2102,1768 2102,1766 2099,1766 2099,1764 2097,1764 2097,1761 2095,1761 2095,1759 2093,1759 2093,1755 2090,1755 2090,1752 2088,1752 2088,1750 2086,1750 2086,1748 2083,1748 2083,1746 2061,1746 "/>
   <path class="fil1" d="M1902 1791l2 0 0 -11 2 0 0 -5 3 0 0 -2 2 0 0 -2 2 0 0 -3 2 0 0 -2 3 0 0 -2 4 0 0 -3 7 0 0 -2 27 0 0 2 7 0 0 3 2 0 0 2 5 0 0 2 2 0 0 3 2 0 0 2 3 0 0 4 2 0 0 5 2 0 0 25 -2 0 0 4 -2 0 0 5 -3 0 0 2 -2 0 0 3 -2 0 0 2 -2 0 0 2 -5 0 0 2 -9 0 0 3 -25 0 0 -3 -7 0 0 -2 -4 0 0 -2 -3 0 0 -2 -2 0 0 -3 -2 0 0 -2 -2 0 0 -2 -3 0 0 -7 -2 0 0 -11 -2 0 0 -5zm38 -48l-16 0 0 3 -6 0 0 2 -5 0 0 2 -4 0 0 2 -5 0 0 3 -2 0 0 2 -3 0 0 2 -2 0 0 2 -2 0 0 5 -2 0 0 2 -3 0 0 5 -2 0 0 7 -2 0 0 29 2 0 0 7 2 0 0 5 3 0 0 2 2 0 0 4 2 0 0 3 2 0 0 2 3 0 0 2 4 0 0 2 3 0 0 3 4 0 0 2 5 0 0 2 9 0 0 3 32 0 0 -3 6 0 0 -2 7 0 0 -2 2 0 0 -3 5 0 0 -2 2 0 0 -2 3 0 0 -2 2 0 0 -3 2 0 0 -2 2 0 0 -2 3 0 0 -5 2 0 0 -4 2 0 0 -5 2 0 0 -29 -2 0 0 -7 -2 0 0 -5 -2 0 0 -2 -3 0 0 -5 -2 0 0 -2 -2 0 0 -2 -2 0 0 -2 -3 0 0 -3 -4 0 0 -2 -5 0 0 -2 -4 0 0 -2 -7 0 0 -3 -16 0 0 -2 -5 0 0 2z"/>
   <polygon class="fil2" points="1320,1843 1338,1843 1338,1800 1404,1800 1404,1843 1422,1843 1422,1746 1404,1746 1404,1784 1338,1784 1338,1746 1320,1746 "/>
   <polygon class="fil1" points="1727,1759 1729,1759 1729,1761 1772,1761 1772,1843 1790,1843 1790,1761 1836,1761 1836,1746 1727,1746 "/>
   <polygon class="fil2" points="1023,1748 1025,1748 1025,1752 1027,1752 1027,1755 1029,1755 1029,1757 1032,1757 1032,1759 1034,1759 1034,1761 1036,1761 1036,1764 1039,1764 1039,1766 1041,1766 1041,1771 1043,1771 1043,1773 1045,1773 1045,1775 1048,1775 1048,1777 1050,1777 1050,1780 1052,1780 1052,1782 1054,1782 1054,1784 1057,1784 1057,1789 1059,1789 1059,1791 1061,1791 1061,1793 1064,1793 1064,1796 1066,1796 1066,1798 1068,1798 1068,1800 1070,1800 1070,1805 1073,1805 1073,1843 1091,1843 1091,1802 1093,1802 1093,1800 1095,1800 1095,1796 1098,1796 1098,1793 1100,1793 1100,1791 1102,1791 1102,1789 1104,1789 1104,1786 1107,1786 1107,1784 1109,1784 1109,1782 1111,1782 1111,1777 1114,1777 1114,1775 1116,1775 1116,1773 1118,1773 1118,1771 1120,1771 1120,1768 1123,1768 1123,1766 1125,1766 1125,1764 1127,1764 1127,1759 1129,1759 1129,1757 1132,1757 1132,1755 1134,1755 1134,1752 1136,1752 1136,1750 1139,1750 1139,1748 1141,1748 1141,1746 1116,1746 1116,1750 1114,1750 1114,1752 1111,1752 1111,1755 1109,1755 1109,1757 1107,1757 1107,1759 1104,1759 1104,1761 1102,1761 1102,1766 1100,1766 1100,1768 1098,1768 1098,1771 1095,1771 1095,1773 1093,1773 1093,1775 1091,1775 1091,1777 1089,1777 1089,1780 1086,1780 1086,1784 1084,1784 1084,1786 1082,1786 1082,1789 1079,1789 1079,1784 1077,1784 1077,1782 1075,1782 1075,1780 1073,1780 1073,1777 1070,1777 1070,1775 1068,1775 1068,1773 1066,1773 1066,1768 1064,1768 1064,1766 1061,1766 1061,1764 1059,1764 1059,1761 1057,1761 1057,1759 1054,1759 1054,1757 1052,1757 1052,1752 1050,1752 1050,1750 1048,1750 1048,1748 1045,1748 1045,1746 1023,1746 "/>
   <polygon class="fil1" points="1602,1843 1693,1843 1693,1827 1620,1827 1620,1746 1602,1746 "/>
   <polygon class="fil0" points="1502,1843 1520,1843 1520,1746 1502,1746 "/>
   <polygon class="fil1" points="2249,1780 2252,1780 2252,1782 2254,1782 2254,1780 2256,1780 2256,1761 2258,1761 2258,1766 2261,1766 2261,1773 2263,1773 2263,1777 2265,1777 2265,1780 2267,1780 2267,1782 2270,1782 2270,1777 2272,1777 2272,1773 2274,1773 2274,1768 2277,1768 2277,1761 2279,1761 2279,1780 2281,1780 2281,1782 2286,1782 2286,1748 2279,1748 2279,1750 2277,1750 2277,1757 2274,1757 2274,1761 2272,1761 2272,1768 2270,1768 2270,1773 2267,1773 2267,1766 2265,1766 2265,1761 2263,1761 2263,1755 2261,1755 2261,1750 2258,1750 2258,1748 2249,1748 "/>
   <polygon class="fil0" points="2215,1750 2218,1750 2218,1752 2227,1752 2227,1780 2229,1780 2229,1782 2231,1782 2231,1780 2233,1780 2233,1752 2245,1752 2245,1748 2215,1748 "/>
   <polygon class="fil3" points="1102,626 1104,626 1104,621 1102,621 "/>
   <polygon class="fil4" points="789,639 793,639 793,637 789,637 "/>
   <polygon class="fil5" points="1095,251 1095,253 1098,253 1098,251 "/>
   <polygon class="fil6" points="1023,439 1023,442 1025,442 1025,439 "/>
   <polygon class="fil5" points="1354,476 1354,478 1357,478 1357,476 "/>
   <polygon class="fil7" points="1009,503 1011,503 1011,501 1009,501 "/>
   <polygon class="fil8" points="1659,744 1656,744 1656,746 1659,746 "/>
   <polygon class="fil0" points="1218,376 1216,376 1216,378 1218,378 "/>
  </g>
 </g>
</svg>
