<?xml version="1.0" encoding="UTF-8"?>
<!DOCTYPE svg PUBLIC "-//W3C//DTD SVG 1.1//EN" "http://www.w3.org/Graphics/SVG/1.1/DTD/svg11.dtd">
<!-- Creator: CorelDRAW X8 -->
<?xml-stylesheet href="Untitled-2.css" type="text/css"?>
<svg xmlns="http://www.w3.org/2000/svg" xml:space="preserve" width="3.06333in" height="1.92666in" version="1.1" style="shape-rendering:geometricPrecision; text-rendering:geometricPrecision; image-rendering:optimizeQuality; fill-rule:evenodd; clip-rule:evenodd"
viewBox="0 0 3063 1927"
 xmlns:xlink="http://www.w3.org/1999/xlink">
 <g id="Layer_x0020_1">
  <metadata id="CorelCorpID_0Corel-Layer"/>
  <g id="_2181894460912">
   <path class="fil0" d="M2100 1028l136 -34c-24,-81 -43,-64 -68,-124 -67,-161 -13,-281 151,-296l57 -1 27 -2c12,-13 6,-35 87,-28 28,2 60,13 81,25 112,65 129,149 111,263 -18,115 -8,91 20,188 1,1 4,11 12,23 64,-20 219,-156 259,-231 -109,-160 -333,-318 -557,-318 -144,0 -239,50 -329,110 -74,49 -182,140 -228,208 44,65 171,181 241,217z"/>
   <path class="fil1" d="M99 681c0,39 -7,40 -15,72 34,8 34,11 74,15 -32,42 -10,17 -59,43 0,240 -66,188 381,188l0 -145 -29 -29c33,-62 -4,-26 44,-43 -33,-44 9,-23 -59,-29 73,-103 3,-87 -132,-87l0 -43 176 0 0 -130 -381 0 0 188z"/>
   <path class="fil1" d="M744 724l0 -72 59 0c-2,67 6,66 -59,72zm-191 -29c0,33 -11,32 -29,58 39,19 16,13 73,15l0 28c-60,16 -44,10 -44,203l191 0 0 -116c70,0 108,6 165,-25 67,-38 25,-40 84,-62l0 -57c0,-80 4,-136 -34,-183 -74,-90 -267,-63 -406,-63l0 202z"/>
   <path class="fil1" d="M568 1259c59,86 76,36 59,115 59,2 96,18 146,29l-31 42 60 31 1 144 190 0 0 -101c35,-23 16,-18 59,-29 -11,-45 -37,-40 103,-72l-17 -57c58,-30 85,-51 119,-102 -19,-29 -28,-36 -55,-61 -35,-34 -34,-22 -47,-69 -72,6 -85,52 -128,90 -30,27 -31,20 -59,43 -30,25 -29,33 -63,55 -14,-21 -175,-183 -234,-188 -20,72 -47,48 -103,130z"/>
   <path class="fil1" d="M1272 753l30 31c2,160 149,235 293,230 71,-2 90,-16 132,-44l0 -145c-67,0 -83,13 -119,14 -47,3 -53,-17 -101,-28l31 -42c-29,-14 -20,-13 -61,-16 55,-80 20,-79 78,-96 66,-20 120,5 172,9l0 -158c-28,-15 -60,-25 -92,-29l-103 0c-42,6 -83,18 -119,38 -76,40 -120,158 -141,236z"/>
   <path class="fil1" d="M84 1360c23,32 3,18 44,29 -28,118 -29,-5 -29,231l367 0c0,-152 23,-130 -162,-130l0 -43 147 0c14,-54 15,-19 29,-73l-44 0 17 -57 -149 0 0 -58 162 0c0,-165 46,-130 -323,-130 -80,0 -21,73 -59,231z"/>
   <path class="fil1" d="M1360 1172l0 87 161 0 0 58 -146 0c-11,38 1,11 -15,43 23,32 2,18 44,29 -2,2 -7,2 -8,6 -3,17 -15,-4 -21,52l146 0 0 43c-184,0 -161,-22 -161,130l367 0 -30 -246c27,-99 30,49 30,-202 0,-72 -125,-43 -323,-43 -34,0 -44,10 -44,43z"/>
   <path class="fil2" d="M2489 623c22,29 28,15 62,58 16,129 -71,125 -33,275l-156 -5c-10,-38 -5,-34 -31,-56 3,-64 14,-58 14,-113l-52 -22c-4,-131 74,-145 196,-137zm-225 289c17,-2 2,-9 24,8 11,9 18,19 22,22 98,61 92,48 109,86 -65,80 -104,-5 -243,23 -28,-6 -6,-4 -15,20 158,107 352,89 516,0 -28,-47 2,-9 -42,-44 -98,-78 -29,-99 -30,-274 -1,-104 -57,-108 -98,-172l-104 -10 -27 2c-44,49 -39,28 -73,55 -100,80 -52,146 -39,284z"/>
   <path class="fil1" d="M1272 753c-100,-8 -39,-20 -30,-87 6,-39 1,-128 1,-173l-191 0c0,48 0,97 0,145 1,112 -10,59 -29,130l29 231 191 0c0,-188 -22,-185 44,-203 -11,-38 1,-11 -15,-43z"/>
   <path class="fil3" d="M2293 760l52 22c0,55 -11,49 -14,113 26,22 21,18 31,56l156 5c-38,-150 49,-146 33,-275 -34,-43 -40,-29 -62,-58 -122,-8 -200,6 -196,137z"/>
   <path class="fil4" d="M2677 1071c25,-10 14,-5 37,-29 -8,-12 -11,-22 -12,-23 -66,-24 -17,-2 -58,-49 -13,-103 23,-177 6,-260 -14,-69 -72,-113 -143,-129 41,64 97,68 98,172 1,175 -68,196 30,274 44,35 14,-3 42,44z"/>
   <path class="fil5" d="M2211 894c27,23 2,6 53,18 -13,-138 -61,-204 39,-284 34,-27 29,-6 73,-55l-57 1c-59,61 -105,42 -140,119 -27,61 10,151 32,201z"/>
   <path class="fil6" d="M2507 581c71,16 129,60 143,129 17,83 -19,157 -6,260 41,47 -8,25 58,49 -28,-97 -38,-73 -20,-188 18,-114 1,-198 -111,-263 -21,-12 -53,-23 -81,-25 -81,-7 -75,15 -87,28l104 10z"/>
   <path class="fil7" d="M2100 1028c3,18 -30,14 29,14 47,-32 98,-31 159,-32 -13,-63 -40,-60 -77,-116 -22,-50 -59,-140 -32,-201 35,-77 81,-58 140,-119 -164,15 -218,135 -151,296 25,60 44,43 68,124l-136 34z"/>
   <path class="fil8" d="M2129 1042c12,30 -11,17 32,29 9,-24 -13,-26 15,-20 28,-34 26,-28 78,-26 38,2 50,8 97,7 -18,-68 -13,-23 -41,-90 -4,-3 -11,-13 -22,-22 -22,-17 -7,-10 -24,-8 -51,-12 -26,5 -53,-18 37,56 64,53 77,116 -61,1 -112,0 -159,32z"/>
   <path class="fil9" d="M2176 1051c139,-28 178,57 243,-23 -17,-38 -11,-25 -109,-86 28,67 23,22 41,90 -47,1 -59,-5 -97,-7 -52,-2 -50,-8 -78,26z"/>
   <path class="fil1" d="M1859 1476c108,-79 9,-8 88,-44 12,136 29,-31 29,-72 -54,14 -31,15 -73,43 -12,-43 0,-31 -44,-43l0 116z"/>
   <path class="fil1" d="M2416 1447c93,61 22,-8 103,29 -3,-100 -22,-30 -30,-116l-58 0c-1,44 -7,53 -15,87z"/>
   <path class="fil1" d="M1947 1620l88 0c-5,-17 -15,-39 -15,-43 0,-33 5,-17 15,-58l-88 0 0 101z"/>
   <path class="fil1" d="M2738 1389l5 4c0,0 -6,-3 -5,-4zm-29 87c76,-50 87,45 71,-75 -8,-55 -9,-40 -71,-41l0 116z"/>
   <path class="fil1" d="M2592 1461c19,9 -14,24 44,-14 25,17 6,11 25,16 40,11 21,-28 12,-51 -20,-50 8,-36 -52,-52 -18,77 -47,63 -29,101z"/>
   <path class="fil1" d="M2929 1418l-29 43c57,12 16,12 73,0 0,-20 0,-34 0,-42l0 -12c-1,-7 -6,6 -29,-4l15 -14c7,-11 6,-8 14,-29l-73 0c2,85 -11,43 29,58z"/>
   <path class="fil1" d="M2049 1577l44 14c-75,0 -31,-2 -44,29l74 0c-2,-88 9,-42 -30,-58 3,-2 7,-9 8,-7l22 -36 -74 0 0 58z"/>
   <path class="fil1" d="M2108 1461c41,10 41,25 63,3 8,-8 15,5 11,-31 -7,-60 5,-16 -30,-30l29 -43c-56,1 -78,-3 -65,49 5,18 15,1 2,32l-10 20z"/>
   <path class="fil1" d="M2385 1619c91,-22 21,-18 104,1 -20,-85 -33,-91 -73,-101l-31 100z"/>
   <path class="fil1" d="M1859 1620c87,-31 72,-72 73,-101l-73 0 0 101z"/>
   <path class="fil1" d="M2357 1620c13,-54 24,-40 30,-101 -42,15 -18,13 -59,43l0 -43 -44 0c28,57 8,84 73,101z"/>
   <path class="fil1" d="M2255 1418l0 29c54,28 40,28 102,14l-73 -29c29,-105 23,11 73,-58l-73 -14c-18,26 -29,25 -29,58z"/>
   <path class="fil1" d="M2035 1476l58 -30 -29 -14c-59,-15 -43,-4 -44,-72l-29 0c0,25 -3,44 4,67l40 49z"/>
   <path class="fil1" d="M2167 1620l29 0c0,-88 8,-43 29,-101l-78 19 20 82z"/>
   <polygon class="fil1" points="2504,1620 2577,1620 2577,1591 2533,1591 2533,1519 2504,1519 "/>
   <path class="fil1" d="M2826 1461l30 0c0,-19 -3,-36 3,-54 2,-3 4,-7 5,-10l21 -37 -78 19c1,3 10,14 11,18 13,31 8,28 8,64z"/>
   <path class="fil1" d="M2211 1476c45,-33 29,-39 29,-116l-29 0 0 116z"/>
   <polygon class="fil1" points="2240,1620 2269,1620 2269,1519 2240,1519 "/>
  </g>
 </g>
</svg>
