<?xml version="1.0" encoding="UTF-8"?>
<!DOCTYPE svg PUBLIC "-//W3C//DTD SVG 1.1//EN" "http://www.w3.org/Graphics/SVG/1.1/DTD/svg11.dtd">
<!-- Creator: CorelDRAW X8 -->
<?xml-stylesheet href="EpicEye.css" type="text/css"?>
<svg xmlns="http://www.w3.org/2000/svg" xml:space="preserve" width="3.06333in" height="1.92666in" version="1.1" style="shape-rendering:geometricPrecision; text-rendering:geometricPrecision; image-rendering:optimizeQuality; fill-rule:evenodd; clip-rule:evenodd"
viewBox="0 0 3063 1927"
 xmlns:xlink="http://www.w3.org/1999/xlink">
 <defs>
   <clipPath id="id0">
    <rect x="520" y="572" width="657" height="263"/>
   </clipPath>
 </defs>
 <g id="Layer_x0020_1">
  <metadata id="CorelCorpID_0Corel-Layer"/>
  <g style="clip-path:url(#id0)">
   <image x="520" y="572" width="657" height="263" xlink:href="EpicEye_Images\EpicEye_ImgID1.png"/>
  </g>
  <g id="_2181894493328">
   <path class="fil0" d="M978 698l31 -7c-5,-19 -10,-15 -15,-29 -16,-37 -3,-65 34,-68l13 -1 6 0c3,-3 2,-8 20,-7 6,1 14,4 18,6 26,15 30,35 26,61 -5,26 -2,21 4,43 0,0 1,3 3,6 14,-5 49,-36 59,-54 -25,-37 -76,-73 -127,-73 -33,0 -54,11 -75,25 -17,12 -41,33 -52,48 10,15 39,42 55,50z"/>
   <path class="fil1" d="M523 618c0,9 -1,10 -3,17 8,2 8,3 17,3 -7,10 -2,4 -14,10 0,56 -15,44 87,44l0 -34 -7 -6c8,-15 -1,-6 10,-10 -7,-11 2,-6 -13,-7 17,-24 1,-20 -30,-20l0 -10 40 0 0 -30 -87 0 0 43z"/>
   <path class="fil1" d="M670 628l0 -16 13 0c0,15 2,15 -13,16zm-43 -6c0,7 -3,7 -7,13 9,4 4,3 17,3l0 7c-14,4 -10,2 -10,47l43 0 0 -27c16,0 24,1 37,-6 16,-9 6,-9 20,-14l0 -13c0,-19 0,-32 -8,-42 -17,-21 -61,-15 -92,-15l0 47z"/>
   <path class="fil1" d="M630 752c13,20 17,8 13,26 14,1 22,4 34,7l-7 10 13 7 0 33 44 0 0 -23c8,-6 3,-4 13,-7 -2,-10 -8,-9 23,-17l-3 -13c13,-7 19,-12 27,-23 -5,-7 -7,-9 -13,-14 -8,-8 -8,-5 -11,-16 -16,1 -19,12 -29,21 -7,6 -7,4 -13,10 -7,5 -7,7 -14,12 -4,-5 -40,-42 -54,-43 -4,16 -10,11 -23,30z"/>
   <path class="fil1" d="M790 635l7 7c0,37 34,54 66,53 17,0 21,-4 30,-10l0 -33c-15,0 -18,3 -27,3 -10,0 -12,-4 -23,-7l7 -9c-6,-4 -4,-3 -13,-4 12,-18 4,-18 17,-22 15,-5 28,1 39,2l0 -37c-6,-3 -13,-5 -21,-6l-23 0c-9,1 -19,4 -27,8 -17,10 -27,37 -32,55z"/>
   <path class="fil1" d="M520 775c5,7 1,4 10,7 -6,27 -7,-2 -7,53l84 0c0,-35 5,-30 -37,-30l0 -10 33 0c4,-12 4,-4 7,-17l-10 0 4 -13 -34 0 0 -13 37 0c0,-38 10,-30 -74,-30 -18,0 -4,16 -13,53z"/>
   <path class="fil1" d="M810 732l0 20 37 0 0 13 -34 0c-2,9 1,3 -3,10 5,7 1,4 10,7 -1,0 -2,0 -2,1 0,4 -3,-1 -5,12l34 0 0 10c-42,0 -37,-5 -37,30l83 0 -6 -57c6,-23 6,12 6,-46 0,-17 -28,-10 -73,-10 -8,0 -10,2 -10,10z"/>
   <path class="fil2" d="M1067 605c5,7 6,4 14,13 3,30 -17,29 -8,64l-35 -1c-3,-9 -1,-8 -7,-13 0,-15 3,-14 3,-26l-12 -6c-1,-30 17,-33 45,-31zm-51 67c3,-1 0,-2 5,2 2,2 4,4 5,5 22,14 21,11 25,19 -15,19 -24,-1 -55,6 -7,-2 -2,-1 -4,4 36,25 80,21 117,0 -6,-11 1,-2 -9,-10 -22,-18 -7,-23 -7,-63 0,-24 -13,-25 -22,-40l-24 -2 -6 0c-10,12 -9,7 -17,13 -22,18 -11,34 -8,66z"/>
   <path class="fil1" d="M790 635c-23,-2 -9,-5 -7,-20 2,-9 0,-30 0,-40l-43 0c0,11 0,22 0,33 0,26 -2,14 -7,30l7 54 43 0c0,-44 -5,-43 10,-47 -2,-9 1,-3 -3,-10z"/>
   <path class="fil3" d="M1022 636l12 6c0,12 -3,11 -3,26 6,5 4,4 7,13l35 1c-9,-35 11,-34 8,-64 -8,-9 -9,-6 -14,-13 -28,-2 -46,1 -45,31z"/>
   <path class="fil4" d="M1109 708c6,-2 4,-1 9,-6 -2,-3 -3,-6 -3,-6 -15,-5 -4,0 -13,-11 -3,-24 5,-41 1,-60 -3,-16 -16,-26 -32,-30 9,15 22,16 22,40 0,40 -15,45 7,63 10,8 3,-1 9,10z"/>
   <path class="fil5" d="M1003 667c7,6 1,2 13,5 -3,-32 -14,-48 8,-66 8,-6 7,-1 17,-13l-13 1c-14,14 -24,9 -32,27 -6,14 2,35 7,46z"/>
   <path class="fil6" d="M1071 595c16,4 29,14 32,30 4,19 -4,36 -1,60 9,11 -2,6 13,11 -6,-22 -9,-17 -4,-43 4,-26 0,-46 -26,-61 -4,-2 -12,-5 -18,-6 -18,-1 -17,4 -20,7l24 2z"/>
   <path class="fil7" d="M978 698c1,5 -7,4 7,4 11,-8 22,-8 36,-8 -3,-14 -9,-14 -18,-27 -5,-11 -13,-32 -7,-46 8,-18 18,-13 32,-27 -37,3 -50,31 -34,68 5,14 10,10 15,29l-31 7z"/>
   <path class="fil8" d="M985 702c3,6 -3,3 7,6 2,-5 -3,-6 4,-4 6,-8 5,-7 17,-6 9,0 12,2 22,1 -4,-15 -3,-5 -9,-20 -1,-1 -3,-3 -5,-5 -5,-4 -2,-3 -5,-2 -12,-3 -6,1 -13,-5 9,13 15,13 18,27 -14,0 -25,0 -36,8z"/>
   <path class="fil9" d="M996 704c31,-7 40,13 55,-6 -4,-8 -3,-5 -25,-19 6,15 5,5 9,20 -10,1 -13,-1 -22,-1 -12,-1 -11,-2 -17,6z"/>
   <path class="fil1" d="M923 802c25,-18 3,-2 20,-10 3,31 7,-7 7,-17 -12,3 -7,4 -17,10 -2,-10 0,-7 -10,-10l0 27z"/>
   <path class="fil1" d="M1050 795c21,14 5,-2 23,7 0,-23 -5,-7 -6,-27l-14 0c0,10 -1,12 -3,20z"/>
   <path class="fil1" d="M943 835l20 0c-1,-4 -3,-9 -3,-10 0,-8 1,-4 3,-13l-20 0 0 23z"/>
   <path class="fil1" d="M1123 782l1 1c0,0 -1,-1 -1,-1zm-6 20c17,-12 19,10 16,-18 -2,-12 -2,-9 -16,-9l0 27z"/>
   <path class="fil1" d="M1090 798c4,2 -3,6 10,-3 6,4 1,3 6,4 9,2 5,-7 2,-12 -4,-12 2,-8 -11,-12 -4,18 -11,15 -7,23z"/>
   <path class="fil1" d="M1167 788l-7 10c13,3 4,3 17,0 0,-4 0,-7 0,-9l0 -3c-1,-2 -2,1 -7,-1l3 -3c2,-3 2,-2 4,-7l-17 0c0,20 -2,10 7,13z"/>
   <path class="fil1" d="M967 825l10 3c-18,0 -7,0 -10,7l16 0c0,-20 2,-10 -6,-13 0,-1 1,-2 1,-2l5 -8 -16 0 0 13z"/>
   <path class="fil1" d="M980 798c9,3 9,6 14,1 2,-2 4,1 3,-7 -2,-14 1,-4 -7,-7l7 -10c-13,0 -18,-1 -15,11 1,4 3,1 0,8l-2 4z"/>
   <path class="fil1" d="M1043 835c21,-5 5,-4 24,0 -5,-20 -8,-21 -17,-23l-7 23z"/>
   <path class="fil1" d="M923 835c20,-7 17,-17 17,-23l-17 0 0 23z"/>
   <path class="fil1" d="M1037 835c3,-12 5,-9 6,-23 -9,3 -4,3 -13,10l0 -10 -10 0c6,13 2,19 17,23z"/>
   <path class="fil1" d="M1013 788l0 7c13,7 10,7 24,3l-17 -6c7,-25 5,2 17,-14l-17 -3c-4,6 -7,6 -7,13z"/>
   <path class="fil1" d="M963 802l14 -7 -7 -3c-13,-4 -10,-1 -10,-17l-7 0c0,6 0,10 1,16l9 11z"/>
   <path class="fil1" d="M993 835l7 0c0,-20 2,-10 7,-23l-18 4 4 19z"/>
   <polygon class="fil1" points="1070,835 1087,835 1087,828 1077,828 1077,812 1070,812 "/>
   <path class="fil1" d="M1143 798l7 0c0,-4 -1,-8 1,-12 0,-1 1,-2 1,-2l5 -9 -18 4c0,1 2,4 2,5 3,7 2,6 2,14z"/>
   <path class="fil1" d="M1003 802c11,-8 7,-9 7,-27l-7 0 0 27z"/>
   <polygon class="fil1" points="1010,835 1017,835 1017,812 1010,812 "/>
  </g>
 </g>
</svg>
