<?xml version="1.0" encoding="UTF-8"?>
<!DOCTYPE svg PUBLIC "-//W3C//DTD SVG 1.1//EN" "http://www.w3.org/Graphics/SVG/1.1/DTD/svg11.dtd">
<!-- Creator: CorelDRAW X8 -->
<?xml-stylesheet href="TourismArmenia.css" type="text/css"?>
<svg xmlns="http://www.w3.org/2000/svg" xml:space="preserve" width="3.06333in" height="1.92666in" version="1.1" style="shape-rendering:geometricPrecision; text-rendering:geometricPrecision; image-rendering:optimizeQuality; fill-rule:evenodd; clip-rule:evenodd"
viewBox="0 0 3063 1927"
 xmlns:xlink="http://www.w3.org/1999/xlink">
 <defs>
   <clipPath id="id0">
    <rect x="25" y="77" width="2977" height="1593"/>
   </clipPath>
 </defs>
 <g id="Layer_x0020_1">
  <metadata id="CorelCorpID_0Corel-Layer"/>
  <g style="clip-path:url(#id0)">
   <image x="25" y="77" width="2977" height="1593" xlink:href="TourismArmenia_Images\TourismArmenia_ImgID1.png"/>
  </g>
  <g id="_2713475943536">
   <path class="fil0" d="M689 1148c26,21 72,39 111,48 51,13 108,-1 153,6 26,-20 26,-15 55,-26 129,-48 215,-189 212,-320 -4,-160 -116,-293 -275,-330 -167,-38 -334,66 -389,207 -31,81 -29,166 -2,249 25,76 78,124 135,166z"/>
   <path class="fil1" d="M598 582c-87,75 -130,81 -121,224 4,69 -1,90 13,153 7,28 16,126 17,152 -21,-55 -17,-78 -22,-152 -3,-61 -22,-101 -31,-163 -25,-163 23,-174 140,-228 2,-2 6,-5 7,-8 0,-2 2,-3 3,-4 18,4 9,0 17,6l-23 20zm6 -26l-30 4c-35,19 -109,38 -131,102 -27,78 0,130 8,204 -36,-47 -62,-71 -39,-159 10,-37 24,-46 37,-73 15,-30 7,-50 29,-81l96 5c16,-24 22,-22 54,-27 -16,10 -6,1 -14,10 -11,10 -5,6 -10,15zm568 686c-23,55 1,75 -32,118 -40,4 -205,-28 -236,-42 75,-2 184,54 234,-11 18,-24 18,-46 33,-59 7,-53 100,-129 130,-172 49,-71 40,-166 37,-262 -3,-87 -25,-172 -67,-230 -23,-32 -44,-58 -73,-79l-88 -63c120,13 116,83 175,152 26,31 45,47 60,99 29,97 60,357 1,419l-174 130zm-55 -770c144,70 203,202 205,359 5,333 -56,189 -170,406 -32,60 -10,112 -180,73 -106,-24 -358,0 -458,-121 -38,-47 -88,-138 -45,-216 12,114 -3,137 72,198 120,98 263,122 415,124 205,3 145,-76 248,-165 33,-28 42,-30 68,-66 86,-117 16,-495 -153,-586 -29,-6 -41,-15 -70,-25 -9,-3 -28,-10 -35,-11 -53,-3 -28,2 -38,15 177,-5 269,160 303,317 16,70 25,219 -14,275 -20,29 -55,52 -77,73 -25,23 -45,66 -70,82l-1 25c-48,30 -36,47 -119,51 -308,13 -348,-84 -420,-98 -34,-17 -13,-9 -35,-29 -22,-21 -18,-9 -36,-42 3,2 6,2 7,6 4,15 29,34 49,46l-1 -11c-20,-25 -26,-10 -41,-62 -10,-33 -9,-68 -8,-104l-21 -79c-4,-23 -4,-68 -2,-88 5,-64 -9,-96 28,-149 31,-45 55,-37 83,-77 7,-16 0,-11 14,-9l23 -22c3,-2 9,-8 12,-11 5,-22 -19,1 24,-28 1,-1 3,-3 4,-4 15,-9 18,-9 35,-15l-14 -8c19,-5 24,-6 41,-14 33,-5 56,-26 108,-27 32,-17 87,-7 128,-7 -50,-25 -147,-2 -198,3 100,-62 300,-12 339,21zm-656 51c96,-11 136,8 209,-53 47,-39 114,-63 194,-62 -115,22 -204,97 -293,131 -54,20 -68,-22 -114,12l4 -28zm-38 88c21,-6 12,15 20,-7 1,18 8,14 -1,31 -9,20 -3,9 -21,15 -38,67 -42,128 -10,196l32 37c10,18 16,29 5,41l-6 16 -19 80 14 -7c1,0 5,-2 7,-4l4 70c0,135 157,201 274,221 35,6 36,2 62,16 -73,7 -169,41 -217,-20 -106,-132 -117,-42 -147,-131 -10,10 -11,-13 -5,15l-3 15c87,80 71,5 136,102 35,52 99,58 171,44 184,-36 305,49 429,33 50,-43 4,-69 40,-118 74,-103 206,-67 205,-274 -1,-122 -6,-298 -88,-390 -30,-33 -40,-67 -68,-102 -17,8 -15,10 -7,-7 -12,-9 -2,-2 -14,-12 -13,-11 1,-1 -14,-12 -15,-11 -18,-12 -32,-18 -29,-13 -239,-43 -262,-42l-77 -1c-34,-3 -69,8 -103,20 -48,18 -45,27 -78,49 -83,56 -110,28 -202,42l-25 102z"/>
   <path class="fil2" d="M530 1343c-96,-5 -128,-5 -132,-104l132 104zm719 -108c103,-19 187,-15 218,-220 56,92 -38,202 -109,219 -76,18 -93,-4 -102,84 -5,44 -19,109 -43,129 -115,25 -251,-76 -351,-31 -47,21 -101,63 -158,57 -74,-8 -56,-79 -106,-101 101,59 156,61 278,17 102,-36 235,57 327,0 47,-40 -15,-79 46,-154zm-919 -177c20,-54 56,-43 80,-89l-34 188c-9,-17 -42,-84 -46,-99zm65 -158c-49,-7 -130,-5 -138,-60 -8,-54 58,-123 58,-123 1,-3 4,-3 5,-5 3,87 50,117 75,188zm-30 -264c33,-114 -21,-94 -16,-149 3,-34 27,-36 55,-27 20,7 55,12 71,19 -173,105 14,16 -110,157zm1061 184c-12,-49 -27,-90 -36,-144 -15,-82 -3,-83 -56,-123 -69,-51 -103,-116 -166,-170 84,21 84,12 111,66 89,177 185,110 164,307 -1,9 -2,32 -3,37 -10,43 -2,11 -14,27zm-518 -421l4 -17c83,-15 121,-102 263,29 14,12 20,21 32,35 17,20 15,13 23,37 -8,17 -10,15 7,7 17,2 15,-16 15,3 73,60 108,90 119,166 26,178 123,328 49,461 -49,88 -65,79 -178,100 -50,44 -28,68 -37,140 -47,56 -155,25 -235,11 -108,-20 -141,43 -249,32 -49,-5 -168,-69 -201,-94 -58,-43 -126,-59 -124,-161 9,39 4,20 19,32 -6,-28 -5,-5 5,-15 -6,-45 3,-83 14,-125 6,27 -1,22 14,39l-4 -70c-2,2 -6,4 -7,4l-14 7c-10,11 -12,-30 -9,13 8,-70 6,-70 -1,-137 5,18 -3,-4 17,24l12 20 6 -16c-7,-35 -23,-48 -37,-78 -37,-71 -60,-122 -1,-192 0,-14 -2,-11 11,-4 18,-6 12,5 21,-15 9,-17 2,-13 1,-31 -8,22 1,1 -20,7l-13 10c-33,37 -30,23 -44,57 -20,46 -15,66 -6,114 -40,-44 -24,-100 9,-137 66,-75 46,-38 60,-134 37,-21 57,-29 116,-32 91,-3 115,-56 141,-78 51,-43 87,-72 148,-69 13,32 14,25 40,46 -28,2 -24,-1 -43,10l77 1zm-241 7c33,-60 70,-136 103,-195 65,26 58,100 99,143 104,10 139,-111 263,-2 -173,-72 -126,23 -263,16l-39 -40c-56,-27 -130,64 -163,78zm-318 37c-60,148 102,44 -62,282 -129,187 40,172 106,194l-1 49c-21,19 -29,24 -49,39 -61,45 -10,83 8,135 45,130 29,196 109,211 66,13 122,12 155,54 34,42 30,99 130,79 58,-12 103,-58 153,-66 51,-7 129,18 177,31 220,57 161,-31 204,-178 14,-24 53,-12 98,-28 92,-33 136,-127 110,-232 -17,-70 -37,-122 -34,-199 3,-67 27,-139 -11,-192 -36,-49 -96,-84 -118,-117 -35,-55 -31,-109 -108,-126 -65,-14 -88,-71 -152,-83 -87,-17 -122,42 -180,44 -48,-42 -42,-120 -104,-144 -40,16 -54,67 -74,109 -129,264 -239,118 -357,138z"/>
   <path class="fil3" d="M740 482c-17,8 -22,9 -41,14l14 8c-17,6 -20,6 -35,15 -1,1 -3,3 -4,4 -43,29 -19,6 -24,28 -7,10 1,3 -16,18 -12,12 -7,5 -19,15 -14,-2 -7,-7 -14,9 -13,33 -12,19 -32,45 -4,6 -25,40 -31,52 -21,39 -35,82 -32,129 -7,53 1,102 4,155 2,-3 6,-10 6,-8 1,2 5,-5 5,-7 8,-31 6,1 -1,-15 9,40 -1,4 10,27 4,10 8,19 12,28 53,107 50,94 133,166 12,23 -32,18 29,18 -3,-3 -6,-14 -7,-11 -1,1 -5,-8 -5,-11l-3 -13c-57,-42 -110,-90 -135,-166 -27,-83 -29,-168 2,-249 55,-141 222,-245 389,-207 159,37 271,170 275,330 3,131 -83,272 -212,320 -29,11 -29,6 -55,26 22,7 20,15 20,-2 -22,12 -26,-1 -17,25l8 -1c119,-23 209,-111 251,-201 66,-142 39,-231 -14,-359l-9 -10c-1,-1 -3,-4 -4,-4 -23,-30 17,30 -6,-10 -4,-4 -5,-4 -12,-14 -25,-34 -18,-44 -78,-64l-6 -18c-82,-32 -105,-55 -215,-61 84,-8 109,-9 179,26 21,5 15,8 15,-14 -66,-28 -84,-37 -168,-31 -41,2 -132,19 -157,18z"/>
   <path class="fil0" d="M415 1180c-15,-12 -10,7 -19,-32 -2,102 66,118 124,161 33,25 152,89 201,94 108,11 141,-52 249,-32 80,14 188,45 235,-11 9,-72 -13,-96 37,-140 113,-21 129,-12 178,-100 74,-133 -23,-283 -49,-461 -11,-76 -46,-106 -119,-166 0,-19 2,-1 -15,-3 28,35 38,69 68,102 82,92 87,268 88,390 1,207 -131,171 -205,274 -36,49 10,75 -40,118 -124,16 -245,-69 -429,-33 -72,14 -136,8 -171,-44 -65,-97 -49,-22 -136,-102l3 -15z"/>
   <path class="fil4" d="M1117 472l2 6c169,91 239,469 153,586 -26,36 -35,38 -68,66 -103,89 -43,168 -248,165 -152,-2 -295,-26 -415,-124 -75,-61 -60,-84 -72,-198 -43,78 7,169 45,216 100,121 352,97 458,121 170,39 148,-13 180,-73 114,-217 175,-73 170,-406 -2,-157 -61,-289 -205,-359z"/>
   <path class="fil5" d="M1249 1235c-61,75 1,114 -46,154 -92,57 -225,-36 -327,0 -122,44 -177,42 -278,-17 50,22 32,93 106,101 57,6 111,-36 158,-57 100,-45 236,56 351,31 24,-20 38,-85 43,-129 9,-88 26,-66 102,-84 71,-17 165,-127 109,-219 -31,205 -115,201 -218,220z"/>
   <path class="fil6" d="M1050 509c20,17 27,20 42,32 35,41 59,56 90,99 6,4 5,2 13,12 14,17 -6,-15 6,12 69,84 99,274 28,382 -17,24 -41,44 -59,66 -48,56 -75,108 -122,122 -31,9 -78,5 -112,3l28 -13 -8 1c-9,-26 -5,-13 17,-25 0,17 2,9 -20,2 -45,-7 -102,7 -153,-6 -39,-9 -85,-27 -111,-48l3 13c0,3 4,12 5,11 1,-3 4,8 7,11 -61,0 -17,5 -29,-18 -35,-21 -70,-29 -96,-57 -22,-24 -37,-66 -42,-107l-21 -14c7,34 15,72 32,101 35,62 186,132 247,142 -68,-11 -156,-53 -233,-78l1 11c30,15 9,2 18,17 87,13 152,68 260,75 49,3 115,2 165,1 73,-2 74,-36 111,-47 25,-39 39,-52 66,-83 92,-104 114,-144 95,-305 -24,-205 -188,-278 -213,-326 0,22 6,19 -15,14z"/>
   <path class="fil0" d="M1171 1248l1 -6 174 -130c59,-62 28,-322 -1,-419 -15,-52 -34,-68 -60,-99 -59,-69 -55,-139 -175,-152l88 63c29,21 50,47 73,79 42,58 64,143 67,230 3,96 12,191 -37,262 -30,43 -123,119 -130,172z"/>
   <path class="fil7" d="M1995 1079l36 0c0,-15 -1,-32 -2,-47 0,-28 -2,-30 10,-42l9 25c2,18 0,18 8,41 13,36 2,17 23,30l36 0 21 -73 19 -24 -1 98 39 -1 -3 -170 -45 0c-27,61 -26,79 -57,126l-45 -125 -49 -1 1 163z"/>
   <path class="fil7" d="M2415 1087l2 -111c17,11 7,3 14,18l47 93 53 -3 -1 -167 -40 -1 -4 108 -61 -108 -47 0 -1 170 38 1z"/>
   <path class="fil8" d="M740 482c25,1 116,-16 157,-18 84,-6 102,3 168,31 25,48 189,121 213,326 19,161 -3,201 -95,305 -27,31 -41,44 -66,83l1 -5c25,-16 45,-59 70,-82 22,-21 57,-44 77,-73 39,-56 30,-205 14,-275 -34,-157 -126,-322 -303,-317 -36,1 -84,-4 -128,-2 -52,1 -75,22 -108,27z"/>
   <path class="fil0" d="M420 1165c30,89 41,-1 147,131 48,61 144,27 217,20 -26,-14 -27,-10 -62,-16 -117,-20 -274,-86 -274,-221 -15,-17 -8,-12 -14,-39 -11,42 -20,80 -14,125z"/>
   <path class="fil5" d="M667 406c33,-14 107,-105 163,-78l39 40c137,7 90,-88 263,-16 -124,-109 -159,12 -263,2 -41,-43 -34,-117 -99,-143 -33,59 -70,135 -103,195z"/>
   <path class="fil5" d="M1426 820c12,-16 4,16 14,-27 1,-5 2,-28 3,-37 21,-197 -75,-130 -164,-307 -27,-54 -27,-45 -111,-66 63,54 97,119 166,170 53,40 41,41 56,123 9,54 24,95 36,144z"/>
   <path class="fil9" d="M2583 814c32,-14 12,-18 18,-116l46 116 28 -1 55 -122c6,61 -8,97 12,123 21,-9 12,15 17,-24l-3 -148c-55,-2 -40,44 -91,145 -50,-74 -22,-145 -89,-146 -5,31 -3,59 -3,90 0,13 -1,29 -1,42 1,40 3,30 11,41z"/>
   <path class="fil0" d="M908 399c23,-1 233,29 262,42 14,6 17,7 32,18 15,11 1,1 14,12 12,10 2,3 14,12 -8,-24 -6,-17 -23,-37 -12,-14 -18,-23 -32,-35 -142,-131 -180,-44 -263,-29l-4 17z"/>
   <path class="fil7" d="M1864 948l32 8c10,20 17,9 -3,31 -11,12 8,12 -32,13 -3,-5 -9,0 -9,-26 1,-46 3,-15 12,-26zm-11 136l3 -57c44,-7 13,-1 25,6l40 47c7,1 17,4 24,2 26,-9 4,4 18,-13 -10,-9 -31,-34 -41,-45 10,-25 2,-10 23,-32l-2 -45c-38,-42 -55,-31 -119,-32l-6 166 35 3z"/>
   <path class="fil4" d="M423 611l25 -102c92,-14 119,14 202,-42 33,-22 30,-31 78,-49 34,-12 69,-23 103,-20 19,-11 15,-8 43,-10 -26,-21 -27,-14 -40,-46 -61,-3 -97,26 -148,69 -26,22 -50,75 -141,78 -59,3 -79,11 -116,32 -14,96 6,59 -60,134 -33,37 -49,93 -9,137 -9,-48 -14,-68 6,-114 14,-34 11,-20 44,-57l13 -10z"/>
   <path class="fil7" d="M2707 965l13 -18 7 16 6 43 -34 0 8 -41zm-74 107c-1,20 16,11 38,10l21 -46 49 -1c26,52 -2,52 61,50l-58 -170 -52 2 -59 155z"/>
   <path class="fil7" d="M1702 960c12,-14 -15,-17 14,-11l5 20 3 36 -33 2 11 -47zm-77 108c0,24 9,15 37,15l19 -47 54 -1 15 52 44 -3 -57 -168 -51 0 -61 152z"/>
   <path class="fil4" d="M964 1224l-28 13c34,2 81,6 112,-3 47,-14 74,-66 122,-122 18,-22 42,-42 59,-66 71,-108 41,-298 -28,-382 53,128 80,217 14,359 -42,90 -132,178 -251,201z"/>
   <path class="fil0" d="M1836 788c49,11 61,4 91,-22 35,-187 -193,-100 -91,22z"/>
   <path class="fil0" d="M395 900c-25,-71 -72,-101 -75,-188 -1,2 -4,2 -5,5 0,0 -66,69 -58,123 8,55 89,53 138,60z"/>
   <path class="fil7" d="M2326 1016l8 -25c-16,0 -62,8 -62,-11l1 -31c95,-6 55,7 70,-17 -9,-15 4,-17 -54,-17 -19,1 -37,1 -57,2l-1 167c34,3 92,12 117,-10 -10,-27 25,-19 -73,-21l-2 -37 53 0z"/>
   <path class="fil9" d="M1836 788c-102,-122 126,-209 91,-22 -30,26 -42,33 -91,22zm4 -142c-113,46 -46,219 74,162 86,-40 46,-211 -74,-162z"/>
   <path class="fil10" d="M507 1111c-1,-26 -10,-124 -17,-152 -14,-63 -9,-84 -13,-153 -9,-143 34,-149 121,-224l-4 -14c-117,54 -165,65 -140,228 9,62 28,102 31,163 5,74 1,97 22,152z"/>
   <path class="fil9" d="M2214 661l57 6 6 39c-22,23 -18,22 -61,20l-2 -65zm-17 153c25,-10 14,23 18,-65 85,-5 30,62 110,65 -15,-30 -25,-41 -45,-67 25,-55 75,-109 -89,-106l-4 132c0,4 0,21 1,24 4,18 2,7 9,17z"/>
   <path class="fil4" d="M1118 1204l-1 5c-37,11 -38,45 -111,47 -50,1 -116,2 -165,-1 -108,-7 -173,-62 -260,-75l-3 2c72,14 112,111 420,98 83,-4 71,-21 119,-51l1 -25z"/>
   <path class="fil9" d="M2121 642c-32,63 42,174 -83,146 -27,-48 -10,-66 -14,-117 -3,-42 1,-24 -20,-30 0,1 -54,181 67,176 78,-3 70,-60 70,-129 0,-43 8,-39 -20,-46z"/>
   <path class="fil4" d="M574 560l0 -2 -96 -5c-22,31 -14,51 -29,81 -13,27 -27,36 -37,73 -23,88 3,112 39,159 -8,-74 -35,-126 -8,-204 22,-64 96,-83 131,-102z"/>
   <path class="fil5" d="M365 636c124,-141 -63,-52 110,-157 -16,-7 -51,-12 -71,-19 -28,-9 -52,-7 -55,27 -5,55 49,35 16,149z"/>
   <path class="fil9" d="M2429 672l2 36c34,33 80,18 76,73 -37,24 -40,6 -81,10 1,2 -13,32 56,26 53,-5 86,-63 19,-97 -35,-18 -44,-9 -44,-48 26,-16 6,-7 33,-10 30,-2 10,9 35,-7 -2,-3 8,-23 -51,-16 -25,4 -32,14 -45,33z"/>
   <path class="fil10" d="M461 523l-4 28c46,-34 60,8 114,-12 89,-34 178,-109 293,-131 -80,-1 -147,23 -194,62 -73,61 -113,42 -209,53z"/>
   <path class="fil7" d="M2572 916c-3,31 -2,60 -2,91 0,92 0,64 13,79l16 0c24,-31 14,-132 11,-170l-38 0z"/>
   <path class="fil11" d="M1626 647c10,20 -9,9 17,15 3,1 30,2 39,3 1,25 1,49 1,74 -1,62 -7,54 11,75 17,-9 15,21 14,-66 0,-29 0,-58 1,-86 35,0 47,10 57,-15 -29,-15 -112,-12 -140,0z"/>
   <path class="fil5" d="M330 1058c4,15 37,82 46,99l34 -188c-24,46 -60,35 -80,89z"/>
   <path class="fil12" d="M562 1152c77,25 165,67 233,78 -61,-10 -212,-80 -247,-142 -17,-29 -25,-67 -32,-101l-3 -1c-1,36 -2,71 8,104 15,52 21,37 41,62z"/>
   <path class="fil13" d="M848 455c44,-2 92,3 128,2 10,-13 -15,-18 38,-15 7,1 26,8 35,11 29,10 41,19 70,25l-2 -6c-39,-33 -239,-83 -339,-21 51,-5 148,-28 198,-3 -41,0 -96,-10 -128,7z"/>
   <path class="fil0" d="M530 1343l-132 -104c4,99 36,99 132,104z"/>
   <path class="fil14" d="M1172 1242l-1 6c-15,13 -15,35 -33,59 -50,65 -159,9 -234,11 31,14 196,46 236,42 33,-43 9,-63 32,-118z"/>
   <path class="fil9" d="M2381 813c16,-27 17,-143 0,-171 -24,6 -20,-22 -20,80 0,17 -1,35 0,51 0,51 -5,33 20,40z"/>
   <path class="fil4" d="M490 819l16 0c-3,-47 11,-90 32,-129 6,-12 27,-46 31,-52 20,-26 19,-12 32,-45 -28,40 -52,32 -83,77 -37,53 -23,85 -28,149z"/>
   <path class="fil15" d="M2216 726c43,2 39,3 61,-20l-6 -39 -57 -6 2 65z"/>
   <path class="fil16" d="M675 1165c-83,-72 -80,-59 -133,-166l-5 2c5,41 20,83 42,107 26,28 61,36 96,57z"/>
   <path class="fil17" d="M1086 544l6 -3c-15,-12 -22,-15 -42,-32 -70,-35 -95,-34 -179,-26 110,6 133,29 215,61z"/>
   <path class="fil18" d="M513 986l3 1 21 14 5 -2c-4,-9 -8,-18 -12,-28 -11,-23 -1,13 -10,-27 7,16 9,-16 1,15 0,2 -4,9 -5,7 0,-2 -4,5 -6,8 -3,-53 -11,-102 -4,-155l-16 0c-2,20 -2,65 2,88l21 79z"/>
   <path class="fil10" d="M411 846c-32,-68 -28,-129 10,-196 -13,-7 -11,-10 -11,4 -59,70 -36,121 1,192z"/>
   <path class="fil19" d="M423 1020l19 -80 -12 -20c-20,-28 -12,-6 -17,-24 7,67 9,67 1,137 -3,-43 -1,-2 9,-13z"/>
   <path class="fil20" d="M1853 1084l-35 -3 6 -166c-14,14 -11,-21 -14,25l6 146c28,5 18,6 37,-2z"/>
   <path class="fil21" d="M1893 987c20,-22 13,-11 3,-31l-32 -8 -3 48 32 -9z"/>
   <path class="fil22" d="M1995 1079c13,9 -1,4 18,9 8,2 13,-1 23,-1l1 -55 11 -17 -9 -25c-12,12 -10,14 -10,42 1,15 2,32 2,47l-36 0z"/>
   <polygon class="fil23" points="2727,963 2707,965 2699,1006 2733,1006 "/>
   <polygon class="fil24" points="1721,969 1702,960 1691,1007 1724,1005 "/>
   <path class="fil25" d="M2136 1013c18,16 7,24 12,61 1,2 3,8 3,6 0,-1 2,5 3,7l1 -98 -19 24z"/>
   <path class="fil26" d="M2326 1016c16,-12 15,20 14,-25 -24,-13 -37,-8 -68,-11 0,19 46,11 62,11l-8 25z"/>
   <path class="fil27" d="M2415 1087c1,-3 3,-5 4,-7l5 -22c2,-27 -10,-54 7,-64 -7,-15 3,-7 -14,-18l-2 111z"/>
   <path class="fil28" d="M1893 987l-32 9 3 -48c-9,11 -11,-20 -12,26 0,26 6,21 9,26 40,-1 21,-1 32,-13z"/>
   <path class="fil29" d="M574 558l0 2 30 -4c5,-9 -1,-5 10,-15 8,-9 -2,0 14,-10 -32,5 -38,3 -54,27z"/>
   <path class="fil30" d="M1921 1080c11,9 -9,6 24,11 1,0 24,0 27,0 9,-43 5,-8 -9,-22 -14,17 8,4 -18,13 -7,2 -17,-1 -24,-2z"/>
   <path class="fil10" d="M448 924c11,-12 5,-23 -5,-41l-32 -37c14,30 30,43 37,78z"/>
   <path class="fil31" d="M578 1182l3 -2c-9,-15 12,-2 -18,-17 -20,-12 -45,-31 -49,-46 -1,-4 -4,-4 -7,-6 18,33 14,21 36,42 22,20 1,12 35,29z"/>
   <path class="fil32" d="M1853 1084c1,-2 3,-6 3,-5l5 -30c6,-24 -4,-9 20,-16 -12,-7 19,-13 -25,-6l-3 57z"/>
   <path class="fil33" d="M594 568l4 14 23 -20c-8,-6 1,-2 -17,-6 -1,1 -3,2 -3,4 -1,3 -5,6 -7,8z"/>
   <path class="fil28" d="M2671 1082c-22,1 -39,10 -38,-10 -7,13 -14,-17 -5,16 13,3 6,5 22,3 18,-1 13,-4 21,-9z"/>
   <path class="fil34" d="M1662 1083c-28,0 -37,9 -37,-15 -6,17 -15,-21 -4,20 11,2 9,4 22,2 16,-1 10,-3 19,-7z"/>
   <path class="fil35" d="M1182 640c-31,-43 -55,-58 -90,-99l-6 3 6 18c60,20 53,30 78,64 7,10 8,10 12,14z"/>
   <path class="fil34" d="M1721 969l-5 -20c-29,-6 -2,-3 -14,11l19 9z"/>
   <polygon class="fil32" points="2707,965 2727,963 2720,947 "/>
   <path class="fil31" d="M615 584c12,-10 7,-3 19,-15 17,-15 9,-8 16,-18 -3,3 -9,9 -12,11l-23 22z"/>
   <path class="fil36" d="M1201 664c-12,-27 8,5 -6,-12 -8,-10 -7,-8 -13,-12 23,40 -17,-20 6,10 1,0 3,3 4,4l9 10z"/>
  </g>
 </g>
</svg>
