<?xml version="1.0" encoding="UTF-8"?>
<!DOCTYPE svg PUBLIC "-//W3C//DTD SVG 1.1//EN" "http://www.w3.org/Graphics/SVG/1.1/DTD/svg11.dtd">
<!-- Creator: CorelDRAW X8 -->
<svg xmlns="http://www.w3.org/2000/svg" xml:space="preserve" width="472px" height="298px" version="1.1" style="shape-rendering:geometricPrecision; text-rendering:geometricPrecision; image-rendering:optimizeQuality; fill-rule:evenodd; clip-rule:evenodd"
viewBox="0 0 472 298"
 xmlns:xlink="http://www.w3.org/1999/xlink">
 <defs>
  <style type="text/css">
   <![CDATA[
    .fil0 {fill:#3E4093}
   ]]>
  </style>
 </defs>
 <g id="Layer_x0020_1">
  <metadata id="CorelCorpID_0Corel-Layer"/>
  <path class="fil0" d="M186 226c-3,0 -25,-15 -33,-19 -1,-1 -2,-1 -2,-1 -2,2 -5,4 -7,7l-18 22c-2,2 -15,17 -15,18 0,1 0,2 0,2 2,0 9,-7 11,-9l5 -4c0,-1 0,-1 1,-2l10 -9c2,-2 12,-12 14,-12 1,0 6,3 7,5l8 5c1,2 3,3 4,4 4,3 7,5 10,8 4,2 7,5 11,7 2,-3 5,-7 8,-10 5,-6 10,-12 15,-18 6,-8 13,-15 19,-23l4 -5c4,-4 19,-23 22,-25 1,2 2,3 4,5 8,11 15,22 23,33l11 17c3,4 6,8 8,12 2,2 15,21 15,23 -9,0 -19,-1 -28,-2 -4,0 -9,-1 -13,-1 -6,-1 -23,-1 -29,-1 -10,0 -21,1 -32,1 -4,0 -20,1 -24,2l-13 2c-22,3 -43,11 -64,18 -1,1 -4,1 -5,2 0,3 0,8 1,10 14,-3 30,-8 43,-10 6,-1 12,-2 18,-2 4,-1 8,-1 12,-1 1,0 2,0 3,0 17,-2 48,-1 62,1 12,2 23,3 34,6 18,3 30,8 46,12l12 3c1,1 3,1 4,1 4,-5 13,-21 13,-25 0,-4 -6,-10 -8,-13 -6,-6 -11,-13 -16,-19 -5,-5 -9,-11 -13,-16l-54 -70c-2,-3 -4,-7 -6,-8 -5,-4 -10,4 -13,7 -1,1 -1,1 -1,1 0,0 0,0 0,0l-34 38c-3,3 -6,7 -9,10l-9 10c-1,1 -2,2 -3,3l-6 8c-1,0 -2,2 -3,2zm166 -184c0,2 1,4 2,4l2 3 -6 9c-3,-4 -2,-5 1,-10 -2,-1 -4,-3 -5,-4 -1,2 -10,10 2,20 16,14 31,-7 17,-16 1,-1 2,-3 3,-4 1,-1 2,-2 2,-4 -3,0 -10,-8 -16,-3 -1,1 -2,3 -2,5zm3 20l7 -9c4,3 1,12 -7,9zm6 -21l-1 3c-3,-2 -2,-4 1,-3zm92 162c0,3 0,7 0,10 1,7 0,8 -4,8 -3,0 -6,-11 1,-11 0,-3 0,-4 0,-7 -15,1 -13,25 0,25 3,0 6,-2 7,-4 3,1 1,2 7,2 4,0 8,-5 8,-10 0,-6 -4,-11 -9,-11 -2,0 -3,0 -4,1l0 -3 -6 0zm10 8c2,0 3,2 3,4 0,2 -1,4 -3,4 -2,0 -4,-2 -4,-4 0,-2 2,-4 4,-4zm-58 57c3,0 4,0 7,-2 4,-2 6,-8 6,-12 -1,-4 -2,-6 -5,-8 -4,-3 -14,-4 -18,1 -1,1 -2,2 -3,4 0,1 -1,4 -1,5 1,7 7,12 14,12zm8 -12c-1,4 -4,6 -9,6 -4,0 -8,-3 -7,-7 0,-4 3,-6 8,-6 4,0 8,4 8,7zm-257 -179c0,4 1,8 3,10 7,10 22,4 22,-6 0,-7 -5,-15 -12,-15 -4,0 -7,1 -10,3 -1,2 -3,5 -3,8zm8 -5c4,-2 8,0 10,3 2,4 1,9 -2,11 -3,2 -7,0 -9,-4 -2,-3 -2,-8 1,-10zm-18 -49c0,2 0,2 1,4 1,-1 4,-1 6,-2 -2,-5 4,-7 6,-5 0,1 1,2 1,2 0,4 -4,4 -6,5 -2,1 -3,1 -5,2 -1,0 -2,1 -4,1 0,1 2,5 2,6l7 -2c3,-1 12,-6 12,0 0,5 -10,8 -11,2 -2,1 -5,2 -6,2 0,7 11,11 19,4l1 -1c0,0 0,0 0,0 4,-3 5,-9 1,-13 -1,-1 -2,-3 -4,-3 0,-1 2,-5 -2,-9 -7,-6 -18,0 -18,7zm-134 257c0,-2 1,-4 3,-4 0,-2 -2,-4 -2,-6 -11,2 -8,17 -2,21 4,3 12,2 14,-8 0,-3 -1,-6 0,-8 1,-5 7,-3 7,4 0,3 -2,5 -4,5 1,2 1,4 2,6 2,-1 3,0 6,-3 4,-5 3,-13 -1,-17 -5,-7 -17,-6 -17,7 0,3 0,8 -2,9 -2,1 -4,-3 -4,-6zm339 -154c1,1 2,2 3,3l5 5c10,9 21,-5 21,-10 0,-5 -2,-5 -6,-11 0,0 -1,-1 -1,-1 -1,-1 -3,-3 -3,-3 -1,1 -1,1 -2,2l-5 4c-1,1 -1,1 -2,2l-10 9zm10 3l-2 -3 11 -10 3 4c5,5 -5,16 -12,9zm-320 -29l18 12c2,2 2,6 0,8 -2,1 -5,1 -7,0 -1,0 -2,-1 -2,-1l-15 -10c-1,2 -3,4 -4,6 2,0 1,0 2,0l9 7c4,2 7,5 13,5 6,0 12,-5 12,-11 0,-6 -2,-8 -7,-12 -1,-1 -9,-5 -10,-7l3 -3c-2,-2 -4,-3 -6,-4 -1,3 -5,8 -6,10zm394 179c-1,1 -3,2 -4,3 0,2 2,3 3,6 1,0 4,-2 5,-3 5,3 6,3 12,4 4,1 8,2 12,3 1,-2 2,-5 2,-6l-17 -5c-2,0 -7,-1 -7,-5 0,-4 3,-6 6,-6 2,0 3,1 5,1 2,1 3,1 5,2 4,1 7,1 11,2 0,-2 1,-4 1,-6l-10 -3c-8,-1 -16,-5 -22,3 -2,2 -3,7 -2,10zm-310 -252l8 14c1,3 4,7 1,10 -2,3 -6,3 -9,-1l-3 -6c-1,-2 -6,-10 -6,-12 -2,1 -5,3 -6,4l4 6c1,3 2,5 3,7 2,3 3,5 5,7 5,4 13,4 18,-3 2,0 4,1 6,2 0,-3 1,-5 1,-7 -1,-1 -4,-1 -5,-2 0,-4 -3,-8 -5,-11 -1,-2 -2,-4 -3,-5l-3 -6c-2,0 -2,1 -3,1 -1,1 -2,1 -3,2zm310 156c0,4 1,6 3,9 -1,1 -3,3 -3,5 2,1 4,2 6,3 1,-1 1,-1 1,-2 1,-1 1,-2 2,-3 5,0 2,1 9,-1 2,0 3,0 5,-1l11 -2c0,-2 -1,-5 -1,-7l-11 3c-6,1 -11,3 -15,0 -1,-1 -1,-2 -1,-4 0,-5 10,-6 17,-7 2,-1 5,-2 7,-2 0,-3 -1,-4 -1,-7 -2,1 -20,4 -23,6 -1,0 -2,2 -3,2 -1,2 -3,5 -3,8zm-211 -183c0,2 0,2 0,4l1 12c0,2 1,5 0,7 -2,5 -8,5 -10,1 -1,-2 -2,-21 -2,-23 -2,0 -5,1 -6,1 0,3 0,6 0,10 1,6 0,13 4,17 7,7 15,2 16,2 1,0 2,3 4,3 1,-2 3,-3 4,-5 0,-1 -1,-1 -2,-2 -1,-1 -1,-1 -2,-2 1,-6 1,-4 0,-12l0 -13 -7 0zm57 37l6 0 2 4c2,-1 5,-3 6,-3 0,-1 -3,-5 -3,-6 0,0 2,-3 3,-5l3 -15c0,-2 1,-3 1,-4 -1,0 -6,-1 -7,-1 0,3 -4,19 -5,21 -1,2 -3,3 -5,3 -7,-2 -4,-8 -3,-12l3 -15c-2,0 -5,-1 -6,-1l-4 15c-1,6 -2,9 2,14 1,2 4,5 7,5zm12 34c0,2 -1,6 -1,8 -1,2 -2,5 -2,7 0,1 4,2 5,2 0,-2 1,-4 1,-6l3 -12c1,-2 2,-5 2,-6l-8 -3c0,2 -1,2 -1,4l-6 10 -1 -12c1,-6 -2,-3 -7,-6 -1,2 -1,4 -2,6 -1,3 -1,4 -2,7 0,2 -1,4 -1,6 -1,2 -1,4 -1,6 1,0 3,1 4,1 1,-1 1,-3 1,-4 1,-2 3,-10 4,-11 0,5 -1,10 -1,16 1,0 4,1 6,1l7 -14zm-225 156l-16 3c0,3 0,5 0,8l25 1 0 -5 -16 -1 13 -2c4,-1 4,0 4,-6 0,-1 -6,-2 -8,-3l-8 -2c6,0 10,0 16,0 0,-2 0,-2 0,-5 -8,0 -16,-1 -25,-1l0 7c0,1 0,1 4,2l9 3c1,0 1,0 2,1zm-49 -89c0,4 0,6 4,9 1,2 1,2 2,3 1,0 3,1 4,1 0,-2 1,-5 1,-7 -7,0 -5,-11 1,-11 2,0 6,2 7,4l1 1c0,0 1,0 1,1 3,2 4,7 2,11 -1,-1 -1,-1 -2,-1l-3 6 8 3c0,-1 1,-4 2,-5l6 -14c1,-1 1,-2 2,-3 -2,-1 -4,-2 -6,-2 0,1 -2,4 -3,5 0,-5 -13,-19 -23,-9 -1,2 -4,5 -4,8zm353 -61c0,3 1,6 3,8 5,5 14,5 18,0 1,-1 2,-2 3,-3 -1,-1 -4,-4 -5,-4 -3,2 -2,4 -8,4 -2,0 -4,-2 -4,-5 0,-4 5,-6 6,-9 1,1 5,5 7,6 1,1 2,2 3,3 1,2 2,3 4,4 1,-1 3,-4 4,-5 -2,-1 -5,-5 -7,-6l-7 -6 4 -5c-1,-1 -3,-4 -5,-5 -1,2 -3,4 -4,5 -4,5 -12,11 -12,18zm52 61c5,0 6,-1 10,-4 0,-1 -1,-2 -1,-3 -1,-1 -2,-2 -2,-3 -1,1 -2,1 -3,2 -4,3 -9,1 -9,-4 0,-3 2,-4 3,-5 1,-1 4,-3 6,-3 1,1 9,14 9,16 2,-1 4,-2 5,-3 0,-2 -6,-10 -7,-12 0,-1 -2,-3 -2,-5 1,0 4,-2 6,-3l-4 -5c-1,0 -9,5 -10,6 -3,2 -8,4 -10,7 -7,9 0,19 9,19zm-424 109c0,5 0,7 4,10 5,5 11,3 19,3l10 -1c0,-2 -1,-5 -1,-7 -7,0 -22,4 -25,0 -2,-3 -1,-6 2,-8 2,-1 12,-1 15,-2 2,0 5,0 7,0l0 -7c-1,1 -17,1 -20,2 -4,0 -8,3 -9,6 -1,1 -2,3 -2,4zm388 -61c1,-1 7,-8 7,-11 1,0 6,6 11,1 4,-4 2,-8 0,-12 -1,-2 -3,-6 -3,-8 -2,0 -12,5 -15,6 -3,1 -6,2 -9,3 1,2 2,4 2,5 2,0 3,-1 5,-2 1,0 4,-1 5,-1 1,2 1,3 0,5l-4 6c-2,3 -1,5 1,8zm10 -16l-3 -5 5 -2 3 6c1,3 -3,5 -5,1zm-329 81c-3,-2 -1,-4 -9,-4 -2,0 -5,2 -5,7 0,2 0,5 1,7 0,3 1,5 1,7 3,0 7,-1 10,-1l12 -2c2,-1 2,0 3,-1 0,-1 -1,-5 -1,-5 -1,-1 -8,1 -10,1 -1,-3 0,-4 3,-7 1,-1 1,-2 2,-3 1,0 2,-1 3,-2 0,-1 -1,-4 -1,-6 -1,0 -2,1 -3,2 -1,1 -1,1 -2,2 -2,1 -4,3 -4,5zm-4 4l1 6 -6 1 0 -7c0,-3 5,-4 5,0zm146 -201l2 22c0,1 0,2 0,3l6 0c0,-2 -1,-3 -1,-5 0,-2 0,-4 0,-5 4,0 4,0 7,4 1,2 3,3 4,5 2,0 4,0 7,0 -1,-1 -5,-7 -6,-9l-2 -1c-1,0 -1,0 -1,-1 8,-2 6,-13 -1,-13l-15 0zm13 10l-6 0 -1 -5 7 -1c3,0 4,5 0,6zm81 -48c1,1 2,1 3,1 -1,3 -5,14 -5,17 0,13 15,16 21,8 1,-1 2,-2 2,-4 1,-1 1,-3 2,-5 -2,0 -4,-1 -7,-2l-2 6c-3,6 -10,3 -10,-1 0,-5 7,-18 7,-22 -1,0 -3,-1 -4,-2 -2,0 -4,-1 -5,-1 -1,1 -2,4 -2,5zm95 71c1,1 4,4 4,5 4,-2 5,-4 9,-4 2,0 8,4 1,10l-14 12 4 5c1,0 3,-2 4,-3 1,0 0,0 1,-1 1,1 2,3 3,4l5 -4c-1,-1 -2,-2 -3,-3 1,-2 4,-4 6,-6 8,-8 1,-20 -7,-20 -8,0 -7,1 -13,5zm-227 -79c1,3 1,6 2,10 1,5 2,8 7,11 1,1 2,1 4,1 5,1 6,-1 9,-3 0,1 1,7 1,8 1,0 6,-1 7,-1 0,-2 -2,-9 -2,-11 -1,-3 -3,-10 -3,-12 -3,0 -4,1 -6,1 0,3 2,7 -1,11 -3,3 -6,1 -8,-2 -1,-2 -1,-4 -2,-7 -2,-9 0,-7 -4,-6 -1,0 -3,0 -4,0zm-157 165c-3,0 -6,-2 -8,-2 -1,1 -2,6 -2,7 2,0 16,4 18,5l12 3 2 -6c-3,-1 -12,-3 -14,-5 -4,-2 -3,-9 2,-9 5,0 5,1 8,1 0,-1 1,-5 2,-6 -6,-2 -14,-2 -18,3 -1,1 -2,2 -2,4 -1,1 -1,4 0,5zm48 -88c-1,-1 -3,-2 -4,-3 -1,-1 -1,-1 -3,-2 -1,1 -3,3 -4,4 1,2 2,2 3,3l10 9c1,1 1,1 1,2 1,1 2,1 3,2l6 6c1,-2 3,-4 4,-5 -1,-2 -4,-4 -6,-6 -2,-3 -5,-3 -5,-8 0,-3 4,-5 7,-4 2,1 4,3 6,5 1,0 4,-4 4,-5 0,-2 -10,-11 -19,-4 -2,2 -2,3 -3,6zm177 -72c0,7 5,12 10,12 6,0 4,-1 6,-1 0,2 -1,6 -1,8 3,0 4,1 7,1 1,-3 1,-6 1,-9 0,-1 0,-1 0,-3 0,-4 1,-7 1,-12 -3,0 -4,0 -7,0 0,1 0,6 -1,7 -2,6 -10,4 -10,-4l1 -9c0,-1 0,-1 0,-3l-7 0c0,5 0,8 0,13zm199 225l0 2c1,0 2,0 3,0 5,0 15,0 15,6 0,7 -9,5 -11,5 -1,1 -1,1 -1,3 0,2 0,2 0,4l6 0c6,0 12,-5 12,-10 0,-4 0,-3 -1,-7 3,0 6,1 8,1 0,-2 1,-5 1,-7 -3,0 -5,0 -8,0 -5,0 -18,-2 -23,-2 0,2 -1,3 -1,5zm-53 36c3,1 5,2 7,3 2,0 6,2 7,2 -1,1 -3,1 -5,2l-12 2c-1,0 -2,4 -2,5 2,1 4,1 6,2 2,1 4,2 6,2l11 5c1,-2 2,-4 2,-5l-12 -5c-1,0 -1,0 -2,-1 2,0 9,-1 12,-2 0,0 5,-1 5,-1 1,-1 2,-4 2,-5l-8 -3c-3,-1 -13,-5 -15,-6 0,2 -2,3 -2,5zm-282 -168c1,1 9,9 10,11 -2,0 -15,-4 -17,-4 -1,0 -3,3 -3,3 0,1 0,2 1,3 4,3 14,14 16,15l4 -3c-1,-1 -1,0 -1,-1l-4 -5c-2,-1 -5,-4 -5,-5 1,0 15,4 16,4 1,0 4,-3 4,-4l-17 -17c-1,0 -2,1 -2,1 -1,1 -1,2 -2,2zm-40 60l11 3c1,1 2,1 3,2l-17 4c-1,1 0,0 -1,2 0,2 -1,2 -1,3 3,0 22,7 24,7 0,-1 1,-4 2,-5l-14 -4c0,0 0,0 0,0 0,0 -1,0 -1,0 2,0 3,-1 4,-1l13 -3c1,-2 2,-4 2,-6 -2,0 -10,-3 -12,-3 -2,-1 -10,-4 -12,-4 0,2 -1,3 -1,5zm358 -18l2 6c2,0 4,-2 5,-2 4,-2 15,-6 16,-6 6,0 9,9 -2,12l2 6c2,0 7,-3 8,-4 8,-8 1,-20 -7,-20 -6,0 -7,1 -13,3l-11 5zm-422 52c0,4 1,6 4,8 4,5 10,4 17,5 3,0 6,1 10,1 0,-2 0,-4 0,-6l-14 -2c-4,-1 -10,0 -10,-6 0,-7 8,-5 10,-5 0,-2 1,-4 1,-6 -4,-1 -9,-1 -12,1 -3,2 -6,5 -6,10zm85 -148c0,2 1,2 1,3 1,0 2,1 2,2l7 -5c3,-2 5,0 5,1 1,2 -1,3 -2,4 -2,2 -4,4 -6,5 1,1 3,4 4,5 1,-1 1,-1 2,-2 8,-7 8,-7 16,4 2,0 4,-3 5,-3 0,-2 0,-1 -1,-2 0,-1 -1,-1 -1,-2 -4,-5 -5,-8 -11,-8 0,-1 1,-2 0,-5 -2,-3 -6,-5 -10,-4 -3,0 -6,3 -8,5l-3 2zm302 134l0 1c0,1 1,4 1,5 1,0 2,0 6,0 1,2 2,7 3,10 -2,1 -4,2 -5,3 0,2 1,4 1,5 2,0 4,-2 6,-3l10 -8c2,-1 5,-4 6,-4 -1,-2 -1,-5 -2,-6 -2,0 -4,0 -6,-1l-20 -2zm20 7l-6 5 -2 -5 8 0zm-353 12c1,0 10,2 12,3l12 2 3 -14c0,-1 1,-3 1,-5 -2,0 -3,0 -5,0 0,0 -2,11 -3,13 -2,0 -3,-1 -5,-1l2 -12c-1,-1 -3,-1 -5,-1 0,2 -2,8 -2,12 -1,-1 -4,-1 -5,-2 0,-2 3,-9 3,-12 -1,-1 -4,-1 -5,-1 0,3 -3,15 -3,18zm279 -94c3,1 13,11 15,11 0,-1 0,-1 1,-2 1,0 1,-1 2,-1 -4,-3 -7,-6 -11,-9 1,-1 1,-1 2,-2 1,-1 1,-1 2,-2 0,0 4,2 4,3l5 4c2,-1 2,-2 3,-3 0,-1 -8,-8 -9,-8 0,-1 2,-3 3,-4 1,1 8,7 10,8 1,0 3,-3 3,-4 -1,0 -2,-1 -4,-2l-7 -6c-1,-1 -2,-2 -4,-3l-13 17c-1,1 -2,1 -2,3zm-272 172c0,2 1,5 2,6 8,0 18,2 26,2 -1,-5 -1,-6 -2,-6 -2,0 -4,0 -5,0 -1,-2 -1,-3 -2,-5 0,-1 -1,-3 -1,-4 1,-1 4,-3 4,-4 0,-2 -1,-3 -1,-5 -1,0 -7,5 -8,6l-11 8c0,1 -2,2 -2,2zm8 1l6 -5 1 5 -7 0zm298 -139l8 14c1,1 1,1 1,2 2,0 3,-1 4,-2 0,-3 -6,-10 -6,-12 1,0 4,-2 5,-3 0,1 2,4 3,5 1,2 3,4 3,6 1,-1 1,-1 2,-1 1,-1 1,-1 2,-1 0,-3 -6,-9 -6,-12 1,0 3,-1 4,-2 1,2 3,5 4,6 1,2 2,4 3,6 1,-1 3,-2 4,-3 -1,-1 -2,-2 -2,-4 -2,-2 -7,-10 -7,-12 -2,1 -18,11 -22,13zm-287 -10c5,8 10,15 15,22 1,-1 3,-3 3,-5 -1,-1 -2,-3 -3,-4 0,-1 0,-1 1,-1 0,-1 0,-1 0,-1l4 -6c5,0 4,3 8,-1 0,-1 1,-2 1,-3l-26 -6 -3 5zm7 2l8 2 -3 4 -5 -6zm162 -77c0,10 13,7 13,13 0,2 -6,3 -8,1 -1,-1 -1,-3 -2,-4l-5 0c0,12 14,11 18,8 3,-3 4,-10 -3,-13 -3,-1 -8,-2 -8,-5 0,-2 6,-2 7,0 1,1 1,2 1,3 1,0 2,0 3,0 2,0 1,0 3,0 0,-7 -5,-9 -12,-9 -3,0 -7,3 -7,6zm-53 -3c0,7 7,18 2,20 -1,1 -3,1 -4,1 -3,0 -3,-3 -4,-5 -1,-5 -2,-10 -3,-14 -1,0 -4,1 -5,1 1,4 3,17 5,20 4,7 18,2 18,-4 0,-9 -3,-16 -3,-20 -2,0 -4,1 -6,1zm119 42l5 2c1,-1 5,-7 5,-8 2,0 7,5 9,5 1,-2 2,-2 2,-4 -1,-1 -7,-4 -8,-5 0,-2 1,-3 2,-5 2,1 9,6 11,7 0,-1 1,-4 2,-5 -3,-1 -13,-8 -15,-8l-10 15c-1,2 -2,4 -3,6zm-309 123c0,2 -3,1 -7,1l0 6c4,0 8,0 12,0l19 0 0 -6c-3,0 -5,0 -8,0l-10 0 0 -5c0,-2 0,-1 0,-1l-6 0 0 5zm123 -137c1,1 2,3 3,4 1,0 2,-1 3,-2 1,0 2,-1 3,-2 1,2 9,14 11,17 1,0 3,-2 4,-2 0,-2 -1,-3 -2,-5l-5 -8c-1,-1 -3,-3 -3,-5l6 -3c-1,-2 -2,-3 -2,-4 -2,0 -15,9 -18,10zm283 122c0,2 0,5 1,7l-13 1c-9,2 -8,1 -7,4 0,1 0,2 0,3 3,-1 7,-1 10,-1 3,-1 7,-1 10,-2 0,3 1,5 1,7 2,0 3,0 5,0l-3 -20c-2,0 -2,1 -4,1zm-175 -129l6 0c0,-2 0,-4 0,-6 -1,-2 0,-4 0,-6 0,-5 0,-8 0,-13 -7,0 -6,-1 -6,6l0 13c0,2 0,4 0,6zm-167 75l11 5c1,1 10,6 11,6l3 -5c-2,0 -6,-3 -9,-4l-8 -4c-1,-1 -4,-3 -6,-3 0,1 -2,3 -2,5zm323 85l25 0 0 -6 -25 0 0 6z"/>
 </g>
</svg>
