<?xml version="1.0" encoding="UTF-8"?>
<!DOCTYPE svg PUBLIC "-//W3C//DTD SVG 1.1//EN" "http://www.w3.org/Graphics/SVG/1.1/DTD/svg11.dtd">
<!-- Creator: CorelDRAW X8 -->
<svg xmlns="http://www.w3.org/2000/svg" xml:space="preserve" width="870px" height="432px" version="1.1" style="shape-rendering:geometricPrecision; text-rendering:geometricPrecision; image-rendering:optimizeQuality; fill-rule:evenodd; clip-rule:evenodd"
viewBox="0 0 354 176"
 xmlns:xlink="http://www.w3.org/1999/xlink">
 <defs>
  <style type="text/css">
   <![CDATA[
    .str0 {stroke:#CF8C06;stroke-width:1.89064}
    .str1 {stroke:#E7B00D;stroke-width:1.89064}
    .str2 {stroke:#F3CD10;stroke-width:1.89064}
    .str4 {stroke:#F7DD4D;stroke-width:1.89064}
    .str3 {stroke:#FFD70D;stroke-width:1.89064}
    .fil0 {fill:none;fill-rule:nonzero}
    .fil1 {fill:black;fill-rule:nonzero}
   ]]>
  </style>
 </defs>
 <g id="Layer_x0020_1">
  <metadata id="CorelCorpID_0Corel-Layer"/>
  <g id="_722803120">
   <path class="fil0 str0" d="M86 43c26,0 48,21 48,48 0,26 -22,47 -48,47 -26,0 -48,-21 -48,-47 0,-27 22,-48 48,-48z"/>
   <path class="fil0 str1" d="M86 40c28,0 50,23 50,51 0,27 -22,50 -50,50 -13,-1 -20,-5 -32,-10 -14,-7 -14,-14 -17,-28 -1,-5 -1,-8 -1,-12 0,-28 22,-51 50,-51z"/>
   <path class="fil0 str1" d="M134 67c5,9 6,18 6,28 1,11 -1,17 -9,26 -3,4 -7,7 -10,11 -6,8 -9,11 -19,11 -5,0 -8,0 -13,0 -1,0 -2,0 -3,0 -15,0 -23,-5 -36,-10 -9,-3 -13,-7 -14,-17 0,-5 0,-8 -1,-13 -1,-5 -2,-8 -2,-12 0,-6 0,-11 0,-16 0,-12 9,-16 17,-23 10,-9 20,-13 33,-14 22,-2 24,0 40,15 4,4 7,8 11,14z"/>
   <path class="fil0 str2" d="M120 41c12,8 19,23 22,37 1,4 1,7 1,11 1,10 2,21 -4,28 -6,8 -11,9 -17,19 -6,10 -8,12 -21,12l-1 0 -2 0c-5,0 -10,0 -15,0 -10,-1 -19,-3 -27,-7l-1 -1c-7,-4 -14,-7 -19,-13 -5,-8 -3,-20 -5,-30l0 -1c-3,-13 -9,-33 5,-41l1 -1c8,-3 11,-4 18,-9 15,-10 26,-13 45,-11 7,1 14,2 20,7z"/>
   <path class="fil0 str2" d="M109 33c18,3 35,21 37,39 1,6 2,12 2,17 0,0 0,14 0,15 0,8 -3,14 -9,20 -3,2 -15,17 -16,20 -1,11 -10,12 -21,9 -3,-1 -7,-2 -12,-2 -15,0 -44,-2 -55,-16 -3,-5 -5,-7 -6,-12 -1,-5 -1,-3 -1,-8 0,-11 7,-15 -4,-27 -6,-7 -3,-21 2,-28 4,-4 2,-12 7,-12 9,0 4,3 17,-3 26,-12 26,-19 59,-12z"/>
   <path class="fil0 str3" d="M118 33c7,-1 16,6 20,13 3,7 6,9 10,15 7,12 8,49 7,55 -3,18 -30,19 -30,34 0,3 1,7 -3,9 -3,2 -33,-6 -40,-6 -5,0 -9,0 -14,1 -9,2 -21,4 -26,-6 -8,-15 -29,1 -14,-44 2,-6 -11,-16 -11,-31 0,-10 8,-11 10,-19 3,-12 -2,-11 13,-11 7,0 15,-4 20,-8 4,-4 18,-7 24,-7 1,0 5,0 8,0 1,0 22,5 26,5z"/>
   <path class="fil0 str4" d="M47 38c-5,2 -9,0 -14,2 -16,4 -5,8 -12,17 -6,7 -13,13 -7,23 13,24 12,18 6,43 -2,13 2,20 13,26 3,2 6,6 10,7 11,3 13,10 28,9 10,-1 15,-5 20,-5 7,0 34,7 39,1 5,-6 -1,-9 3,-17 3,-7 5,-3 13,-5 8,-1 10,-4 14,-12 5,-6 7,-18 4,-25 -3,-7 -2,-15 -5,-21 -2,-3 -4,-15 -5,-19 -1,-9 0,-7 -7,-13 -14,-12 -18,-22 -30,-28 -15,-8 -16,4 -29,4 -8,0 -4,-8 -13,-6 -11,3 -19,17 -28,19z"/>
   <path class="fil0 str4" d="M15 45c-3,-3 -2,-15 8,-10 3,2 20,3 24,1 17,-9 21,-38 27,-35 10,7 7,23 16,20l4 -2c24,-14 28,8 40,7 7,0 8,13 14,18 25,23 15,20 15,45 0,16 13,31 1,45 -5,5 -7,8 -18,9 -10,1 -5,7 -8,15 -3,8 1,15 -14,14 -12,-2 -28,-9 -37,-6 -2,0 -9,4 -12,6 -11,6 -20,1 -21,-3 -1,-6 -10,-12 -18,-12 -5,0 -10,0 -13,-4 -4,-6 -1,-6 -3,-13 -3,-7 -4,-14 -8,-19 -5,-7 6,-12 8,-14 3,-3 3,-10 -1,-11 -2,0 -15,1 -18,-7 -4,-13 25,-30 14,-44z"/>
   <path class="fil1" d="M195 84m8 0l4 0 0 -20 8 0 0 -3 -20 0 0 3 8 0 0 20zm14 0m11 1c8,0 13,-5 13,-13 0,-6 -4,-12 -12,-12 -8,0 -12,5 -12,12 0,8 4,13 11,13zm0 -3c-5,0 -8,-5 -8,-10 0,-5 3,-9 9,-9 5,0 8,4 8,9 0,6 -3,10 -9,10zm17 2m10 1c5,0 10,-3 10,-10l0 -14 -4 0 0 14c0,5 -2,7 -6,7 -3,0 -6,-2 -6,-7l0 -14 -4 0 0 15c0,7 5,9 10,9zm16 -1m0 0l4 0 0 -9 3 0c0,0 1,0 2,0l6 9 4 0 -7 -10c3,-1 4,-3 4,-6 0,-5 -3,-7 -8,-7l-8 0 0 23zm4 -12l0 -8 4 0c3,0 5,1 5,4 0,3 -3,4 -6,4l-3 0zm20 12m0 0l3 0 0 -23 -3 0 0 23zm8 0m7 1c4,0 9,-3 9,-7 0,-8 -12,-7 -12,-12 0,-2 2,-3 4,-3 2,0 4,1 5,2l1 -3c-1,-1 -3,-2 -6,-2 -4,0 -7,2 -7,6 0,8 11,7 11,12 0,2 -2,4 -5,4 -2,0 -4,-1 -6,-2l-1 3c1,1 4,2 7,2zm13 -1m0 0l4 0 0 -14 0 -4 0 0 6 18 5 0 7 -18 0 0 0 4 0 14 3 0 0 -23 -4 0 -9 21 -7 -21 -5 0 0 23z"/>
   <path class="fil1" d="M195 121m0 0l5 0 3 -7 7 0 2 7 6 0 -8 -23 -7 0 -8 23zm9 -11l3 -9 2 9 -5 0zm17 11m0 0l5 0 0 -8 2 0c0,0 1,0 1,0l6 8 7 0 -7 -10c2,-1 4,-3 4,-6 0,-5 -4,-7 -9,-7l-9 0 0 23zm5 -12l0 -7 3 0c3,0 4,1 4,3 0,3 -1,4 -5,4l-2 0zm19 12m0 0l6 0 0 -9 -1 -5 0 0 5 14 6 0 5 -14 0 0 0 5 0 9 6 0 0 -23 -7 0 -7 18 -6 -18 -7 0 0 23zm32 0m0 0l16 0 0 -5 -10 0 0 -5 8 0 0 -4 -8 0 0 -5 9 0 0 -4 -15 0 0 23zm20 0m0 0l5 0 0 -13 0 -3 0 0 9 16 6 0 0 -23 -5 0 0 13 0 3 0 0 -9 -16 -6 0 0 23zm26 0m0 0l5 0 0 -23 -5 0 0 23zm7 0m0 0l6 0 2 -7 8 0 2 7 6 0 -8 -23 -7 0 -9 23zm10 -11l3 -9 2 9 -5 0z"/>
  </g>
 </g>
</svg>
