<?xml version="1.0" encoding="utf-8"?>
<!-- Generator: Adobe Illustrator 21.0.0, SVG Export Plug-In . SVG Version: 6.00 Build 0)  -->
<svg version="1.1" id="Layer_1" xmlns="http://www.w3.org/2000/svg" xmlns:xlink="http://www.w3.org/1999/xlink" x="0px" y="0px"
	 viewBox="0 0 100 100" style="enable-background:new 0 0 100 100;" xml:space="preserve">
<style type="text/css">
	.st0{fill:#787878;}
</style>
<g>
	<path class="st0" d="M95.9,45.5c-2,0-3.7,1.7-3.7,3.7V56H7.8V26.4c0-2-1.7-3.7-3.7-3.7c-2,0-3.7,1.7-3.7,3.7v47.1
		c0,2,1.7,3.7,3.7,3.7c2,0,3.7-1.7,3.7-3.7v-6.5h84.4v6.5c0,2,1.7,3.7,3.7,3.7c2,0,3.7-1.7,3.7-3.7V49.2
		C99.6,47.2,97.9,45.5,95.9,45.5z"/>
	<path class="st0" d="M14.7,50.5h23.6h29.6H85c2.8,0,5.1-2.3,5.1-5.1c0-9.4-7.7-17.1-17.1-17.1H39.5c-0.7,0-1.2,0.6-1.2,1.2v12.6
		H14.7c-2.3,0-4.2,1.9-4.2,4.2S12.4,50.5,14.7,50.5z"/>
	<circle class="st0" cx="26.9" cy="30.8" r="8"/>
</g>
</svg>
