<?xml version="1.0" encoding="utf-8"?>
<!-- Generator: Adobe Illustrator 21.0.0, SVG Export Plug-In . SVG Version: 6.00 Build 0)  -->
<svg version="1.1" id="Layer_1" xmlns="http://www.w3.org/2000/svg" xmlns:xlink="http://www.w3.org/1999/xlink" x="0px" y="0px"
	 viewBox="0 0 100 100" style="enable-background:new 0 0 100 100;" xml:space="preserve">
<style type="text/css">
	.st0{fill:#296783;}
</style>
<path class="st0" d="M85.2,10.4H74.6V5.9c0-2.3-1.9-4.2-4.2-4.2s-4.2,1.9-4.2,4.2v4.5H33.8V5.9c0-2.3-1.9-4.2-4.2-4.2
	s-4.2,1.9-4.2,4.2v4.5H14.8C6.7,10.4,0.1,17,0.1,25.2v58.4c0,8.1,6.6,14.8,14.8,14.8h70.3c8.1,0,14.8-6.6,14.8-14.8V25.2
	C99.9,17,93.3,10.4,85.2,10.4z M29.6,27.5c2.3,0,4.2-1.9,4.2-4.2v-4.5h32.4v4.5c0,2.3,1.9,4.2,4.2,4.2s4.2-1.9,4.2-4.2v-4.5h10.6
	c3.5,0,6.4,2.9,6.4,6.4v10.2H8.4V25.2c0-3.5,2.9-6.4,6.4-6.4h10.6v4.5C25.4,25.6,27.3,27.5,29.6,27.5z"/>
</svg>
