<?xml version="1.0" encoding="utf-8"?>
<!-- Generator: Adobe Illustrator 21.0.0, SVG Export Plug-In . SVG Version: 6.00 Build 0)  -->
<svg version="1.1" id="Layer_1" xmlns="http://www.w3.org/2000/svg" xmlns:xlink="http://www.w3.org/1999/xlink" x="0px" y="0px"
	 viewBox="0 0 100 100" style="enable-background:new 0 0 100 100;" xml:space="preserve">
<style type="text/css">
	.st0{fill:#787878;}
</style>
<g>
	<g>
		<path class="st0" d="M22.3,76.3L22.3,76.3c-0.9,0-1.8-0.4-2.4-1.1C17.8,73,0.2,52.9,0.2,38.5c0-12.2,9.9-22.1,22.1-22.1
			c12.2,0,22.1,9.9,22.1,22.1c0,14.4-17.6,34.5-19.7,36.7C24.1,75.9,23.2,76.3,22.3,76.3z M22.3,29.5c-4.9,0-9,4-9,9s4,9,9,9
			s9-4,9-9S27.3,29.5,22.3,29.5z"/>
	</g>
	<g>
		<path class="st0" d="M87.3,48.7L87.3,48.7c-0.5,0-1-0.2-1.4-0.6c-1.1-1.3-11.1-12.6-11.1-20.7c0-6.9,5.6-12.5,12.5-12.5
			c6.9,0,12.5,5.6,12.5,12.5c0,8.1-10,19.5-11.1,20.7C88.4,48.5,87.9,48.7,87.3,48.7z M87.3,22.3c-2.8,0-5.1,2.3-5.1,5.1
			s2.3,5.1,5.1,5.1s5.1-2.3,5.1-5.1S90.1,22.3,87.3,22.3z"/>
	</g>
	<g>
		<g>
			<path class="st0" d="M29.5,83.6c-0.2,0-0.3,0-0.5-0.1c-2.2-0.5-3.6-1-3.6-1c-1.1-0.4-1.7-1.6-1.3-2.7c0.4-1.1,1.6-1.7,2.7-1.3
				c0,0,1.2,0.4,3.2,0.9c1.1,0.3,1.9,1.4,1.6,2.6C31.3,82.9,30.5,83.6,29.5,83.6z"/>
		</g>
		<g>
			<path class="st0" d="M41.4,85.1c-1.7,0-3.5-0.1-5.2-0.3c-1.2-0.1-2-1.2-1.9-2.4c0.1-1.2,1.2-2,2.4-1.9c2.3,0.3,4.5,0.3,6.6,0.2
				c1.2,0,2.2,0.8,2.2,2c0.1,1.2-0.8,2.2-2,2.2C42.8,85.1,42.1,85.1,41.4,85.1z M50.2,84c-0.9,0-1.8-0.6-2.1-1.6
				c-0.3-1.1,0.3-2.3,1.5-2.6c2.1-0.6,4.1-1.5,5.7-2.6c1-0.7,2.3-0.4,3,0.6c0.7,1,0.4,2.3-0.6,3c-2,1.4-4.4,2.4-7,3.1
				C50.6,84,50.4,84,50.2,84z M61.9,76.6c-0.6,0-1.1-0.2-1.5-0.6c-0.8-0.8-0.8-2.2,0-3c1.5-1.4,2.9-3,4.7-5c0.8-0.9,2.1-1,3-0.2
				c0.9,0.8,1,2.1,0.2,3c-1.9,2.1-3.4,3.7-4.9,5.2C63,76.4,62.5,76.6,61.9,76.6z M71.4,66.3c-0.5,0-1-0.2-1.4-0.6
				c-0.9-0.8-0.9-2.1-0.1-3c1.4-1.5,3.2-3.5,5.2-5.1c0.9-0.7,2.3-0.6,3,0.3s0.6,2.3-0.3,3c-1.8,1.4-3.5,3.3-4.8,4.7
				C72.5,66.1,72,66.3,71.4,66.3z"/>
		</g>
		<g>
			<path class="st0" d="M82.5,58c-0.9,0-1.8-0.6-2-1.5c-0.3-1.1,0.3-2.3,1.4-2.7c1.3-0.4,2.7-0.6,4-0.7c1.2-0.1,2.2,0.9,2.2,2
				c0.1,1.2-0.9,2.2-2,2.2c-1,0-2,0.2-3,0.5C82.9,58,82.7,58,82.5,58z"/>
		</g>
	</g>
</g>
</svg>
