<?xml version="1.0" encoding="utf-8"?>
<!-- Generator: Adobe Illustrator 21.0.0, SVG Export Plug-In . SVG Version: 6.00 Build 0)  -->
<svg version="1.1" id="Layer_1" xmlns="http://www.w3.org/2000/svg" xmlns:xlink="http://www.w3.org/1999/xlink" x="0px" y="0px"
	 viewBox="0 0 100 100" style="enable-background:new 0 0 100 100;" xml:space="preserve">
<style type="text/css">
	.st0{fill:#787878;}
</style>
<g>
	<path class="st0" d="M34.7,50.2H11.3V25.6h47v20.4h9c0-0.7,0-1.4,0-2c1.6-0.5,2.7-1.9,2.7-3.7v-7.5c0-2-1.6-3.7-3.5-3.8
		c-0.6-6.1-1.6-10.8-3.2-12.7c-6.5-7.7-51.8-8.2-56.9,0C5.1,18.3,4.2,23,3.6,29c-1.9,0.2-3.4,1.8-3.4,3.8v7.5c0,1.7,1,3.1,2.5,3.6
		c-0.3,11.7-0.1,24,0.5,30.1c0,4.7,3.2,3.9,3.2,3.9h3v5.1c0,2,2.1,3.6,4.6,3.6c2.6,0,4.6-1.6,4.6-3.6v-5.1h16.2V50.2z M17.9,71.9
		c-2.7,0-4.9-2.2-4.9-4.9c0-2.7,2.2-4.9,4.9-4.9c2.7,0,4.9,2.2,4.9,4.9C22.9,69.6,20.6,71.9,17.9,71.9z"/>
	<path class="st0" d="M95.9,61.6c0,0-0.1-0.1-0.1-0.1l-2.2-2.1c1.8-0.4,3.8-2,3.8-3.5c0-1.8-2.5-2.5-4.7-2.5c-2.3,0-2.5,1.6-2.6,2.7
		l-5.7-5.5c-1.2-1.1-3.3-2-5-2H57.2c-1.6,0-3.8,0.9-5,2L46.6,56c0-1.1-0.3-2.7-2.6-2.7c-2.2,0-4.7,0.6-4.7,2.5c0,1.6,2,3.1,3.8,3.5
		l-2.2,2.1c0,0-0.1,0.1-0.1,0.1c-2.4,2-3.9,5.8-3.9,8.5v8.1c0,2,0.8,3.7,2,5.1v3.1c0,1.8,1.5,3.3,3.4,3.3h4.1c1.9,0,3.4-1.5,3.4-3.3
		v-0.8h37v0.8c0,1.8,1.5,3.3,3.4,3.3h4.1c1.9,0,3.4-1.5,3.4-3.3v-3.1c1.2-1.3,2-3.1,2-5.1v-8.1C99.8,67.4,98.2,63.6,95.9,61.6
		L95.9,61.6z M54.3,53c0.8-0.7,2.2-1.2,2.9-1.2h22.2c0.7,0,2.1,0.5,2.9,1.2l7.5,7.2H46.9L54.3,53z M39.4,68.9c0-2,1.6-3.6,3.5-3.6
		c1.9,0,8.2,3.7,8.2,5.7c0,2-6.3,1.5-8.2,1.5C41,72.5,39.4,70.9,39.4,68.9L39.4,68.9z M78.8,75.9h-21c-2.2,0-4-2.7-4-6h28.9
		C82.7,73.2,81,75.9,78.8,75.9L78.8,75.9z M93.8,72.5c-1.9,0-8.2,0.5-8.2-1.5c0-2,6.3-5.7,8.2-5.7c1.9,0,3.5,1.6,3.5,3.6
		C97.2,70.9,95.7,72.5,93.8,72.5L93.8,72.5z M93.8,72.5"/>
</g>
</svg>
