<?xml version="1.0" encoding="utf-8"?>
<!-- Generator: Adobe Illustrator 21.0.0, SVG Export Plug-In . SVG Version: 6.00 Build 0)  -->
<svg version="1.1" id="Layer_1" xmlns="http://www.w3.org/2000/svg" xmlns:xlink="http://www.w3.org/1999/xlink" x="0px" y="0px"
	 viewBox="0 0 100 100" style="enable-background:new 0 0 100 100;" xml:space="preserve">
<style type="text/css">
	.st0{fill:#296783;}
</style>
<path class="st0" d="M96,0.5L85.5,5.3c-0.7,0.3-1.3,0.7-1.8,1.3L66.5,23.7l-59-7.1c-1.1-0.1-2.1,0.2-2.9,1L1.3,21
	c-1.7,1.7-1.2,4.7,1,5.7l42.3,19L32.5,57.8H11.3c-0.9,0-1.8,0.4-2.5,1l-1.8,1.8c-1.8,1.8-1.2,4.7,1.1,5.7l17.9,7.7l7.7,17.9
	c1,2.3,4,2.9,5.7,1.1l1.8-1.8c0.7-0.7,1-1.6,1-2.5V67.5l12.1-12.1l19,42.3c1,2.2,3.9,2.8,5.7,1l3.3-3.3c0.8-0.8,1.1-1.8,1-2.9
	l-7.1-59l17.2-17.2c0.5-0.5,1-1.1,1.3-1.8L99.5,4C100.5,1.8,98.2-0.5,96,0.5L96,0.5z M96,0.5"/>
</svg>
