<?xml version="1.0" encoding="utf-8"?>
<!-- Generator: Adobe Illustrator 21.0.0, SVG Export Plug-In . SVG Version: 6.00 Build 0)  -->
<svg version="1.1" id="Layer_1" xmlns="http://www.w3.org/2000/svg" xmlns:xlink="http://www.w3.org/1999/xlink" x="0px" y="0px"
	 viewBox="0 0 100 100" style="enable-background:new 0 0 100 100;" xml:space="preserve">
<style type="text/css">
	.st0{fill:#296783;}
</style>
<g>
	<path class="st0" d="M50,99.8L50,99.8c-1.6,0-3-0.7-4.1-1.8c-3.3-3.7-32.7-37.1-32.7-61.1C13.2,16.6,29.7,0.2,50,0.2
		c20.3,0,36.8,16.5,36.8,36.8c0,24-29.3,57.4-32.7,61.1C53,99.2,51.5,99.8,50,99.8z M50,22c-8.2,0-14.9,6.7-14.9,14.9
		S41.8,51.8,50,51.8s14.9-6.7,14.9-14.9S58.2,22,50,22z"/>
</g>
</svg>
