<svg xmlns="http://www.w3.org/2000/svg" xmlns:xlink="http://www.w3.org/1999/xlink" xml:space="preserve" width="300px" height="62px" version="1.1" style="shape-rendering:geometricPrecision; text-rendering:geometricPrecision; image-rendering:optimizeQuality; fill-rule:evenodd; clip-rule:evenodd; margin-left: 20px;" viewBox="0 0 2732 354">
							 <defs>
							  <style type="text/css">
							   
							    .fil14 {fill:#606062}
							    .fil7 {fill:url(#id0)}
							    .fil3 {fill:url(#id1)}
							    .fil11 {fill:url(#id2)}
							    .fil6 {fill:url(#id3)}
							    .fil4 {fill:url(#id4)}
							    .fil2 {fill:url(#id5)}
							    .fil5 {fill:url(#id6)}
							    .fil12 {fill:url(#id7)}
							    .fil1 {fill:url(#id8)}
							    .fil9 {fill:url(#id9)}
							    .fil0 {fill:url(#id10)}
							    .fil13 {fill:url(#id11)}
							    .fil10 {fill:url(#id12)}
							    .fil8 {fill:url(#id13)}
							   
							  </style>
							  <linearGradient id="id0" gradientUnits="userSpaceOnUse" x1="342.738" y1="94.6062" x2="430.872" y2="399.154">
							   <stop offset="0" style="stop-opacity:1; stop-color:#FAC42C"></stop>
							   <stop offset="1" style="stop-opacity:1; stop-color:#F0553B"></stop>
							  </linearGradient>
							  <linearGradient id="id1" gradientUnits="userSpaceOnUse" x1="342.146" y1="-27.5978" x2="77.0886" y2="355.721">
							   <stop offset="0" style="stop-opacity:1; stop-color:#353B6C"></stop>
							   <stop offset="0.858824" style="stop-opacity:1; stop-color:#C83437"></stop>
							   <stop offset="1" style="stop-opacity:1; stop-color:#A83436"></stop>
							  </linearGradient>
							  <linearGradient id="id2" gradientUnits="userSpaceOnUse" x1="210.026" y1="63.9899" x2="372.502" y2="404.445">
							   <stop offset="0" style="stop-opacity:1; stop-color:#FAD727"></stop>
							   <stop offset="1" style="stop-opacity:1; stop-color:#E77437"></stop>
							  </linearGradient>
							  <linearGradient id="id3" gradientUnits="userSpaceOnUse" x1="210.026" y1="54.1175" x2="372.501" y2="406.155">
							   <stop offset="0" style="stop-opacity:1; stop-color:#FAC42C"></stop>
							   <stop offset="1" style="stop-opacity:1; stop-color:#E55838"></stop>
							  </linearGradient>
							  <linearGradient id="id4" gradientUnits="userSpaceOnUse" x1="72.6755" y1="295.154" x2="113.984" y2="89.8318">
							   <stop offset="0" style="stop-opacity:1; stop-color:#D55839"></stop>
							   <stop offset="0.760784" style="stop-opacity:1; stop-color:#F6AC31"></stop>
							   <stop offset="1" style="stop-opacity:1; stop-color:#BF4237"></stop>
							  </linearGradient>
							  <linearGradient id="id5" gradientUnits="userSpaceOnUse" x1="409.422" y1="-27.8529" x2="86.974" y2="355.736">
							   <stop offset="0" style="stop-opacity:1; stop-color:#343C69"></stop>
							   <stop offset="0.858824" style="stop-opacity:1; stop-color:#C73437"></stop>
							   <stop offset="1" style="stop-opacity:1; stop-color:#9F3335"></stop>
							  </linearGradient>
							  <linearGradient id="id6" gradientUnits="userSpaceOnUse" x1="389.728" y1="-25.8773" x2="84.0807" y2="339.487">
							   <stop offset="0" style="stop-opacity:1; stop-color:#353C66"></stop>
							   <stop offset="0.65098" style="stop-opacity:1; stop-color:#D33438"></stop>
							   <stop offset="1" style="stop-opacity:1; stop-color:#9A383A"></stop>
							  </linearGradient>
							  <linearGradient id="id7" gradientUnits="userSpaceOnUse" x1="375.972" y1="265.504" x2="445.487" y2="369.61">
							   <stop offset="0" style="stop-opacity:1; stop-color:#FDC300"></stop>
							   <stop offset="1" style="stop-opacity:1; stop-color:#E94F09"></stop>
							  </linearGradient>
							  <linearGradient id="id8" gradientUnits="userSpaceOnUse" x1="683.681" y1="9.16976" x2="724.277" y2="354.841">
							   <stop offset="0" style="stop-opacity:1; stop-color:#328ECC"></stop>
							   <stop offset="1" style="stop-opacity:1; stop-color:#394697"></stop>
							  </linearGradient>
							  <linearGradient id="id9" gradientUnits="userSpaceOnUse" x1="553.204" y1="-17.0169" x2="626.854" y2="356.871">
							   <stop offset="0" style="stop-opacity:1; stop-color:#3E96D1"></stop>
							   <stop offset="1" style="stop-opacity:1; stop-color:#4C54A2"></stop>
							  </linearGradient>
							  <linearGradient id="id10" gradientUnits="userSpaceOnUse" x1="553.204" y1="-23.7422" x2="626.854" y2="357.388">
							   <stop offset="0" style="stop-opacity:1; stop-color:#1582C4"></stop>
							   <stop offset="1" style="stop-opacity:1; stop-color:#3D3E82"></stop>
							  </linearGradient>
							  <linearGradient id="id11" gradientUnits="userSpaceOnUse" xlink:href="#id3" x1="28.7917" y1="82.1995" x2="66.1085" y2="340.408">
							  </linearGradient>
							  <linearGradient id="id12" gradientUnits="userSpaceOnUse" x1="712.455" y1="162.65" x2="745.763" y2="343.039">
							   <stop offset="0" style="stop-opacity:1; stop-color:#2D8AC9"></stop>
							   <stop offset="1" style="stop-opacity:1; stop-color:#3A499B"></stop>
							  </linearGradient>
							  <linearGradient id="id13" gradientUnits="userSpaceOnUse" x1="346.312" y1="58.6994" x2="469.041" y2="12.2815">
							   <stop offset="0" style="stop-opacity:1; stop-color:#3F3868"></stop>
							   <stop offset="1" style="stop-opacity:1; stop-color:#2F2F41"></stop>
							  </linearGradient>
							 </defs>
							 <g id="Layer_x0020_1">
							  <metadata id="CorelCorpID_0Corel-Layer"></metadata>
							  <g id="_262561888">
							   <g>
							    <path class="fil0" d="M844 309c-115,-34 -161,-186 -256,-263 -70,-55 -180,-62 -250,-14 211,-122 243,410 506,277z"></path>
							    <path class="fil1" d="M844 309c-115,-34 -161,-186 -256,-263 -7,-5 -15,-11 -23,-15 61,36 27,162 91,251 49,46 108,67 188,27z"></path>
							    <path class="fil2" d="M471 44c-89,25 -136,144 -202,223 -61,72 -150,94 -238,30 35,14 73,0 116,-40 25,-24 56,-61 93,-112 34,-47 51,-76 98,-113 54,-31 96,-20 133,12z"></path>
							    <path class="fil3" d="M308 215c-13,18 -26,36 -39,52 -61,72 -150,94 -238,30 35,14 73,0 116,-40 25,-24 56,-61 93,-112 34,-47 51,-76 98,-113 20,-11 38,-17 55,-18 -54,41 -68,122 -85,201z"></path>
							    <path class="fil4" d="M190 126c-62,10 -149,121 -82,161l0 0c-28,16 -53,20 -77,10 -69,-65 -10,-148 54,-189 44,-24 77,-9 105,18z"></path>
							    <path class="fil5" d="M69 319c-12,-5 -25,-13 -38,-22 35,14 73,0 116,-40 25,-24 56,-61 93,-112 34,-47 51,-76 98,-113 43,-25 78,-23 110,-5 -27,-8 -56,-5 -91,15 -48,38 -66,68 -101,116 -38,52 -69,91 -95,114 -33,32 -64,48 -92,47z"></path>
							    <path class="fil6" d="M225 167c74,97 123,231 275,174 -115,-45 -137,-166 -239,-232 -58,-36 -118,-34 -176,-1 64,-34 104,11 140,59z"></path>
							    <path class="fil7" d="M375 341c33,16 73,19 125,0 -110,-43 -135,-155 -225,-222 41,35 20,130 70,200 10,8 19,16 30,22z"></path>
							    <path class="fil8" d="M471 44c-13,3 -25,9 -36,16 -27,-21 -56,-34 -89,-32 50,-26 89,-14 125,16z"></path>
							    <path class="fil9" d="M844 309c-6,-25 0,0 0,0 -23,3 -57,7 -78,1 -97,-25 -161,-169 -241,-250 -53,-53 -119,-75 -187,-28 0,0 0,0 0,0l0 0 0 0c211,-122 243,410 506,277z"></path>
							    <path class="fil10" d="M844 309c-23,3 -57,7 -78,1 -59,-15 -105,-74 -151,-136 7,37 17,75 41,108 8,7 15,14 23,19 1,0 1,1 1,1 2,1 4,3 7,4 0,1 1,1 2,2 2,1 4,2 5,3 1,1 3,1 4,2 1,1 3,2 4,2 2,1 3,2 5,3 1,0 2,1 3,1 2,1 4,2 6,2 1,1 2,1 3,2 2,0 4,1 6,2 1,0 2,0 3,0 2,1 5,2 7,2 1,0 1,0 2,1 3,0 5,0 8,1 0,0 1,0 2,0 2,0 5,1 7,1 1,0 1,0 2,0 3,0 6,0 9,0 0,0 1,0 1,0 3,0 6,0 9,0 1,0 1,0 1,0 3,-1 7,-1 10,-2 0,0 0,0 1,0 3,0 6,-1 10,-2 0,0 0,0 0,0 4,-1 8,-2 11,-3 0,0 1,0 1,0 3,-1 7,-2 11,-4 0,0 0,0 0,0 4,-1 8,-3 12,-4 0,-1 0,-1 0,-1 4,-1 8,-3 12,-5 0,0 0,0 0,0z"></path>
							    <path class="fil11" d="M225 167c74,97 123,231 275,174l0 -1c-135,31 -192,-84 -262,-184 -35,-50 -78,-80 -137,-56 -5,2 -11,5 -16,8 64,-34 104,11 140,59z"></path>
							    <path class="fil12" d="M379 343l0 0c2,1 3,2 5,2l0 0c1,1 3,1 4,2l1 0c1,1 3,1 4,2l1 0c1,0 3,1 4,1l1 0c1,0 3,1 4,1l1 0c1,1 3,1 4,1l1 0c1,1 3,1 5,1l0 0c2,0 3,0 5,1 0,0 0,0 0,0 2,0 4,0 6,0l0 0c1,0 3,0 5,0l0 0c2,0 4,0 6,0l0 0c2,0 4,0 6,0 0,0 0,0 0,0 2,0 4,0 5,-1l1 0c2,0 4,0 6,0l0 0c2,-1 4,-1 6,-1l0 0c2,-1 4,-1 6,-1l0 -1c2,0 5,0 7,-1l0 0c2,-1 4,-1 6,-2l1 0c2,0 4,-1 6,-2l0 0c2,0 5,-1 7,-2l0 0c2,-1 5,-2 7,-2l0 -1c-81,18 -133,-15 -178,-66 12,33 25,53 57,69z"></path>
							    <path class="fil13" d="M89 296c-20,8 -40,8 -58,1 -69,-65 -10,-148 54,-189 3,-2 7,-3 10,-5 -67,32 -90,157 -6,193z"></path>
							   </g>
							   <path class="fil14" d="M1070 252l-90 0 -21 57 -23 0 79 -209 20 0 78 209 -22 0 -21 -57zm99 -73c-7,6 -11,14 -13,23l0 107 -22 0 0 -157 19 0 2 21c13,-20 34,-28 56,-21l-3 20c-14,-1 -27,-3 -39,7zm83 -7c4,-6 9,-11 16,-15 9,-5 19,-8 30,-8 11,0 21,3 30,9 8,6 13,13 16,21 4,-8 10,-15 18,-20 9,-7 20,-10 32,-10 16,0 29,5 39,17 12,14 14,35 14,52l0 91 -22 0 0 -92c0,-11 -1,-28 -9,-38 -7,-7 -16,-10 -26,-10 -10,0 -20,3 -28,11 -7,9 -11,19 -12,30 0,1 0,2 0,2 0,1 0,2 0,3l0 94 -22 0 0 -92c0,-11 -2,-28 -10,-37 -6,-8 -15,-11 -25,-11 -10,0 -19,2 -27,8 -7,6 -11,14 -13,23l0 109 -22 0 0 -157 19 0 2 20zm246 61l0 2c0,15 4,29 13,41 9,11 20,16 34,16 8,0 17,-1 26,-4 6,-3 12,-7 18,-12l2 -2 10 16 -2 1c-6,7 -14,12 -22,15 -10,4 -21,6 -32,6 -20,0 -36,-8 -49,-22 -14,-16 -20,-35 -20,-55l0 -8c0,-21 6,-40 19,-55 13,-15 29,-23 48,-23 17,0 33,6 45,19 13,13 17,31 17,49l0 16 -107 0zm156 -60c4,-6 10,-11 16,-16 10,-5 20,-8 31,-8 15,0 29,5 39,16 11,13 14,33 14,49l0 95 -22 0 0 -95c0,-11 -1,-27 -9,-35 -7,-8 -16,-10 -26,-10 -10,0 -19,2 -27,9 -7,6 -12,14 -15,23l0 108 -22 0 0 -157 20 0 1 21zm162 136l-21 0 0 -157 21 0 0 157zm0 -195l-21 0 0 -29 21 0 0 29zm136 174c-5,6 -11,11 -19,15 -10,6 -21,9 -32,9 -13,0 -27,-4 -36,-13 -10,-9 -13,-20 -13,-33 0,-15 6,-27 19,-36 14,-10 33,-13 50,-13l31 0 0 -16c0,-9 -3,-17 -9,-24 -8,-6 -18,-8 -28,-8 -10,0 -19,2 -27,8 -7,5 -11,11 -11,20l0 2 -20 0 -1 -3 0 0c0,-14 7,-24 17,-33 12,-10 27,-14 43,-14 15,0 30,4 42,14 11,10 16,23 16,38l0 75c0,5 0,10 1,15 0,5 1,10 3,14l1 4 -23 0 -1 -2c-1,-5 -2,-9 -2,-14 0,-1 -1,-3 -1,-5zm138 -169l0 190 -22 0 0 -190 -70 0 0 -19 162 0 0 19 -70 0zm142 52c-9,0 -17,2 -24,8 -7,6 -11,14 -13,23l0 107 -22 0 0 -157 19 0 2 21c4,-6 8,-11 14,-15 8,-6 18,-9 28,-9 2,0 4,1 7,1 1,0 3,1 5,1l2 1 -3 20 -15 -1zm131 117c-5,6 -11,11 -19,15 -10,6 -21,9 -32,9 -14,0 -27,-4 -36,-13 -10,-9 -13,-20 -13,-33 0,-15 6,-27 19,-36 14,-10 33,-13 50,-13l31 0 0 -16c0,-9 -3,-17 -10,-24 -7,-6 -17,-8 -27,-8 -10,0 -20,2 -28,8 -6,5 -10,11 -10,20l0 2 -20 0 -1 -3 0 0c-1,-14 6,-24 17,-33 12,-10 27,-14 43,-14 15,0 30,4 42,14 11,10 16,23 16,38l0 75c0,5 0,10 1,15 0,5 1,10 3,14l0 4 -22 0 -1 -2c-1,-5 -2,-9 -2,-14 0,-1 -1,-3 -1,-5zm110 -10l3 -11 42 -115 23 0 -59 157 -17 0 -60 -157 23 0 42 115 3 11zm100 -45l0 2c0,15 4,29 13,41 9,11 20,16 34,16 9,0 18,-1 26,-4 7,-3 13,-7 18,-12l2 -2 10 16 -1 1c-7,7 -15,12 -23,15 -10,4 -21,6 -32,6 -20,0 -36,-8 -49,-22 -14,-16 -20,-35 -20,-55l0 -8c0,-21 6,-40 20,-55 12,-15 28,-23 47,-23 17,0 33,6 45,19 13,13 17,31 17,49l0 16 -107 0zm159 76l-22 0 0 -224 22 0 0 224zm-1745 -77l75 0 -37 -102 -38 102zm512 -18l84 0 0 -2c0,-11 -3,-22 -11,-31 -8,-9 -18,-12 -29,-12 -12,0 -22,4 -30,13 -8,9 -12,20 -14,32zm453 50l0 -29 -31 0c-12,0 -25,2 -35,9 -8,6 -13,13 -13,23 0,7 3,13 8,18 6,5 14,7 22,7 11,0 21,-2 30,-8 8,-5 15,-12 19,-20zm411 0l0 -29 -31 0c-12,0 -25,2 -35,9 -8,6 -13,13 -13,23 0,7 3,13 8,18 6,5 14,7 22,7 10,0 21,-2 30,-8 8,-5 15,-12 19,-20zm212 -50l83 0 0 -2c0,-11 -3,-22 -11,-31 -7,-9 -18,-12 -29,-12 -12,0 -22,4 -30,13 -8,9 -12,20 -13,32z"></path>
							  </g>
							 </g>
							</svg>